<?xml version="1.0" encoding="UTF-8"?>
<svg version="1.1" xmlns="http://www.w3.org/2000/svg" width="512" height="512">
<path d="M0 0 C1.52554628 -0.00935994 1.52554628 -0.00935994 3.08191168 -0.01890898 C6.45870955 -0.034747 9.83477632 -0.02227043 13.21157837 -0.00964355 C15.64528318 -0.0150688 18.07898471 -0.02219372 20.51268005 -0.03088379 C26.41850116 -0.04718794 32.32413536 -0.04485907 38.22995113 -0.03323323 C43.03413256 -0.02417063 47.83825707 -0.02298707 52.64244461 -0.02732849 C53.67117635 -0.02824789 53.67117635 -0.02824789 54.72069056 -0.02918586 C56.11429219 -0.03046487 57.50789381 -0.03176173 58.90149541 -0.03307623 C71.94738978 -0.04446264 84.99317144 -0.03139976 98.03904732 -0.00987476 C109.20973262 0.00798648 120.38025155 0.00489644 131.55093384 -0.0135498 C144.54954819 -0.03500475 157.54806386 -0.04335578 170.54669344 -0.03110075 C171.93555425 -0.02982668 173.32441507 -0.02856919 174.71327591 -0.02732849 C175.39646524 -0.02671139 176.07965458 -0.02609429 176.78354662 -0.02545848 C181.57559482 -0.02201882 186.36757995 -0.02780408 191.15961838 -0.0372467 C197.62268242 -0.04970305 204.08550751 -0.04070631 210.54854393 -0.01766968 C212.9135467 -0.01240345 215.278576 -0.01386036 217.64356804 -0.02272034 C248.60259564 -0.12796303 248.60259564 -0.12796303 259.31167603 10.50793457 C264.93499067 16.79799569 267.18908054 22.72719489 268.49917603 31.07043457 C268.67835571 32.16484863 268.8575354 33.2592627 269.04214478 34.38684082 C269.31167603 37.50793457 269.31167603 37.50793457 268.83660889 39.8626709 C268.28749339 42.62979672 268.18468503 45.13423358 268.18228149 47.95324707 C268.17912933 49.01785156 268.17597717 50.08245605 268.17272949 51.17932129 C268.17475372 52.31901367 268.17677795 53.45870605 268.17886353 54.63293457 C268.1779068 55.81258789 268.17695007 56.99224121 268.17596436 58.2076416 C268.17528458 60.69901584 268.17712478 63.19039187 268.18130493 65.6817627 C268.18665598 69.49365215 268.18135306 73.30542378 268.17495728 77.11730957 C268.17561809 79.53918483 268.17689933 81.96106002 268.17886353 84.38293457 C268.17582718 86.09247314 268.17582718 86.09247314 268.17272949 87.83654785 C268.17588165 88.90115234 268.17903381 89.96575684 268.18228149 91.06262207 C268.18307709 91.99574219 268.18387268 92.9288623 268.18469238 93.89025879 C268.3122826 96.52043861 268.79250845 98.93182227 269.31167603 101.50793457 C269.00811496 103.1802801 268.67150904 104.84678765 268.31167603 106.50793457 C268.22017661 108.8815371 268.1816328 111.25757446 268.18667603 113.63293457 C268.18280884 115.46211426 268.18280884 115.46211426 268.17886353 117.32824707 C268.16594069 120.53133058 268.16594069 120.53133058 269.31167603 123.50793457 C268.99143098 125.84310023 268.65556987 128.17613428 268.31167603 130.50793457 C268.16806735 133.48359218 268.17121953 136.45501131 268.17886353 139.43371582 C268.1779068 140.26251755 268.17695007 141.09131927 268.17596436 141.94523621 C268.17528777 143.68399126 268.17710544 145.42274891 268.18130493 147.16149902 C268.18669488 149.8297688 268.18132486 152.49787286 268.17495728 155.1661377 C268.17561748 156.85949744 268.17689745 158.55285709 268.17886353 160.24621582 C268.17582718 161.44459831 268.17582718 161.44459831 268.17272949 162.66719055 C268.09435391 166.71844708 268.09435391 166.71844708 269.31167603 170.50793457 C269.19058228 172.32043457 269.19058228 172.32043457 268.87417603 174.50793457 C268.43771113 177.90690498 268.28947633 181.1453906 268.37417603 184.57043457 C268.41041098 190.3952031 268.11252385 195.38929007 264.18667603 200.00793457 C260.44428913 201.96048425 257.44690684 202.50206077 253.31167603 201.50793457 C250.62062404 199.33219041 248.85634674 197.59727601 247.31167603 194.50793457 C247.21175405 192.36770227 247.17820977 190.22428479 247.17364502 188.08172607 C247.17082374 187.41454803 247.16800246 186.74736999 247.16509569 186.05997443 C247.1567313 183.81377505 247.15540986 181.56762484 247.15396118 179.32141113 C247.14929425 177.71510682 247.14415089 176.10880382 247.13856506 174.50250244 C247.12727258 171.03758111 247.11884391 167.57266845 247.11244583 164.10773468 C247.10177809 158.62828861 247.08153605 153.14890456 247.05932617 147.66949463 C246.99736225 132.0860478 246.94339706 116.50260422 246.91030884 100.91906738 C246.89196347 92.31682826 246.86302748 83.7146926 246.82230413 75.11252952 C246.8012306 70.5594319 246.78577639 66.00646469 246.78349686 61.45331573 C246.78134933 57.16870268 246.76546932 52.88436102 246.73910713 48.59983063 C246.73191633 47.02850847 246.72981212 45.45715342 246.73320961 43.88581848 C246.73711197 41.7375846 246.72262635 39.59021422 246.70367432 37.44207764 C246.6987091 35.64018164 246.6987091 35.64018164 246.69364357 33.8018837 C246.26914393 30.14115322 245.13739722 27.68375633 243.31167603 24.50793457 C242.65167603 24.50793457 241.99167603 24.50793457 241.31167603 24.50793457 C241.31167603 23.84793457 241.31167603 23.18793457 241.31167603 22.50793457 C223.16167603 22.50793457 205.01167603 22.50793457 186.31167603 22.50793457 C186.31167603 22.83793457 186.31167603 23.16793457 186.31167603 23.50793457 C184.33167603 23.50793457 182.35167603 23.50793457 180.31167603 23.50793457 C180.31167603 23.17793457 180.31167603 22.84793457 180.31167603 22.50793457 C169.42167603 22.01293457 169.42167603 22.01293457 158.31167603 21.50793457 C157.98167603 22.16793457 157.65167603 22.82793457 157.31167603 23.50793457 C157.31167603 22.84793457 157.31167603 22.18793457 157.31167603 21.50793457 C111.77167603 22.00293457 111.77167603 22.00293457 65.31167603 22.50793457 C65.31167603 22.83793457 65.31167603 23.16793457 65.31167603 23.50793457 C63.66167603 23.50793457 62.01167603 23.50793457 60.31167603 23.50793457 C60.31167603 23.17793457 60.31167603 22.84793457 60.31167603 22.50793457 C52.72167603 22.50793457 45.13167603 22.50793457 37.31167603 22.50793457 C37.31167603 22.83793457 37.31167603 23.16793457 37.31167603 23.50793457 C35.33167603 23.50793457 33.35167603 23.50793457 31.31167603 23.50793457 C31.31167603 22.84793457 31.31167603 22.18793457 31.31167603 21.50793457 C25.56377285 21.57687437 19.81659275 21.66487235 14.06924438 21.77038574 C12.114899 21.80359811 10.16045855 21.83164152 8.20596313 21.85437012 C5.39313321 21.8879839 2.58117156 21.94030311 -0.23129272 21.99621582 C-1.10231125 22.00260574 -1.97332977 22.00899567 -2.8707428 22.01557922 C-7.5474058 22.12840511 -11.01381772 22.291253 -14.68832397 25.50793457 C-16.42070064 29.05895172 -16.9386121 31.90856657 -16.94000626 35.83847713 C-16.94522175 36.90020104 -16.95043725 37.96192495 -16.95581079 39.05582231 C-16.95134934 40.21612272 -16.9468879 41.37642313 -16.94229126 42.57188416 C-16.94541124 43.80923925 -16.94853122 45.04659434 -16.95174575 46.32144505 C-16.95834496 49.7533188 -16.95596687 53.1849738 -16.94977331 56.61683428 C-16.94525128 60.31901658 -16.95223138 64.02117966 -16.95773315 67.72335815 C-16.96663172 74.97515606 -16.96470301 82.2269126 -16.95890787 89.47871213 C-16.95439287 95.37242412 -16.95377778 101.2661245 -16.95595551 107.15983772 C-16.95626197 107.99836239 -16.95656844 108.83688706 -16.95688419 109.70082157 C-16.95752364 111.40423051 -16.95817206 113.10763946 -16.95882937 114.8110484 C-16.96453411 130.78860751 -16.9579727 146.76614367 -16.94722864 162.74369902 C-16.93829463 176.45394072 -16.93984365 190.16414856 -16.94906616 203.87438965 C-16.95976906 219.79285539 -16.96398306 235.71130102 -16.95784163 251.62976986 C-16.95720453 253.32725179 -16.95657579 255.02473372 -16.95595551 256.72221565 C-16.95564695 257.55742185 -16.9553384 258.39262805 -16.9550205 259.25314353 C-16.9532935 265.13943924 -16.95620882 271.02572218 -16.96091461 276.91201591 C-16.96652373 284.08600655 -16.96500641 291.25995341 -16.95435312 298.43393903 C-16.94909658 302.09439824 -16.94703935 305.75478448 -16.95365143 309.41524315 C-16.96070936 313.38253716 -16.95228215 317.34971164 -16.94229126 321.31700134 C-16.9467527 322.47507103 -16.95121415 323.63314072 -16.95581079 324.82630342 C-16.96665267 332.37521744 -16.96665267 332.37521744 -14.68832397 339.50793457 C-7.96066656 343.54452902 1.30018317 342.64873953 8.85903931 342.63391113 C10.00295135 342.63577927 11.1468634 342.6376474 12.32543945 342.63957214 C14.80098369 342.64356522 17.27653158 342.64564998 19.75207901 342.64603424 C25.69278547 342.64990089 31.63339826 342.67598097 37.57405257 342.6992507 C46.68403758 342.73430023 55.79390298 342.76090678 64.90396118 342.75842285 C71.72029571 342.75666432 78.53616426 342.78092545 85.35238266 342.82030487 C87.94952226 342.83078407 90.54671412 342.8322749 93.14386368 342.82465363 C96.77077988 342.81506706 100.39631087 342.83614742 104.02310181 342.86437988 C105.09751526 342.8541832 106.17192871 342.84398651 107.27890015 342.83348083 C114.56663386 342.93541729 114.56663386 342.93541729 118.45471191 345.92315674 C121.45933243 350.10540047 121.51893906 352.29958951 120.87417603 357.31262207 C120.31167603 359.50793457 120.31167603 359.50793457 118.18667603 362.00793457 C111.85028849 365.3138759 104.40739573 364.65635174 97.42617798 364.65319824 C96.3520314 364.65655685 95.27788483 364.65991547 94.17118835 364.66337585 C90.63076613 364.67285084 87.09039138 364.67482737 83.54995728 364.67590332 C81.07764161 364.67911876 78.60532613 364.68248305 76.13301086 364.68598938 C70.95240844 364.69197235 65.77182268 364.69383018 60.59121704 364.6932373 C53.97527611 364.69313584 47.35944286 364.70677591 40.74352741 364.72400951 C35.6363527 364.73516714 30.5292037 364.73715534 25.42201805 364.73662758 C22.98414934 364.73780249 20.54627986 364.74219661 18.10842323 364.74995995 C14.68692265 364.759834 11.26565156 364.75685242 7.84414673 364.75085449 C6.85100464 364.756474 5.85786255 364.76209351 4.83462524 364.7678833 C-7.66412852 364.71262634 -19.79852081 363.32929598 -29.04769897 354.17199707 C-35.43191636 346.59947645 -38.08830445 339.42191296 -38.36752319 329.65197754 C-38.40061018 328.82791349 -38.43369717 328.00384945 -38.46778679 327.15481377 C-38.78673259 318.50622303 -38.83383295 309.8566701 -38.82113647 301.20324707 C-38.82181293 299.53844183 -38.82278577 297.87363669 -38.82403564 296.20883179 C-38.82549086 292.76539138 -38.82342562 289.32197733 -38.81869507 285.87854004 C-38.81293552 281.47289555 -38.81632933 277.06731118 -38.82226753 272.66166878 C-38.82587896 269.24388168 -38.82473295 265.82610891 -38.82213974 262.40832138 C-38.82147533 260.78245918 -38.82228181 259.15659567 -38.82461929 257.53073502 C-38.82716228 255.27065811 -38.82328486 253.01067991 -38.81771851 250.75061035 C-38.81692291 249.46888947 -38.81612732 248.18716858 -38.81530762 246.86660767 C-38.70479492 243.94358536 -38.36979091 241.34418819 -37.68832397 238.50793457 C-38.34832397 238.17793457 -39.00832397 237.84793457 -39.68832397 237.50793457 C-39.52606323 236.74513184 -39.36380249 235.9823291 -39.19662476 235.19641113 C-38.51909721 230.27994327 -38.54560321 225.44930268 -38.55551147 220.49230957 C-38.55455475 219.44013245 -38.55359802 218.38795532 -38.5526123 217.30389404 C-38.55193375 215.08837829 -38.55376538 212.87286053 -38.55795288 210.65734863 C-38.56332713 207.25593653 -38.55798593 203.8546552 -38.55160522 200.45324707 C-38.55226564 198.29960094 -38.55354605 196.1459549 -38.55551147 193.99230957 C-38.55348724 192.97151306 -38.55146301 191.95071655 -38.54937744 190.89898682 C-38.5525296 189.95750793 -38.55568176 189.01602905 -38.55892944 188.04602051 C-38.55972504 187.21584412 -38.56052063 186.38566772 -38.56134033 185.53033447 C-38.56064027 183.43806431 -38.56064027 183.43806431 -39.68832397 181.50793457 C-39.02832397 181.50793457 -38.36832397 181.50793457 -37.68832397 181.50793457 C-37.76051147 180.76672363 -37.83269897 180.0255127 -37.90707397 179.26184082 C-38.72467375 169.98435443 -38.77522849 160.80878715 -38.68832397 151.50793457 C-38.66159479 148.59127172 -38.64172547 145.67467421 -38.62582397 142.75793457 C-38.60842163 140.84754395 -38.60842163 140.84754395 -38.59066772 138.89855957 C-38.67585985 135.94068901 -39.09136573 133.38825808 -39.68832397 130.50793457 C-39.39073978 128.16977307 -39.05593129 125.83611421 -38.68832397 123.50793457 C-38.55550775 120.05471283 -38.59278386 117.79455491 -39.68832397 114.50793457 C-39.68832397 111.31291175 -39.43505037 109.47136059 -38.68832397 106.50793457 C-38.60067821 105.08933062 -38.5604823 103.66727972 -38.55892944 102.24597168 C-38.55577728 101.4150853 -38.55262512 100.58419891 -38.54937744 99.72813416 C-38.55140167 98.83949173 -38.5534259 97.9508493 -38.55551147 97.03527832 C-38.55455475 96.11581924 -38.55359802 95.19636017 -38.5526123 94.2490387 C-38.55193267 92.30823701 -38.55377186 90.36743304 -38.55795288 88.42663574 C-38.56331029 85.45303255 -38.55799742 82.47957998 -38.55160522 79.50598145 C-38.55226592 77.6199134 -38.55354692 75.73384545 -38.55551147 73.84777832 C-38.55348724 72.95711166 -38.55146301 72.06644501 -38.54937744 71.14878845 C-38.5525296 70.32105423 -38.55568176 69.49332001 -38.55892944 68.64050293 C-38.55972504 67.9131041 -38.56052063 67.18570526 -38.56134033 66.43626404 C-38.62110382 64.28758337 -38.62110382 64.28758337 -39.68832397 61.50793457 C-39.38278609 59.83594908 -39.04676372 58.16938268 -38.68832397 56.50793457 C-38.63289174 54.89427733 -38.62529725 53.27839928 -38.66098022 51.66418457 C-38.67499878 50.75378418 -38.68901733 49.84338379 -38.70346069 48.90539551 C-38.71909058 47.9492334 -38.73472046 46.99307129 -38.75082397 46.00793457 C-38.88444285 21.26819826 -38.88444285 21.26819826 -30.68832397 11.50793457 C-29.69832397 11.17793457 -28.70832397 10.84793457 -27.68832397 10.50793457 C-27.68832397 9.84793457 -27.68832397 9.18793457 -27.68832397 8.50793457 C-19.66354874 2.00136005 -10.12191897 -0.09733065 0 0 Z " fill="#FED664" transform="translate(114.68832397460938,31.4920654296875)"/>
<path d="M0 0 C1.05896484 -0.00773438 2.11792969 -0.01546875 3.20898438 -0.0234375 C16.18112707 0.00893216 16.18112707 0.00893216 21.875 4.4375 C26.58940545 10.49887843 26.55410717 17.85154645 27.0625 25.25 C27.64257812 25.44335938 28.22265625 25.63671875 28.8203125 25.8359375 C35.44140625 28.04296875 35.44140625 28.04296875 42.0625 30.25 C42.536875 29.693125 43.01125 29.13625 43.5 28.5625 C48.18176585 24.33749179 53.2505212 20.99911501 59.6875 20.625 C65.53610806 21.01084567 68.92573688 23.95992652 72.8046875 28.1171875 C73.98422021 29.46447597 75.14823018 30.82550164 76.296875 32.19921875 C78.04477088 34.22940755 79.88486637 36.07871043 81.8125 37.9375 C85.66189034 41.74373574 88.931878 45.63325412 89.0625 51.25 C87.77603371 54.98075223 86.08868393 58.25250508 83.24609375 61.015625 C81.13507992 63.11296056 79.97990813 64.39484688 79.0625 67.25 C80.28754084 72.32740331 82.27233112 79.45983112 86.0625 83.25 C87.93567881 83.38295433 89.81137675 83.48103063 91.6875 83.5625 C97.28940983 83.98931218 100.59289641 84.84921466 105.0625 88.25 C106.88957702 91.17495316 107.36239063 93.57808312 107.546875 96.99609375 C107.62107666 98.36713257 107.62107666 98.36713257 107.69677734 99.76586914 C107.73496582 100.73000732 107.7731543 101.69414551 107.8125 102.6875 C107.85197754 103.67290771 107.89145508 104.65831543 107.93212891 105.67358398 C108.5303542 125.16389213 108.5303542 125.16389213 103.6875 130.5 C101.31669011 132.08053993 99.81047622 132.75928996 97.0625 133.25 C96.7325 133.91 96.4025 134.57 96.0625 135.25 C92.1025 134.92 88.1425 134.59 84.0625 134.25 C83.7325 135.9 83.4025 137.55 83.0625 139.25 C82.01899963 141.56758696 80.87626456 143.8100597 79.70703125 146.06640625 C78.83864721 148.2393917 78.83864721 148.2393917 79.7578125 150.3203125 C81.07622873 152.27030536 82.48650506 153.87569562 84.125 155.5625 C87.15158667 159.04159105 88.14692376 161.52226918 88.0625 166.25 C85.63145731 174.83968418 78.67052389 182.41939068 72.0625 188.25 C71.4025 188.25 70.7425 188.25 70.0625 188.25 C70.0625 188.91 70.0625 189.57 70.0625 190.25 C67.10259756 193.3631399 63.88762487 195.93472486 59.59765625 196.67578125 C56.4279317 196.6911932 53.92146676 196.67948338 51.0625 195.25 C51.0625 194.59 51.0625 193.93 51.0625 193.25 C50.299375 192.981875 49.53625 192.71375 48.75 192.4375 C46.0625 191.25 46.0625 191.25 44.75 189.5625 C42.93319892 187.86039441 42.93319892 187.86039441 39.375 188.375 C37.93216815 188.63903023 36.49442217 188.93207767 35.0625 189.25 C34.32644531 189.38019531 33.59039062 189.51039063 32.83203125 189.64453125 C30.50758952 190.23305111 28.95919771 190.77276428 27.0625 192.25 C25.73309516 195.50229398 25.4235408 198.77369284 25.0625 202.25 C24.39949647 206.70600049 23.62999463 210.15849229 20.125 213.1875 C16.24253448 215.80222168 13.52856362 216.38143095 8.95703125 216.56640625 C7.48266602 216.62924805 7.48266602 216.62924805 5.97851562 216.69335938 C4.95435547 216.73267578 3.93019531 216.77199219 2.875 216.8125 C1.83923828 216.85568359 0.80347656 216.89886719 -0.26367188 216.94335938 C-2.8214819 217.04944366 -5.37938845 217.15150146 -7.9375 217.25 C-7.9375 217.58 -7.9375 217.91 -7.9375 218.25 C-9.5875 218.25 -11.2375 218.25 -12.9375 218.25 C-13.2675 217.59 -13.5975 216.93 -13.9375 216.25 C-14.88625 215.816875 -15.835 215.38375 -16.8125 214.9375 C-20.39837643 213.00112673 -21.17634091 211.85761649 -22.9375 208.25 C-23.59765625 205.0234375 -23.59765625 205.0234375 -24 201.625 C-24.58141414 196.63207678 -24.58141414 196.63207678 -26.9375 192.25 C-30.08121872 190.66722159 -30.08121872 190.66722159 -33.75 189.375 C-35.58498047 188.66730469 -35.58498047 188.66730469 -37.45703125 187.9453125 C-40.91788935 186.88980231 -40.91788935 186.88980231 -43.76171875 188.6171875 C-44.47972656 189.15601563 -45.19773437 189.69484375 -45.9375 190.25 C-46.5975 190.25 -47.2575 190.25 -47.9375 190.25 C-47.9375 190.91 -47.9375 191.57 -47.9375 192.25 C-51.6740846 194.76647534 -53.84566887 196.19044557 -58.375 196.4375 C-65.30591103 194.12719632 -69.87456012 188.31293988 -74.9375 183.25 C-76.10197263 182.30977616 -77.26879805 181.37246156 -78.4375 180.4375 C-82.18367897 177.23353114 -85.03262366 173.83248553 -86.9375 169.25 C-87.33813985 163.94152198 -85.19210899 160.98846062 -82.3125 156.75 C-79.45395864 152.51532866 -79.45395864 152.51532866 -78.8125 147.5 C-80.02835669 143.98752512 -81.4342035 140.64875731 -82.9375 137.25 C-82.9375 136.26 -82.9375 135.27 -82.9375 134.25 C-83.370625 134.745 -83.80375 135.24 -84.25 135.75 C-85.9375 137.25 -85.9375 137.25 -88.9375 137.25 C-88.9375 136.59 -88.9375 135.93 -88.9375 135.25 C-89.60136719 135.09144531 -90.26523438 134.93289063 -90.94921875 134.76953125 C-96.55352281 133.28868594 -100.29618969 132.02921978 -103.9375 127.25 C-106.9662372 121.07665397 -106.30589806 114.54318112 -106.3125 107.8125 C-106.34923828 105.84700195 -106.34923828 105.84700195 -106.38671875 103.84179688 C-106.39058594 102.57529297 -106.39445313 101.30878906 -106.3984375 100.00390625 C-106.40665527 98.85220947 -106.41487305 97.7005127 -106.42333984 96.51391602 C-105.70855722 91.71194173 -103.51669799 88.5133584 -99.75 85.5 C-94.61922399 83.21965511 -89.5381821 82.25 -83.9375 82.25 C-83.06757846 80.19409546 -82.21712311 78.12994664 -81.375 76.0625 C-80.89933594 74.91394531 -80.42367188 73.76539063 -79.93359375 72.58203125 C-78.57957686 68.05271201 -79.48465487 65.60853539 -80.9375 61.25 C-81.5975 61.25 -82.2575 61.25 -82.9375 61.25 C-85.68115994 56.82246292 -87.91946162 52.74856148 -86.8515625 47.3671875 C-84.74215828 42.48130252 -80.65457355 38.94595381 -76.9375 35.25 C-75.89416968 34.17348488 -74.85256293 33.0952972 -73.8125 32.015625 C-72.75130542 30.92581067 -71.6888212 29.8372505 -70.625 28.75 C-70.12186279 28.2334082 -69.61872559 27.71681641 -69.1003418 27.18457031 C-65.24042299 23.3188568 -62.6720891 21.54906709 -57.3125 20.625 C-52.03281148 20.67434288 -48.99280182 24.13796194 -45.33203125 27.59765625 C-43.08740903 29.4995369 -43.08740903 29.4995369 -40.5 29.15625 C-37.62506578 28.13950497 -34.88540674 26.98455859 -32.125 25.6875 C-31.14917969 25.23246094 -30.17335938 24.77742188 -29.16796875 24.30859375 C-28.43191406 23.95925781 -27.69585937 23.60992187 -26.9375 23.25 C-27.4325 22.26 -27.4325 22.26 -27.9375 21.25 C-27.2775 21.25 -26.6175 21.25 -25.9375 21.25 C-25.69966797 19.94675781 -25.69966797 19.94675781 -25.45703125 18.6171875 C-23.03058553 6.63242243 -23.03058553 6.63242243 -17.9375 2.25 C-12.17643336 -0.43540042 -6.22013476 -0.04526478 0 0 Z M-7.9375 19.25 C-8.03546875 20.20261719 -8.1334375 21.15523438 -8.234375 22.13671875 C-8.38390625 23.39097656 -8.5334375 24.64523437 -8.6875 25.9375 C-8.82671875 27.17886719 -8.9659375 28.42023438 -9.109375 29.69921875 C-10.05730632 33.76369786 -10.86303959 35.43740215 -13.9375 38.25 C-16.80614562 39.71100619 -19.7710275 40.76837576 -22.8125 41.8125 C-28.42535896 43.78569919 -32.97918961 45.88621234 -37.9375 49.25 C-41.74518995 49.57268559 -44.31819302 49.45643566 -47.9375 48.25 C-47.9375 47.59 -47.9375 46.93 -47.9375 46.25 C-49.34830458 44.85002714 -49.34830458 44.85002714 -51.1875 43.5625 C-51.79078125 43.10488281 -52.3940625 42.64726562 -53.015625 42.17578125 C-54.87844181 41.08909379 -54.87844181 41.08909379 -56.90625 41.3515625 C-59.59429992 42.54050766 -61.16586291 44.18978106 -63.1875 46.3125 C-63.89390625 47.04597656 -64.6003125 47.77945313 -65.328125 48.53515625 C-66.12476563 49.38400391 -66.12476563 49.38400391 -66.9375 50.25 C-65.13611801 54.14274254 -62.68261583 57.34594961 -60.08203125 60.73828125 C-57.99130137 65.32647002 -59.60155501 69.29384889 -61.20703125 73.86328125 C-61.71356068 75.09957604 -62.22811169 76.33260998 -62.75 77.5625 C-63.01699707 78.21114014 -63.28399414 78.85978027 -63.55908203 79.52807617 C-64.34559031 81.43806637 -65.14116124 83.34409251 -65.9375 85.25 C-66.73355678 87.18570038 -67.52595349 89.12291578 -68.3125 91.0625 C-68.62960937 91.83207031 -68.94671875 92.60164063 -69.2734375 93.39453125 C-70.04982138 95.23538557 -70.04982138 95.23538557 -69.9375 97.25 C-75.03441224 98.64006698 -79.88673535 99.56134225 -85.15234375 100.00390625 C-86.95862168 100.06981611 -86.95862168 100.06981611 -87.9375 101.25 C-88.01069621 103.94654854 -88.02992537 106.61691458 -88 109.3125 C-87.99548828 110.07111328 -87.99097656 110.82972656 -87.98632812 111.61132812 C-87.9745068 113.49091871 -87.95657078 115.37046899 -87.9375 117.25 C-86.50857422 117.27126953 -86.50857422 117.27126953 -85.05078125 117.29296875 C-83.16939453 117.36451172 -83.16939453 117.36451172 -81.25 117.4375 C-80.00863281 117.47230469 -78.76726562 117.50710938 -77.48828125 117.54296875 C-73.03609779 118.42948713 -71.68546382 119.67572538 -68.9375 123.25 C-67.76604936 125.71142452 -66.78158048 128.01390201 -65.875 130.5625 C-64.30241475 134.76776599 -62.72592172 138.86788655 -60.5625 142.8125 C-58.81335388 146.51261679 -58.18607885 148.24242056 -58.9375 152.25 C-60.83577526 155.97409726 -63.14004633 159.29305559 -65.8125 162.5 C-67.14808017 164.17078569 -67.14808017 164.17078569 -66.71875 166.12890625 C-65.76872622 168.70822081 -64.52699296 170.02688554 -62.5625 171.9375 C-61.65371094 172.84048828 -61.65371094 172.84048828 -60.7265625 173.76171875 C-58.90028 175.46440592 -58.90028 175.46440592 -55.9375 176.25 C-52.93709633 174.43112175 -50.12310964 172.48073982 -47.29492188 170.41015625 C-44.25131042 168.30682089 -42.66145812 167.23982945 -38.87890625 167.29296875 C-35.67012175 168.33699558 -32.7226236 169.58605441 -29.6875 171.0625 C-24.84874425 173.38222386 -20.02647758 175.42826363 -14.9609375 177.1953125 C-12.34176961 178.56051584 -11.39203392 179.6651098 -9.9375 182.25 C-9.26306576 184.85892256 -8.70724054 187.35650003 -8.25 190 C-8.12044922 190.69738281 -7.99089844 191.39476562 -7.85742188 192.11328125 C-7.54110067 193.82375889 -7.23797253 195.53666725 -6.9375 197.25 C-5.2875 196.92 -3.6375 196.59 -1.9375 196.25 C-1.9375 196.91 -1.9375 197.57 -1.9375 198.25 C1.3625 197.92 4.6625 197.59 8.0625 197.25 C8.19205078 195.94675781 8.19205078 195.94675781 8.32421875 194.6171875 C8.46472656 193.46476563 8.60523438 192.31234375 8.75 191.125 C8.87761719 189.98804688 9.00523437 188.85109375 9.13671875 187.6796875 C10.23189243 183.6224618 11.85735813 180.9118036 15.0625 178.25 C17.57635056 176.88420446 20.15452887 175.99282965 22.875 175.125 C24.3072188 174.63377777 25.73823046 174.13902084 27.16796875 173.640625 C27.84520996 173.40666016 28.52245117 173.17269531 29.22021484 172.93164062 C31.48513224 172.09362719 33.5743521 171.04030875 35.6875 169.875 C39.36801176 168.10290174 41.04764768 167.79001692 45.0625 168.25 C48.05920792 170.1868459 50.65218985 172.3979089 53.37890625 174.6953125 C55.93951593 176.57827187 55.93951593 176.57827187 58.66015625 175.703125 C61.04467468 174.26078214 62.95151856 172.82688734 64.9375 170.875 C65.55367187 170.28976562 66.16984375 169.70453125 66.8046875 169.1015625 C68.27227527 167.34568898 68.27227527 167.34568898 67.9453125 165.24609375 C66.9409063 162.97506911 65.75186767 161.50275805 64.0625 159.6875 C61.1407931 156.53402308 60.16212397 154.42129321 59.7890625 150.03515625 C60.11227929 145.56091236 61.40970085 142.61837256 63.4375 138.6875 C66.44674768 132.67512099 68.88404577 126.92790733 70.0625 120.25 C75.62319582 117.99566386 81.1410651 117.65038172 87.0625 117.25 C87.0625 116.59 87.0625 115.93 87.0625 115.25 C87.7225 115.91 88.3825 116.57 89.0625 117.25 C89.0625 116.25097656 89.0625 115.25195312 89.0625 114.22265625 C89.0625 109.8984375 89.0625 105.57421875 89.0625 101.25 C87.94230469 101.07984375 86.82210937 100.9096875 85.66796875 100.734375 C84.19516519 100.49047123 82.72251658 100.24563045 81.25 100 C80.51201172 99.89042969 79.77402344 99.78085937 79.01367188 99.66796875 C73.4872737 98.71772834 73.4872737 98.71772834 71.43286133 96.45556641 C70.08901583 94.29267664 69.18505814 92.3126299 68.34375 89.9140625 C68.05113281 89.09679687 67.75851562 88.27953125 67.45703125 87.4375 C67.01423828 86.1690625 67.01423828 86.1690625 66.5625 84.875 C64.24161426 78.25110868 64.24161426 78.25110868 61.328125 71.875 C59.15590174 67.36964806 60.76376095 62.88835374 62.0625 58.25 C62.7225 58.25 63.3825 58.25 64.0625 58.25 C65.42527086 56.46034453 65.42527086 56.46034453 66.6875 54.25 C67.35652344 53.13625 67.35652344 53.13625 68.0390625 52 C68.37679687 51.4225 68.71453125 50.845 69.0625 50.25 C67.98742371 48.95145279 66.90206264 47.66141639 65.8125 46.375 C65.20921875 45.65570313 64.6059375 44.93640625 63.984375 44.1953125 C62.09162366 42.27947882 60.52592273 41.28550955 58.0625 40.25 C56.75925781 41.22453125 56.75925781 41.22453125 55.4296875 42.21875 C54.26616388 43.06324295 53.10207094 43.90695191 51.9375 44.75 C51.08285156 45.39388672 51.08285156 45.39388672 50.2109375 46.05078125 C46.34798138 48.81630666 43.79788327 49.90178028 39.0625 49.25 C37.25292889 48.37872502 35.44794019 47.49471308 33.68359375 46.53515625 C30.12845053 44.79202344 26.46110889 43.43541972 22.75 42.0625 C22.04375488 41.80065918 21.33750977 41.53881836 20.60986328 41.26904297 C17.77218475 40.2242273 14.93136457 39.20628819 12.0625 38.25 C10.13143914 32.34953626 9.54290341 26.41939111 9.0625 20.25 C5.50204823 19.06318274 2.62441663 19.15310168 -1.125 19.1875 C-2.39730469 19.19652344 -3.66960937 19.20554687 -4.98046875 19.21484375 C-5.95628906 19.22644531 -6.93210937 19.23804688 -7.9375 19.25 Z " fill="#FED664" transform="translate(345.9375,237.75)"/>
<path d="M0 0 C10.49758617 8.68274924 17.31595061 21.6373406 18.6953125 35.21875 C19.02288798 49.19530385 13.99812318 62.18784924 4.453125 72.37890625 C-5.99083532 82.17792081 -18.41274784 87.11242655 -32.6484375 87.34765625 C-46.02643359 86.90082035 -58.36204876 80.98456552 -67.5078125 71.21875 C-78.10580505 58.53590645 -80.80321367 44.33527742 -79.5078125 28.21875 C-76.97407633 15.55006915 -68.68397914 4.82022388 -58.5078125 -2.78125 C-39.8853286 -14.87377201 -17.67920105 -12.55718953 0 0 Z M-55.89453125 19.19140625 C-61.9913804 26.85306415 -62.55332083 35.75472143 -61.5078125 45.21875 C-59.56502344 53.92487348 -54.39087669 60.86946879 -47.0703125 65.890625 C-38.91665673 70.21012121 -29.75772641 70.76982352 -20.83203125 68.5546875 C-13.21357141 65.5283563 -6.22506085 59.51557084 -2.5078125 52.21875 C1.12076605 42.44053231 1.0541642 33.5818983 -3.1328125 23.96875 C-8.14746425 15.08670999 -15.51767354 10.21593256 -25.1328125 7.46875 C-37.51040449 6.16584558 -47.34588389 10.2257517 -55.89453125 19.19140625 Z " fill="#FED664" transform="translate(377.5078125,307.78125)"/>
<path d="M0 0 C1.9552277 4.48073015 1.89057791 7.77862115 0.5 12.4375 C-1.86313604 15.69699799 -3.64484364 16.67989261 -7.5 17.4375 C-10.4782299 17.54264504 -13.43338799 17.59470363 -16.41186523 17.59863281 C-17.76131729 17.60608017 -17.76131729 17.60608017 -19.13803101 17.61367798 C-22.11155972 17.62827327 -25.08503512 17.63509637 -28.05859375 17.640625 C-30.12598166 17.64637756 -32.19336956 17.65213528 -34.26075745 17.65789795 C-38.5941696 17.6683997 -42.92756324 17.67424813 -47.26098633 17.67773438 C-52.81393429 17.68322469 -58.36663774 17.70726776 -63.91950893 17.73570633 C-68.18916033 17.75432546 -72.45875267 17.75953787 -76.72844124 17.76107025 C-78.77577111 17.76409772 -80.82309991 17.77212942 -82.87038994 17.78525543 C-85.73336329 17.8023045 -88.59573675 17.80043869 -91.45874023 17.79394531 C-92.72677742 17.80776749 -92.72677742 17.80776749 -94.02043152 17.8218689 C-98.68311673 17.78873093 -101.70128548 17.43898 -105.5 14.4375 C-107.85943675 11.50854403 -108.46835188 9.69068497 -108.9375 5.9375 C-108.42886205 1.8683964 -107.36654931 0.30404931 -104.5 -2.5625 C-101.18986865 -4.21756568 -97.48867813 -3.76150378 -93.84692383 -3.79956055 C-92.95079376 -3.81267273 -92.0546637 -3.82578491 -91.13137817 -3.83929443 C-88.15663991 -3.88121095 -85.18187478 -3.91565542 -82.20703125 -3.94921875 C-80.14157452 -3.97487134 -78.07611941 -4.00065536 -76.01066589 -4.02656555 C-71.67372914 -4.07960211 -67.33676697 -4.12851129 -62.99975586 -4.17504883 C-57.44912712 -4.23529356 -51.89878364 -4.30953814 -46.34837818 -4.38742352 C-42.07872006 -4.44511913 -37.80899276 -4.49337266 -33.53919029 -4.539011 C-31.49348537 -4.56237925 -29.44781606 -4.58912184 -27.4022007 -4.61932945 C-24.53482684 -4.66063875 -21.66760594 -4.68873023 -18.80004883 -4.71362305 C-17.95873917 -4.72859329 -17.1174295 -4.74356354 -16.25062561 -4.75898743 C-10.06017036 -4.79208428 -4.53666226 -4.65007882 0 0 Z " fill="#FED665" transform="translate(331.5,114.5625)"/>
<path d="M0 0 C1.22589844 0.01353516 1.22589844 0.01353516 2.4765625 0.02734375 C3.10304688 0.03894531 3.72953125 0.05054687 4.375 0.0625 C4.375 0.7225 4.375 1.3825 4.375 2.0625 C5.014375 2.35125 5.65375 2.64 6.3125 2.9375 C8.375 4.0625 8.375 4.0625 9.375 6.0625 C9.83645915 9.35863675 10.03768064 11.91842233 8.32519531 14.87492371 C4.14415264 20.3191824 -0.45879552 25.20273793 -5.3125 30.05078125 C-6.13322998 30.87579636 -6.95395996 31.70081146 -7.79956055 32.55082703 C-9.52496642 34.2819442 -11.25295592 36.01048977 -12.98339844 37.73657227 C-15.62583646 40.37583546 -18.25462691 43.02819345 -20.8828125 45.68164062 C-22.56689758 47.36799755 -24.25176674 49.05357189 -25.9375 50.73828125 C-26.71891357 51.52890457 -27.50032715 52.31952789 -28.30541992 53.1341095 C-37.18085902 61.93493922 -37.18085902 61.93493922 -44 62.1875 C-49.13025896 60.59535067 -51.85009758 57.80139381 -55.625 54.0625 C-56.80813527 52.92790712 -57.99177098 51.79383598 -59.17578125 50.66015625 C-60.45204488 49.42083838 -61.72677306 48.17993744 -63 46.9375 C-63.6194751 46.33977783 -64.2389502 45.74205566 -64.87719727 45.1262207 C-68.02128399 42.00380239 -70.48732526 39.47576174 -71.625 35.0625 C-71.53872577 30.9213372 -70.92843408 29.41261624 -68.1875 26.25 C-65.10259636 23.61654568 -62.90054633 22.42797889 -58.7578125 22.4453125 C-54.70888219 23.61698098 -52.00599843 26.81781783 -49.0546875 29.703125 C-46.6892552 32.00010427 -44.22843898 34.04275019 -41.625 36.0625 C-39.14852235 33.6548134 -36.80537413 31.29524081 -34.6875 28.5625 C-32.72019044 26.17788235 -30.62368541 24.38156989 -28.2109375 22.46484375 C-25.82473228 20.35487411 -23.89735053 17.90855484 -21.921875 15.41796875 C-21.49390625 14.97066406 -21.0659375 14.52335937 -20.625 14.0625 C-19.965 14.0625 -19.305 14.0625 -18.625 14.0625 C-18.398125 13.49917969 -18.17125 12.93585938 -17.9375 12.35546875 C-16.25827459 9.42182197 -14.15945318 7.60369793 -11.625 5.375 C-10.738125 4.58738281 -9.85125 3.79976563 -8.9375 2.98828125 C-5.70543223 0.2967113 -4.12030013 -0.05886143 0 0 Z " fill="#FED664" transform="translate(195.625,94.9375)"/>
<path d="M0 0 C4.20489124 2.4917874 5.69341502 4.12404292 7.3125 8.75 C7.51321826 13.42760822 5.40738655 16.04799213 2.44921875 19.4921875 C-1.087978 23.11400619 -4.77452559 26.56029485 -8.55517578 29.92675781 C-11.08561227 32.18118749 -13.10848579 34.16272868 -15 37 C-15.66 37 -16.32 37 -17 37 C-17.226875 37.556875 -17.45375 38.11375 -17.6875 38.6875 C-19.38143236 41.67204749 -21.51614698 43.62654045 -24 46 C-24.598125 46.61875 -25.19625 47.2375 -25.8125 47.875 C-26.43125 48.514375 -27.05 49.15375 -27.6875 49.8125 C-28.26886719 50.41707031 -28.85023438 51.02164063 -29.44921875 51.64453125 C-31 53 -31 53 -33 53 C-33.33 53.99 -33.66 54.98 -34 56 C-34.66 56 -35.32 56 -36 56 C-36 56.66 -36 57.32 -36 58 C-41.96002855 61.93361884 -41.96002855 61.93361884 -45.9375 62.1875 C-50.57196999 60.39046061 -53.46264803 57.4373954 -57 54 C-58.17287643 52.91243609 -59.34608008 51.82522501 -60.51953125 50.73828125 C-61.78549702 49.53558108 -63.04980792 48.3311367 -64.3125 47.125 C-64.92351562 46.56079346 -65.53453125 45.99658691 -66.1640625 45.4152832 C-70.41646444 41.26365188 -73.16048938 36.9930341 -74 31 C-72.25942436 26.72767797 -70.60981189 25.35007719 -66.625 23.0625 C-62.78715729 21.93761507 -60.7995478 21.87740633 -57 23 C-56.01 23.66 -55.02 24.32 -54 25 C-54 25.66 -54 26.32 -54 27 C-53.34 27 -52.68 27 -52 27 C-50.33333333 28.66666667 -48.66666667 30.33333333 -47 32 C-45.36622358 33.05287814 -43.70818403 34.0727001 -42 35 C-41.65388672 34.16275391 -41.65388672 34.16275391 -41.30078125 33.30859375 C-39.65466491 30.38710799 -37.58926868 28.39945334 -35.1875 26.0625 C-34.33542969 25.22847656 -33.48335937 24.39445312 -32.60546875 23.53515625 C-31.74566406 22.69855469 -30.88585937 21.86195313 -30 21 C-29.12988281 20.09121094 -28.25976562 19.18242187 -27.36328125 18.24609375 C-25 16 -25 16 -22 15 C-21.31703906 13.67493903 -20.65347074 12.33985007 -20 11 C-18.59451193 9.4100077 -17.13057216 7.87056835 -15.625 6.375 C-14.85414063 5.59898437 -14.08328125 4.82296875 -13.2890625 4.0234375 C-8.99499729 0.22765972 -5.76769159 -0.69610071 0 0 Z " fill="#FED664" transform="translate(198,183)"/>
<path d="M0 0 C0.82131409 -0.00817749 1.64262817 -0.01635498 2.48883057 -0.02478027 C5.21349352 -0.04964274 7.93810435 -0.06615216 10.6628418 -0.08056641 C11.59253469 -0.08589008 12.52222759 -0.09121376 13.480093 -0.09669876 C18.40062003 -0.12343366 23.32112164 -0.14280773 28.24169922 -0.15722656 C33.3263159 -0.17387813 38.41028487 -0.21865907 43.49465656 -0.26959801 C47.40230563 -0.30323909 51.30980034 -0.31480052 55.2175808 -0.32045364 C57.09190002 -0.32717449 58.96620879 -0.34241819 60.84038734 -0.36634445 C63.46444244 -0.39793318 66.08674251 -0.39804268 68.7109375 -0.390625 C69.87147896 -0.415233 69.87147896 -0.415233 71.0554657 -0.44033813 C75.09124032 -0.39365826 76.83743623 0.01997849 80.00822449 2.6043396 C82.52751524 5.79894512 83.26782815 7.56854064 83.48706055 11.56787109 C83.54764648 12.33873047 83.60823242 13.10958984 83.6706543 13.90380859 C83.04956055 16.19287109 83.04956055 16.19287109 80.5144043 18.46630859 C76.56550573 20.43407992 73.47194862 20.65940615 69.17456055 20.44287109 C68.48620117 20.42482422 67.7978418 20.40677734 67.08862305 20.38818359 C65.40832245 20.34150858 63.72874892 20.26978048 62.04956055 20.19287109 C62.04956055 20.85287109 62.04956055 21.51287109 62.04956055 22.19287109 C61.53393555 22.04849609 61.01831055 21.90412109 60.48706055 21.75537109 C57.36446483 21.03477208 54.22405363 20.6202067 51.04956055 20.19287109 C50.71956055 20.85287109 50.38956055 21.51287109 50.04956055 22.19287109 C50.04956055 21.53287109 50.04956055 20.87287109 50.04956055 20.19287109 C49.05956055 20.52287109 48.06956055 20.85287109 47.04956055 21.19287109 C44.70895405 20.91517202 42.37331746 20.58747133 40.04956055 20.19287109 C39.71956055 20.85287109 39.38956055 21.51287109 39.04956055 22.19287109 C38.38956055 21.86287109 37.72956055 21.53287109 37.04956055 21.19287109 C35.67609705 21.04282137 34.29670795 20.94449104 32.91674805 20.87646484 C31.70825195 20.81362305 31.70825195 20.81362305 30.4753418 20.74951172 C29.63358398 20.71019531 28.79182617 20.67087891 27.92456055 20.63037109 C27.07506836 20.5871875 26.22557617 20.54400391 25.3503418 20.49951172 C23.25027832 20.39332873 21.14994107 20.29258613 19.04956055 20.19287109 C18.71956055 20.85287109 18.38956055 21.51287109 18.04956055 22.19287109 C18.04956055 21.53287109 18.04956055 20.87287109 18.04956055 20.19287109 C16.06956055 20.85287109 14.08956055 21.51287109 12.04956055 22.19287109 C12.04956055 21.53287109 12.04956055 20.87287109 12.04956055 20.19287109 C10.73600586 20.22767578 9.42245117 20.26248047 8.0690918 20.29833984 C6.33342754 20.32648575 4.5977494 20.35378505 2.86206055 20.38037109 C1.99774414 20.40550781 1.13342773 20.43064453 0.24291992 20.45654297 C-4.6409849 20.51267981 -8.03007149 20.45857567 -11.95043945 17.19287109 C-14.40709143 13.50789314 -14.65130436 10.47315323 -13.95043945 6.19287109 C-10.04061327 0.06747674 -6.82930132 0.03730919 0 0 Z " fill="#FED664" transform="translate(236.950439453125,199.80712890625)"/>
<path d="M0 0 C2.97 0 5.94 0 9 0 C9 0.33 9 0.66 9 1 C6.03 1 3.06 1 0 1 C0 0.67 0 0.34 0 0 Z " fill="#F4CC5D" transform="translate(345,455)"/>
<path d="M0 0 C0.33 0 0.66 0 1 0 C1 2.31 1 4.62 1 7 C0.67 7 0.34 7 0 7 C0 4.69 0 2.38 0 0 Z " fill="#FED563" transform="translate(360,121)"/>
<path d="M0 0 C2.31 0 4.62 0 7 0 C7 0.33 7 0.66 7 1 C4.69 1 2.38 1 0 1 C0 0.67 0 0.34 0 0 Z " fill="#FED664" transform="translate(335,54)"/>
<path d="M0 0 C1.65 0 3.3 0 5 0 C3.02 0.99 3.02 0.99 1 2 C0.67 1.34 0.34 0.68 0 0 Z " fill="#FED866" transform="translate(279,221)"/>
<path d="M0 0 C1.98 0 3.96 0 6 0 C6 0.33 6 0.66 6 1 C4.02 1 2.04 1 0 1 C0 0.67 0 0.34 0 0 Z " fill="#FED664" transform="translate(281,54)"/>
<path d="M0 0 C1.65 0 3.3 0 5 0 C5 0.33 5 0.66 5 1 C3.35 1 1.7 1 0 1 C0 0.67 0 0.34 0 0 Z " fill="#F6CD5F" transform="translate(339,455)"/>
<path d="M0 0 C1.65 0 3.3 0 5 0 C5 0.33 5 0.66 5 1 C3.35 1 1.7 1 0 1 C0 0.67 0 0.34 0 0 Z " fill="#FED864" transform="translate(304,221)"/>
<path d="M0 0 C1.65 0 3.3 0 5 0 C5 0.33 5 0.66 5 1 C3.35 1 1.7 1 0 1 C0 0.67 0 0.34 0 0 Z " fill="#FED766" transform="translate(184,54)"/>
<path d="M0 0 C0.33 0.99 0.66 1.98 1 3 C0.34 2.67 -0.32 2.34 -1 2 C-0.67 1.34 -0.34 0.68 0 0 Z " fill="#FED764" transform="translate(431,373)"/>
<path d="M0 0 C1 4 1 4 1 4 Z " fill="#FDD764" transform="translate(360,140)"/>
<path d="M0 0 C4 1 4 1 4 1 Z " fill="#FFD663" transform="translate(203,54)"/>
<path d="M0 0 C4 1 4 1 4 1 Z " fill="#FED763" transform="translate(194,54)"/>
<path d="M0 0 C4 1 4 1 4 1 Z " fill="#FDD564" transform="translate(120,54)"/>
<path d="M0 0 C3 1 3 1 3 1 Z " fill="#F5CC5D" transform="translate(355,455)"/>
<path d="" fill="#FCD365" transform="translate(0,0)"/>
<path d="M0 0 C3 1 3 1 3 1 Z " fill="#FFD766" transform="translate(354,318)"/>
<path d="M0 0 C0.33 0.66 0.66 1.32 1 2 C0.34 1.67 -0.32 1.34 -1 1 C-0.67 0.67 -0.34 0.34 0 0 Z " fill="#FFD765" transform="translate(363,297)"/>
<path d="" fill="#FFDA66" transform="translate(0,0)"/>
<path d="M0 0 C3 1 3 1 3 1 Z " fill="#FBD463" transform="translate(404,257)"/>
<path d="" fill="#FED765" transform="translate(0,0)"/>
<path d="M0 0 C3 1 3 1 3 1 Z " fill="#FFD866" transform="translate(296,133)"/>
<path d="M0 0 C3 1 3 1 3 1 Z " fill="#FED664" transform="translate(348,54)"/>
<path d="M0 0 C3 1 3 1 3 1 Z " fill="#FDD765" transform="translate(312,54)"/>
<path d="M0 0 C3 1 3 1 3 1 Z " fill="#FFD866" transform="translate(232,54)"/>
<path d="M0 0 C3 1 3 1 3 1 Z " fill="#FED865" transform="translate(208,54)"/>
<path d="M0 0 C3 1 3 1 3 1 Z " fill="#FED662" transform="translate(131,54)"/>
<path d="M0 0 C2 1 2 1 2 1 Z " fill="#F3CD5F" transform="translate(330,454)"/>
<path d="M0 0 C2 1 2 1 2 1 Z " fill="#F4CB5D" transform="translate(406,435)"/>
<path d="M0 0 C2 1 2 1 2 1 Z " fill="#FDD665" transform="translate(360,413)"/>
<path d="M0 0 C2 1 2 1 2 1 Z " fill="#FED765" transform="translate(309,403)"/>
<path d="M0 0 C2 1 2 1 2 1 Z " fill="#FED464" transform="translate(367,391)"/>
<path d="M0 0 C2 1 2 1 2 1 Z " fill="#F1C75C" transform="translate(83,385)"/>
<path d="M0 0 C2 1 2 1 2 1 Z " fill="#FED765" transform="translate(433,373)"/>
<path d="M0 0 C2 1 2 1 2 1 Z " fill="#FED765" transform="translate(428,353)"/>
<path d="M0 0 C2 1 2 1 2 1 Z " fill="#FED764" transform="translate(266,353)"/>
<path d="M0 0 C2 1 2 1 2 1 Z " fill="#FFD565" transform="translate(422,339)"/>
<path d="" fill="#FED765" transform="translate(0,0)"/>
<path d="M0 0 C2 1 2 1 2 1 Z " fill="#FCD563" transform="translate(434,320)"/>
<path d="" fill="#FFD766" transform="translate(0,0)"/>
<path d="M0 0 C2 1 2 1 2 1 Z " fill="#FED666" transform="translate(368,285)"/>
<path d="M0 0 C2 1 2 1 2 1 Z " fill="#FFD865" transform="translate(331,278)"/>
<path d="" fill="#FFD764" transform="translate(0,0)"/>
<path d="M0 0 C2 1 2 1 2 1 Z " fill="#FFD965" transform="translate(316,261)"/>
<path d="" fill="#FFD865" transform="translate(0,0)"/>
<path d="" fill="#FED665" transform="translate(0,0)"/>
<path d="M0 0 C2 1 2 1 2 1 Z " fill="#FFD866" transform="translate(268,221)"/>
<path d="M0 0 C2 1 2 1 2 1 Z " fill="#FFD865" transform="translate(240,221)"/>
<path d="M0 0 C2 1 2 1 2 1 Z " fill="#FED764" transform="translate(231,221)"/>
<path d="" fill="#FED867" transform="translate(0,0)"/>
<path d="" fill="#F9D05F" transform="translate(0,0)"/>
<path d="" fill="#FFD963" transform="translate(0,0)"/>
<path d="M0 0 C2 1 2 1 2 1 Z " fill="#FED766" transform="translate(319,133)"/>
<path d="M0 0 C2 1 2 1 2 1 Z " fill="#FED765" transform="translate(247,133)"/>
<path d="" fill="#FED564" transform="translate(0,0)"/>
<path d="" fill="#FED564" transform="translate(0,0)"/>
<path d="" fill="#F1C65C" transform="translate(0,0)"/>
<path d="" fill="#FCD663" transform="translate(0,0)"/>
<path d="M0 0 C2 1 2 1 2 1 Z " fill="#FED765" transform="translate(328,54)"/>
<path d="M0 0 C2 1 2 1 2 1 Z " fill="#FFD664" transform="translate(323,54)"/>
<path d="M0 0 C2 1 2 1 2 1 Z " fill="#FFD763" transform="translate(255,54)"/>
<path d="M0 0 C2 1 2 1 2 1 Z " fill="#FFD865" transform="translate(243,54)"/>
<path d="M0 0 C2 1 2 1 2 1 Z " fill="#FED763" transform="translate(229,54)"/>
<path d="M0 0 C2 1 2 1 2 1 Z " fill="#FED564" transform="translate(171,54)"/>
<path d="M0 0 C2 1 2 1 2 1 Z " fill="#FED765" transform="translate(162,54)"/>
<path d="M0 0 C2 1 2 1 2 1 Z " fill="#FDD663" transform="translate(157,54)"/>
<path d="" fill="#F5CC60" transform="translate(0,0)"/>
<path d="" fill="#F9D464" transform="translate(0,0)"/>
<path d="" fill="#FAD262" transform="translate(0,0)"/>
<path d="" fill="#F5CA5E" transform="translate(0,0)"/>
<path d="" fill="#F8CE60" transform="translate(0,0)"/>
<path d="" fill="#F8D262" transform="translate(0,0)"/>
<path d="" fill="#FED363" transform="translate(0,0)"/>
<path d="" fill="#FED562" transform="translate(0,0)"/>
<path d="" fill="#FED664" transform="translate(0,0)"/>
<path d="" fill="#FACD61" transform="translate(0,0)"/>
<path d="" fill="#F9D262" transform="translate(0,0)"/>
<path d="" fill="#FCD565" transform="translate(0,0)"/>
<path d="" fill="#FFD764" transform="translate(0,0)"/>
<path d="" fill="#FED666" transform="translate(0,0)"/>
<path d="" fill="#FED966" transform="translate(0,0)"/>
<path d="" fill="#FED866" transform="translate(0,0)"/>
<path d="" fill="#FDD663" transform="translate(0,0)"/>
<path d="" fill="#FDD463" transform="translate(0,0)"/>
<path d="" fill="#FFD865" transform="translate(0,0)"/>
<path d="" fill="#FED862" transform="translate(0,0)"/>
<path d="" fill="#FFD765" transform="translate(0,0)"/>
<path d="" fill="#FDD867" transform="translate(0,0)"/>
<path d="" fill="#FFD765" transform="translate(0,0)"/>
<path d="" fill="#FED567" transform="translate(0,0)"/>
<path d="" fill="#FDD364" transform="translate(0,0)"/>
<path d="" fill="#FDD665" transform="translate(0,0)"/>
<path d="" fill="#FAD463" transform="translate(0,0)"/>
<path d="" fill="#FDD866" transform="translate(0,0)"/>
<path d="" fill="#FED663" transform="translate(0,0)"/>
<path d="" fill="#FED765" transform="translate(0,0)"/>
<path d="" fill="#FFD865" transform="translate(0,0)"/>
<path d="" fill="#FFD865" transform="translate(0,0)"/>
<path d="" fill="#FED561" transform="translate(0,0)"/>
<path d="" fill="#F7D060" transform="translate(0,0)"/>
<path d="" fill="#F8D260" transform="translate(0,0)"/>
<path d="" fill="#EDC45A" transform="translate(0,0)"/>
<path d="" fill="#F9D161" transform="translate(0,0)"/>
<path d="" fill="#FAD162" transform="translate(0,0)"/>
<path d="" fill="#F9D363" transform="translate(0,0)"/>
<path d="" fill="#FACE61" transform="translate(0,0)"/>
<path d="" fill="#FBD261" transform="translate(0,0)"/>
<path d="" fill="#F9D061" transform="translate(0,0)"/>
<path d="" fill="#FAD060" transform="translate(0,0)"/>
<path d="" fill="#F8CD5E" transform="translate(0,0)"/>
<path d="" fill="#F7D061" transform="translate(0,0)"/>
<path d="" fill="#F8CE61" transform="translate(0,0)"/>
<path d="" fill="#F7CF61" transform="translate(0,0)"/>
<path d="" fill="#F5CF61" transform="translate(0,0)"/>
<path d="" fill="#EBC15A" transform="translate(0,0)"/>
<path d="" fill="#FFD563" transform="translate(0,0)"/>
<path d="" fill="#FAD163" transform="translate(0,0)"/>
<path d="" fill="#FDD664" transform="translate(0,0)"/>
<path d="" fill="#FED866" transform="translate(0,0)"/>
<path d="" fill="#FED865" transform="translate(0,0)"/>
<path d="" fill="#FCD563" transform="translate(0,0)"/>
<path d="" fill="#FFD666" transform="translate(0,0)"/>
<path d="" fill="#FDD564" transform="translate(0,0)"/>
<path d="" fill="#FFD663" transform="translate(0,0)"/>
<path d="" fill="#FFD665" transform="translate(0,0)"/>
<path d="" fill="#FDD464" transform="translate(0,0)"/>
<path d="" fill="#FFD765" transform="translate(0,0)"/>
<path d="" fill="#F2C95D" transform="translate(0,0)"/>
<path d="" fill="#FFD866" transform="translate(0,0)"/>
<path d="" fill="#FED765" transform="translate(0,0)"/>
<path d="" fill="#FDD763" transform="translate(0,0)"/>
<path d="" fill="#FDD663" transform="translate(0,0)"/>
<path d="" fill="#FFD565" transform="translate(0,0)"/>
<path d="" fill="#FED564" transform="translate(0,0)"/>
<path d="" fill="#FDD563" transform="translate(0,0)"/>
<path d="" fill="#FED663" transform="translate(0,0)"/>
<path d="" fill="#FED564" transform="translate(0,0)"/>
<path d="" fill="#FED865" transform="translate(0,0)"/>
<path d="" fill="#FFD666" transform="translate(0,0)"/>
<path d="" fill="#FFD766" transform="translate(0,0)"/>
<path d="" fill="#EBC55B" transform="translate(0,0)"/>
<path d="" fill="#FDD966" transform="translate(0,0)"/>
<path d="" fill="#FAD463" transform="translate(0,0)"/>
<path d="" fill="#FFD867" transform="translate(0,0)"/>
<path d="" fill="#FDD566" transform="translate(0,0)"/>
<path d="" fill="#FFD768" transform="translate(0,0)"/>
<path d="" fill="#F7CD61" transform="translate(0,0)"/>
<path d="" fill="#FED766" transform="translate(0,0)"/>
<path d="" fill="#FFD765" transform="translate(0,0)"/>
<path d="" fill="#FFD865" transform="translate(0,0)"/>
<path d="" fill="#FFDA69" transform="translate(0,0)"/>
<path d="" fill="#FED664" transform="translate(0,0)"/>
<path d="" fill="#FFD968" transform="translate(0,0)"/>
<path d="" fill="#FFDA66" transform="translate(0,0)"/>
<path d="" fill="#FDD765" transform="translate(0,0)"/>
<path d="" fill="#FFD766" transform="translate(0,0)"/>
<path d="" fill="#F3C95E" transform="translate(0,0)"/>
<path d="" fill="#F9D160" transform="translate(0,0)"/>
<path d="" fill="#FED564" transform="translate(0,0)"/>
<path d="" fill="#FED665" transform="translate(0,0)"/>
<path d="" fill="#FFD866" transform="translate(0,0)"/>
<path d="" fill="#FDD866" transform="translate(0,0)"/>
<path d="" fill="#FFD966" transform="translate(0,0)"/>
<path d="" fill="#FFD766" transform="translate(0,0)"/>
<path d="" fill="#FFD662" transform="translate(0,0)"/>
<path d="" fill="#FFDA66" transform="translate(0,0)"/>
<path d="" fill="#FFD967" transform="translate(0,0)"/>
<path d="" fill="#FFDA67" transform="translate(0,0)"/>
<path d="" fill="#FFD965" transform="translate(0,0)"/>
<path d="" fill="#FFD766" transform="translate(0,0)"/>
<path d="" fill="#FDD968" transform="translate(0,0)"/>
<path d="" fill="#FCD666" transform="translate(0,0)"/>
<path d="" fill="#FED564" transform="translate(0,0)"/>
<path d="" fill="#FFD965" transform="translate(0,0)"/>
<path d="" fill="#FFD864" transform="translate(0,0)"/>
<path d="" fill="#FFD866" transform="translate(0,0)"/>
<path d="" fill="#FAD363" transform="translate(0,0)"/>
<path d="" fill="#FFD766" transform="translate(0,0)"/>
<path d="" fill="#FFD763" transform="translate(0,0)"/>
<path d="" fill="#FED564" transform="translate(0,0)"/>
<path d="" fill="#FED968" transform="translate(0,0)"/>
<path d="" fill="#FFD866" transform="translate(0,0)"/>
<path d="" fill="#FFD766" transform="translate(0,0)"/>
<path d="" fill="#FDD564" transform="translate(0,0)"/>
<path d="" fill="#FFD864" transform="translate(0,0)"/>
<path d="" fill="#FED564" transform="translate(0,0)"/>
<path d="" fill="#FFD763" transform="translate(0,0)"/>
<path d="" fill="#FAD15F" transform="translate(0,0)"/>
<path d="" fill="#FDD462" transform="translate(0,0)"/>
<path d="" fill="#FFD966" transform="translate(0,0)"/>
<path d="" fill="#FED866" transform="translate(0,0)"/>
<path d="" fill="#FED665" transform="translate(0,0)"/>
<path d="" fill="#FFD765" transform="translate(0,0)"/>
<path d="" fill="#FED765" transform="translate(0,0)"/>
<path d="" fill="#FFD666" transform="translate(0,0)"/>
<path d="" fill="#FFD867" transform="translate(0,0)"/>
<path d="" fill="#FED764" transform="translate(0,0)"/>
<path d="" fill="#FED765" transform="translate(0,0)"/>
<path d="" fill="#FFD865" transform="translate(0,0)"/>
<path d="" fill="#FFD866" transform="translate(0,0)"/>
<path d="" fill="#FFD865" transform="translate(0,0)"/>
<path d="" fill="#FFD866" transform="translate(0,0)"/>
<path d="" fill="#FFD965" transform="translate(0,0)"/>
<path d="" fill="#FFD765" transform="translate(0,0)"/>
<path d="" fill="#FFD666" transform="translate(0,0)"/>
<path d="" fill="#FFD865" transform="translate(0,0)"/>
<path d="" fill="#FCD660" transform="translate(0,0)"/>
<path d="" fill="#F8D162" transform="translate(0,0)"/>
<path d="" fill="#F7CF61" transform="translate(0,0)"/>
<path d="" fill="#F9D362" transform="translate(0,0)"/>
<path d="" fill="#FFD966" transform="translate(0,0)"/>
<path d="" fill="#F8D15F" transform="translate(0,0)"/>
<path d="" fill="#FFDA68" transform="translate(0,0)"/>
<path d="" fill="#FFDA66" transform="translate(0,0)"/>
<path d="" fill="#FFDA66" transform="translate(0,0)"/>
<path d="" fill="#FCD364" transform="translate(0,0)"/>
<path d="" fill="#FFD665" transform="translate(0,0)"/>
<path d="" fill="#FFD866" transform="translate(0,0)"/>
<path d="" fill="#FED865" transform="translate(0,0)"/>
<path d="" fill="#FFD866" transform="translate(0,0)"/>
<path d="" fill="#FFD967" transform="translate(0,0)"/>
<path d="" fill="#FAD361" transform="translate(0,0)"/>
<path d="" fill="#FFD768" transform="translate(0,0)"/>
<path d="" fill="#FFD967" transform="translate(0,0)"/>
<path d="" fill="#FFD865" transform="translate(0,0)"/>
<path d="" fill="#FAD260" transform="translate(0,0)"/>
<path d="" fill="#FFD965" transform="translate(0,0)"/>
<path d="" fill="#FED864" transform="translate(0,0)"/>
<path d="" fill="#FFD867" transform="translate(0,0)"/>
<path d="" fill="#FDD463" transform="translate(0,0)"/>
<path d="" fill="#FFD663" transform="translate(0,0)"/>
<path d="" fill="#FEDA63" transform="translate(0,0)"/>
<path d="" fill="#FDD465" transform="translate(0,0)"/>
<path d="" fill="#FED964" transform="translate(0,0)"/>
<path d="" fill="#FFD964" transform="translate(0,0)"/>
<path d="" fill="#FFD865" transform="translate(0,0)"/>
<path d="" fill="#FFDA66" transform="translate(0,0)"/>
<path d="" fill="#FCD364" transform="translate(0,0)"/>
<path d="" fill="#FFD465" transform="translate(0,0)"/>
<path d="" fill="#FBD162" transform="translate(0,0)"/>
<path d="" fill="#FFD763" transform="translate(0,0)"/>
<path d="" fill="#FFDA64" transform="translate(0,0)"/>
<path d="" fill="#FFD765" transform="translate(0,0)"/>
<path d="" fill="#FFD766" transform="translate(0,0)"/>
<path d="" fill="#FFD665" transform="translate(0,0)"/>
<path d="" fill="#FED665" transform="translate(0,0)"/>
<path d="" fill="#FFD763" transform="translate(0,0)"/>
<path d="" fill="#FFD966" transform="translate(0,0)"/>
<path d="" fill="#FFDA65" transform="translate(0,0)"/>
<path d="" fill="#FFD767" transform="translate(0,0)"/>
<path d="" fill="#FFD864" transform="translate(0,0)"/>
<path d="" fill="#FEDA65" transform="translate(0,0)"/>
<path d="" fill="#FED764" transform="translate(0,0)"/>
<path d="" fill="#FFD767" transform="translate(0,0)"/>
<path d="" fill="#FFD664" transform="translate(0,0)"/>
<path d="" fill="#FFD966" transform="translate(0,0)"/>
<path d="" fill="#FED765" transform="translate(0,0)"/>
<path d="" fill="#FFD865" transform="translate(0,0)"/>
<path d="" fill="#FFD867" transform="translate(0,0)"/>
<path d="" fill="#FFD766" transform="translate(0,0)"/>
<path d="" fill="#FFD666" transform="translate(0,0)"/>
<path d="" fill="#FFD767" transform="translate(0,0)"/>
<path d="" fill="#FFD766" transform="translate(0,0)"/>
<path d="" fill="#FFD965" transform="translate(0,0)"/>
<path d="" fill="#FED866" transform="translate(0,0)"/>
<path d="" fill="#FFD867" transform="translate(0,0)"/>
<path d="" fill="#FFD968" transform="translate(0,0)"/>
<path d="" fill="#FFD864" transform="translate(0,0)"/>
<path d="" fill="#FAD263" transform="translate(0,0)"/>
<path d="" fill="#FDD665" transform="translate(0,0)"/>
<path d="" fill="#FFD967" transform="translate(0,0)"/>
<path d="" fill="#FFD866" transform="translate(0,0)"/>
<path d="" fill="#FFDA64" transform="translate(0,0)"/>
<path d="" fill="#FED666" transform="translate(0,0)"/>
<path d="" fill="#FFD768" transform="translate(0,0)"/>
<path d="" fill="#FFD967" transform="translate(0,0)"/>
<path d="" fill="#FED965" transform="translate(0,0)"/>
<path d="" fill="#FFD865" transform="translate(0,0)"/>
<path d="" fill="#FFD865" transform="translate(0,0)"/>
<path d="" fill="#FFD965" transform="translate(0,0)"/>
<path d="" fill="#F7CF61" transform="translate(0,0)"/>
<path d="" fill="#FFD765" transform="translate(0,0)"/>
<path d="" fill="#FFD966" transform="translate(0,0)"/>
<path d="" fill="#FED764" transform="translate(0,0)"/>
<path d="" fill="#F7D161" transform="translate(0,0)"/>
<path d="" fill="#F9D160" transform="translate(0,0)"/>
<path d="" fill="#F9D061" transform="translate(0,0)"/>
<path d="" fill="#FED965" transform="translate(0,0)"/>
<path d="" fill="#FFDA63" transform="translate(0,0)"/>
<path d="" fill="#F9D061" transform="translate(0,0)"/>
<path d="" fill="#FFDA63" transform="translate(0,0)"/>
<path d="" fill="#FFD965" transform="translate(0,0)"/>
<path d="" fill="#FFD766" transform="translate(0,0)"/>
<path d="" fill="#FED966" transform="translate(0,0)"/>
<path d="" fill="#FFDA65" transform="translate(0,0)"/>
<path d="" fill="#F8D060" transform="translate(0,0)"/>
<path d="" fill="#FED766" transform="translate(0,0)"/>
<path d="" fill="#FFD764" transform="translate(0,0)"/>
<path d="" fill="#FFD465" transform="translate(0,0)"/>
<path d="" fill="#FFD665" transform="translate(0,0)"/>
<path d="" fill="#FFD764" transform="translate(0,0)"/>
<path d="" fill="#FFD865" transform="translate(0,0)"/>
<path d="" fill="#FFDB65" transform="translate(0,0)"/>
<path d="" fill="#FFD965" transform="translate(0,0)"/>
<path d="" fill="#FFDB67" transform="translate(0,0)"/>
<path d="" fill="#FFDA67" transform="translate(0,0)"/>
<path d="" fill="#FFD869" transform="translate(0,0)"/>
<path d="" fill="#FFD665" transform="translate(0,0)"/>
<path d="" fill="#FFD968" transform="translate(0,0)"/>
<path d="" fill="#FFD964" transform="translate(0,0)"/>
<path d="" fill="#FFD766" transform="translate(0,0)"/>
<path d="" fill="#FFD867" transform="translate(0,0)"/>
<path d="" fill="#F7CF60" transform="translate(0,0)"/>
<path d="" fill="#FFD863" transform="translate(0,0)"/>
<path d="" fill="#FFD965" transform="translate(0,0)"/>
<path d="" fill="#FFD967" transform="translate(0,0)"/>
<path d="" fill="#FFD964" transform="translate(0,0)"/>
<path d="" fill="#FFD767" transform="translate(0,0)"/>
<path d="" fill="#FFD866" transform="translate(0,0)"/>
<path d="" fill="#F6CE5F" transform="translate(0,0)"/>
<path d="" fill="#FFD869" transform="translate(0,0)"/>
<path d="" fill="#FED865" transform="translate(0,0)"/>
<path d="" fill="#FFD964" transform="translate(0,0)"/>
<path d="" fill="#FDD765" transform="translate(0,0)"/>
<path d="" fill="#F7D062" transform="translate(0,0)"/>
<path d="" fill="#FFD967" transform="translate(0,0)"/>
<path d="" fill="#FFD666" transform="translate(0,0)"/>
<path d="" fill="#FED867" transform="translate(0,0)"/>
<path d="" fill="#FFD767" transform="translate(0,0)"/>
<path d="" fill="#FFD866" transform="translate(0,0)"/>
<path d="" fill="#FFD966" transform="translate(0,0)"/>
<path d="" fill="#FFD865" transform="translate(0,0)"/>
<path d="" fill="#FFD866" transform="translate(0,0)"/>
<path d="" fill="#FFD766" transform="translate(0,0)"/>
<path d="" fill="#FDD665" transform="translate(0,0)"/>
<path d="" fill="#FCD765" transform="translate(0,0)"/>
<path d="" fill="#FFD767" transform="translate(0,0)"/>
<path d="" fill="#FDD766" transform="translate(0,0)"/>
<path d="" fill="#F7CE61" transform="translate(0,0)"/>
<path d="" fill="#FFD966" transform="translate(0,0)"/>
<path d="" fill="#FFD863" transform="translate(0,0)"/>
<path d="" fill="#F6D061" transform="translate(0,0)"/>
<path d="" fill="#FED864" transform="translate(0,0)"/>
<path d="" fill="#F9CE62" transform="translate(0,0)"/>
<path d="" fill="#FFD666" transform="translate(0,0)"/>
<path d="" fill="#FFD765" transform="translate(0,0)"/>
<path d="" fill="#FCD764" transform="translate(0,0)"/>
<path d="" fill="#F7CE60" transform="translate(0,0)"/>
<path d="" fill="#FDD765" transform="translate(0,0)"/>
<path d="" fill="#FED765" transform="translate(0,0)"/>
<path d="" fill="#FED964" transform="translate(0,0)"/>
<path d="" fill="#FED864" transform="translate(0,0)"/>
<path d="" fill="#FDD564" transform="translate(0,0)"/>
<path d="" fill="#FFD867" transform="translate(0,0)"/>
<path d="" fill="#FED564" transform="translate(0,0)"/>
<path d="" fill="#FFD765" transform="translate(0,0)"/>
<path d="" fill="#FFD662" transform="translate(0,0)"/>
<path d="" fill="#FFD663" transform="translate(0,0)"/>
<path d="" fill="#FFD665" transform="translate(0,0)"/>
<path d="" fill="#FFD766" transform="translate(0,0)"/>
<path d="" fill="#FED666" transform="translate(0,0)"/>
<path d="" fill="#FED865" transform="translate(0,0)"/>
<path d="" fill="#FED865" transform="translate(0,0)"/>
<path d="" fill="#FFD964" transform="translate(0,0)"/>
<path d="" fill="#FFD664" transform="translate(0,0)"/>
<path d="" fill="#FFD762" transform="translate(0,0)"/>
<path d="" fill="#FFD965" transform="translate(0,0)"/>
<path d="" fill="#FFD666" transform="translate(0,0)"/>
<path d="" fill="#FFD967" transform="translate(0,0)"/>
<path d="" fill="#FCD762" transform="translate(0,0)"/>
<path d="" fill="#FED966" transform="translate(0,0)"/>
<path d="" fill="#FFD764" transform="translate(0,0)"/>
<path d="" fill="#FFD763" transform="translate(0,0)"/>
<path d="" fill="#FED664" transform="translate(0,0)"/>
<path d="" fill="#FFD663" transform="translate(0,0)"/>
<path d="" fill="#FFD765" transform="translate(0,0)"/>
<path d="" fill="#FFD865" transform="translate(0,0)"/>
<path d="" fill="#FFD965" transform="translate(0,0)"/>
<path d="" fill="#FED863" transform="translate(0,0)"/>
<path d="" fill="#FCD661" transform="translate(0,0)"/>
<path d="" fill="#FED763" transform="translate(0,0)"/>
<path d="" fill="#FFD864" transform="translate(0,0)"/>
<path d="" fill="#FED865" transform="translate(0,0)"/>
<path d="" fill="#F2CB5D" transform="translate(0,0)"/>
<path d="" fill="#F4CB5E" transform="translate(0,0)"/>
<path d="" fill="#F8CE60" transform="translate(0,0)"/>
<path d="" fill="#FDD564" transform="translate(0,0)"/>
<path d="" fill="#94762C" transform="translate(0,0)"/>
</svg>
