<?xml version="1.0" encoding="UTF-8"?>
<svg version="1.1" xmlns="http://www.w3.org/2000/svg" width="512" height="512">
<path d="M0 0 C1.84240692 0.03514017 3.68490641 0.06573477 5.52746582 0.0916748 C8.1533382 0.13131978 10.77803368 0.19081626 13.40338135 0.25604248 C14.58032814 0.27040848 14.58032814 0.27040848 15.78105164 0.2850647 C21.58754001 0.46443239 26.68551441 1.4448875 31.0869751 5.55291748 C34.03472497 11.44841723 33.34458801 18.73357774 33.30963135 25.16253662 C33.30817108 26.18160599 33.30671082 27.20067535 33.3052063 28.25062561 C33.3014107 30.45767262 33.29530515 32.66471662 33.28713989 34.87175179 C33.27430044 38.3858768 33.2678396 41.89996369 33.26300049 45.41410828 C33.24967019 54.15463211 33.22565385 62.89512032 33.20159912 71.63562012 C33.1816782 79.00792182 33.16610807 86.38020911 33.15603638 93.75253105 C33.14966006 97.17625913 33.13714622 100.59992682 33.12432861 104.02363586 C33.09903317 114.98484964 33.28669659 125.88988693 33.85057163 136.83683777 C34.32594066 146.34957549 34.35239256 155.84670317 34.30181885 165.36932373 C34.29735811 166.28067518 34.29289738 167.19202663 34.28830147 168.1309948 C34.26301749 172.92202299 34.22945112 177.71291606 34.1897583 182.50384521 C34.1588169 186.44212584 34.14549854 190.37989835 34.14678955 194.31829834 C34.14831015 199.12918453 34.12089792 203.9390744 34.07235909 208.74970818 C34.05875049 210.56810757 34.05520856 212.38661232 34.06211662 214.20504951 C34.06954815 216.73171479 34.03970373 219.25535951 34.00079346 221.78167725 C34.01676826 222.89508736 34.01676826 222.89508736 34.0330658 224.0309906 C33.95815512 226.88672054 33.76999365 229.13785541 31.89416695 231.37351799 C27.10829753 235.44957422 23.50404586 236.05477111 17.44070435 236.35733032 C16.60632776 236.3994577 15.77195118 236.44158508 14.91229045 236.48498905 C2.84171561 237.02604774 -9.24111151 236.94485399 -21.32104182 236.93364215 C-24.98743667 236.93134896 -28.65382704 236.93488716 -32.32022095 236.93762207 C-39.48156512 236.94203977 -46.64289874 236.94112052 -53.80424331 236.93820943 C-59.64205017 236.93593639 -65.47985411 236.93565106 -71.31766129 236.93673325 C-72.15366477 236.93688648 -72.98966825 236.93703971 -73.85100517 236.93719759 C-75.55040597 236.93751738 -77.24980677 236.93784159 -78.94920756 236.93817018 C-94.84525871 236.9410141 -110.74130407 236.93775671 -126.63735427 236.93236981 C-140.1926263 236.92791758 -153.74788975 236.92866673 -167.30316162 236.93328857 C-183.12057674 236.93867937 -198.93798677 236.94072407 -214.75540268 236.93767631 C-216.45350337 236.93735784 -218.15160406 236.93704347 -219.84970474 236.93673325 C-220.68471137 236.93657897 -221.519718 236.93642469 -222.38002785 236.93626574 C-228.18228665 236.93541289 -233.9845421 236.9368638 -239.78680038 236.9392128 C-259.78751912 236.94638104 -279.78761589 236.92538902 -299.7880249 236.80291748 C-300.88439679 236.79647815 -301.98076868 236.79003881 -303.11036396 236.78340435 C-308.71689423 236.74693518 -314.32215593 236.6892936 -319.92786431 236.58543372 C-321.46267477 236.55880782 -322.99760599 236.53824765 -324.53258681 236.52461076 C-326.54372228 236.50468756 -328.55452881 236.45707027 -330.56515503 236.40762329 C-331.63904543 236.38752134 -332.71293583 236.3674194 -333.81936836 236.3467083 C-337.58649779 235.65665529 -339.79492539 234.15456863 -342.7880249 231.80291748 C-345.1516994 228.25740573 -345.06815014 226.66448797 -345.13861084 222.45477295 C-345.16493591 221.14265839 -345.19126099 219.83054382 -345.21838379 218.47866821 C-345.23691223 217.04248712 -345.25490404 215.60629902 -345.2723999 214.17010498 C-345.29620738 212.6937879 -345.32056867 211.21747965 -345.34545898 209.74118042 C-345.3953985 206.6426747 -345.43816567 203.54417187 -345.47601318 200.44549561 C-345.52489688 196.49461993 -345.5920336 192.54430909 -345.66476059 188.59380913 C-345.71877951 185.54136523 -345.76259034 182.48883711 -345.80347443 179.43619156 C-345.82422627 177.98105107 -345.84814576 176.52595189 -345.87541962 175.07091904 C-346.21991954 155.95780782 -346.21991954 155.95780782 -341.4755249 149.80291748 C-337.4009378 146.77066661 -333.51252269 146.67972177 -328.54217529 146.64178467 C-327.52084 146.63217712 -326.4995047 146.62256958 -325.44721985 146.6126709 C-323.80800819 146.60629608 -323.80800819 146.60629608 -322.13568115 146.59979248 C-321.0027916 146.59409241 -319.86990204 146.58839233 -318.7026825 146.58251953 C-316.30967132 146.57308586 -313.91664726 146.56654205 -311.52362061 146.56268311 C-307.8673847 146.55296231 -304.21170747 146.52191653 -300.55560303 146.49041748 C-298.2281324 146.48388845 -295.90065776 146.47863758 -293.57318115 146.47479248 C-292.48239761 146.46244568 -291.39161407 146.45009888 -290.26777649 146.43737793 C-283.2649655 146.45789173 -278.74084659 147.02903592 -273.45941162 151.99041748 C-271.32214701 155.58686626 -271.12124649 158.72647281 -271.0458374 162.80291748 C-271.01732697 163.58545898 -270.98881653 164.36800049 -270.95944214 165.17425537 C-270.87667555 167.71723595 -270.82736397 170.25891127 -270.7880249 172.80291748 C-270.77348267 173.65611572 -270.75894043 174.50931396 -270.74395752 175.3883667 C-270.66525469 180.6394982 -270.64500157 185.88915419 -270.65765381 191.14080811 C-270.66313272 193.85635676 -270.6576056 196.57174805 -270.65130615 199.28729248 C-270.65196511 201.02166784 -270.65324246 202.75604311 -270.6552124 204.49041748 C-270.65318817 205.2985791 -270.65116394 206.10674072 -270.64907837 206.93939209 C-270.67299169 212.57285106 -270.67299169 212.57285106 -271.7880249 214.80291748 C-269.66267831 214.66222552 -267.53774961 214.51520827 -265.4130249 214.36541748 C-264.22966553 214.28420654 -263.04630615 214.20299561 -261.8270874 214.11932373 C-258.87283589 213.99206812 -258.87283589 213.99206812 -256.7880249 212.80291748 C-256.79801765 210.94702248 -256.79801765 210.94702248 -256.80821228 209.05363464 C-256.86906287 197.38593988 -256.9140166 185.71827738 -256.94346142 174.05045986 C-256.95910824 168.0521069 -256.98032887 162.05388219 -257.01434326 156.05560303 C-257.04697131 150.2654755 -257.06488532 144.47547124 -257.07265663 138.68525887 C-257.07819391 136.4776929 -257.08900687 134.27013357 -257.10521507 132.06262016 C-257.12703477 128.9673601 -257.12998988 125.87260749 -257.12860107 122.77728271 C-257.1393869 121.86737579 -257.15017273 120.95746887 -257.1612854 120.01998901 C-257.13460278 114.51369351 -256.39510601 110.68166154 -253.7880249 105.80291748 C-245.1282145 97.4224558 -224.84883408 100.7321468 -213.68255615 100.89276123 C-210.07162566 100.95678904 -206.46112052 101.03493477 -202.8505249 101.11541748 C-201.96232056 101.13247742 -201.07411621 101.14953735 -200.15899658 101.16711426 C-197.58834957 101.21889255 -195.01840089 101.28409332 -192.44818115 101.35369873 C-191.67907913 101.36843735 -190.90997711 101.38317596 -190.11756897 101.39836121 C-184.81353765 101.56581688 -179.3591355 101.94869935 -174.92474365 105.14666748 C-169.54850895 112.98008161 -171.13127722 127.65370478 -171.7880249 136.80291748 C-172.0908423 138.14351082 -172.41582931 139.47990602 -172.7880249 140.80291748 C-172.1280249 140.80291748 -171.4680249 140.80291748 -170.7880249 140.80291748 C-170.7880249 142.12291748 -170.7880249 143.44291748 -170.7880249 144.80291748 C-171.4480249 144.80291748 -172.1080249 144.80291748 -172.7880249 144.80291748 C-172.7880249 145.46291748 -172.7880249 146.12291748 -172.7880249 146.80291748 C-172.1280249 147.13291748 -171.4680249 147.46291748 -170.7880249 147.80291748 C-170.95173584 148.50158936 -171.11544678 149.20026123 -171.28411865 149.92010498 C-171.82030681 152.98760002 -171.88561765 155.8163606 -171.8505249 158.92791748 C-171.84150146 159.96174561 -171.83247803 160.99557373 -171.82318115 162.06072998 C-171.80577881 163.41811279 -171.80577881 163.41811279 -171.7880249 164.80291748 C-171.7880249 168.80291748 -171.7880249 172.80291748 -171.7880249 176.80291748 C-171.6023999 177.93729248 -171.4167749 179.07166748 -171.2255249 180.24041748 C-170.81728243 183.56467762 -171.01065407 185.60705961 -171.7880249 188.80291748 C-171.91876899 192.62723011 -171.91876899 192.62723011 -171.2255249 195.61541748 C-170.72675858 199.24928638 -171.20774711 202.19230008 -171.7880249 205.80291748 C-172.04085564 209.96352782 -172.04085564 209.96352782 -170.7880249 213.80291748 C-168.46645893 214.21020976 -166.1311462 214.54730425 -163.7880249 214.80291748 C-163.4580249 214.14291748 -163.1280249 213.48291748 -162.7880249 212.80291748 C-162.7880249 213.46291748 -162.7880249 214.12291748 -162.7880249 214.80291748 C-160.1480249 214.80291748 -157.5080249 214.80291748 -154.7880249 214.80291748 C-154.79079028 214.05084959 -154.79355566 213.2987817 -154.79640484 212.52392387 C-154.8626703 194.22081624 -154.91230823 175.91773257 -154.94346142 157.61453056 C-154.95892747 148.76321987 -154.98001199 139.91198927 -155.01434326 131.06072998 C-155.04425363 123.34558373 -155.06360181 115.63049548 -155.07029039 107.91529286 C-155.07419987 103.83048835 -155.08338222 99.74584979 -155.10521507 95.66109848 C-155.12560614 91.81486254 -155.13185344 87.96886062 -155.12734795 84.12257576 C-155.12817198 82.71248286 -155.13412216 81.30238198 -155.14564133 79.89233589 C-155.16062459 77.96332618 -155.15517769 76.03419037 -155.14878845 74.10513306 C-155.15155383 73.02663527 -155.15431921 71.94813747 -155.15716839 70.83695793 C-154.61771219 66.40309414 -153.11196288 63.00273627 -149.7880249 59.99041748 C-145.94742033 57.71005851 -142.75462336 57.66736821 -138.37640381 57.64178467 C-137.73050797 57.63681976 -137.08461212 57.63185486 -136.41914368 57.6267395 C-134.28428071 57.61214523 -132.14949204 57.60532063 -130.0145874 57.59979248 C-128.52869668 57.59403894 -127.04280597 57.58828123 -125.55691528 57.58251953 C-122.4415655 57.57201745 -119.32624146 57.56616955 -116.21087646 57.56268311 C-112.22389842 57.55719881 -108.23726195 57.53316916 -104.25039101 57.50471115 C-101.1808473 57.48606465 -98.11138557 57.48087812 -95.04179001 57.47934723 C-93.57220975 57.4763249 -92.10263078 57.46831048 -90.63310623 57.45516205 C-88.57461987 57.43805804 -86.51696415 57.43999173 -84.45843506 57.44647217 C-83.28833893 57.44282654 -82.1182428 57.43918091 -80.91268921 57.4354248 C-76.22609402 57.98661662 -72.79391356 60.19585109 -69.7880249 63.80291748 C-68.62682365 67.28652124 -68.62044238 70.43142802 -68.59857178 74.05657959 C-68.59027847 74.79186386 -68.58198517 75.52714813 -68.57344055 76.28471375 C-68.55605085 77.88069961 -68.54088108 79.47671086 -68.52766418 81.07273674 C-68.50662118 83.59871416 -68.47959907 86.12456461 -68.45098877 88.65046692 C-68.39131258 94.0137349 -68.33915237 99.37706209 -68.2880249 104.74041748 C-68.22877107 110.95180118 -68.16644699 117.16312223 -68.09614563 123.37439156 C-68.06959601 125.86266692 -68.04876576 128.35094869 -68.02813721 130.83927917 C-68.01153072 132.3661428 -67.99465857 133.89300357 -67.97747803 135.41986084 C-67.97329361 136.11142273 -67.96910919 136.80298462 -67.96479797 137.51550293 C-67.92264626 140.75197599 -67.77081157 143.70541303 -66.7880249 146.80291748 C-67.1180249 146.80291748 -67.4480249 146.80291748 -67.7880249 146.80291748 C-67.7880249 150.76291748 -67.7880249 154.72291748 -67.7880249 158.80291748 C-67.4580249 158.80291748 -67.1280249 158.80291748 -66.7880249 158.80291748 C-66.7880249 160.78291748 -66.7880249 162.76291748 -66.7880249 164.80291748 C-67.1180249 164.80291748 -67.4480249 164.80291748 -67.7880249 164.80291748 C-67.7880249 181.30291748 -67.7880249 197.80291748 -67.7880249 214.80291748 C-62.8380249 214.80291748 -57.8880249 214.80291748 -52.7880249 214.80291748 C-52.79079028 213.75708685 -52.79355566 212.71125622 -52.79640484 211.63373375 C-52.8629806 186.19547469 -52.91229131 160.75722691 -52.94346142 135.31889915 C-52.95893539 123.01715373 -52.98003512 110.71546583 -53.01434326 98.41375732 C-53.04422929 87.6925616 -53.06359604 76.97140753 -53.07029039 66.2501713 C-53.07420397 60.57248378 -53.08341262 54.89491544 -53.10521507 49.21726608 C-53.12556754 43.87395231 -53.13186116 38.53080689 -53.12734795 33.18745804 C-53.1281737 31.22587418 -53.13414666 29.26428473 -53.14564133 27.30273438 C-53.16056597 24.62464039 -53.15697858 21.94718217 -53.14878845 19.26907349 C-53.15752698 18.49279708 -53.1662655 17.71652068 -53.17526883 16.91672075 C-53.1357212 12.13272646 -52.31089959 8.87135552 -49.7880249 4.80291748 C-39.15971257 -4.82899057 -13.57964489 -0.26341945 0 0 Z M-31.7880249 20.80291748 C-31.7880249 84.82291748 -31.7880249 148.84291748 -31.7880249 214.80291748 C-17.2680249 214.80291748 -2.7480249 214.80291748 12.2119751 214.80291748 C12.2119751 207.91416748 12.2119751 201.02541748 12.2119751 193.92791748 C12.2119751 170.80291748 12.2119751 170.80291748 12.2744751 167.74041748 C12.55322734 164.9135346 12.55322734 164.9135346 11.2119751 163.80291748 C11.5419751 163.80291748 11.8719751 163.80291748 12.2119751 163.80291748 C12.2119751 163.11831451 12.2119751 162.43371155 12.2119751 161.72836304 C12.2119751 114.75321452 12.2119751 67.778066 12.2119751 20.80291748 C-2.3080249 20.80291748 -16.8280249 20.80291748 -31.7880249 20.80291748 Z M-134.7880249 78.80291748 C-134.84618426 94.70134787 -134.84618426 94.70134787 -134.88568115 110.59979248 C-134.89764272 117.08289864 -134.91180254 123.56594838 -134.93890381 130.04901123 C-134.96061381 135.27502308 -134.97258967 140.50097443 -134.97777939 145.72702789 C-134.98147845 147.72214968 -134.98870166 149.71726812 -134.99948502 151.7123642 C-135.01397536 154.50401499 -135.01600387 157.29541489 -135.01507568 160.08709717 C-135.02226624 160.91428253 -135.02945679 161.7414679 -135.03686523 162.59371948 C-135.02292297 166.46185574 -135.00443297 169.53103453 -132.7880249 172.80291748 C-133.4480249 172.80291748 -134.1080249 172.80291748 -134.7880249 172.80291748 C-134.81517873 174.55283082 -134.83449041 176.30286693 -134.8505249 178.05291748 C-134.86212646 179.02744873 -134.87372803 180.00197998 -134.88568115 181.00604248 C-134.79998067 183.46050426 -134.49508557 185.46460662 -133.7880249 187.80291748 C-134.1180249 187.80291748 -134.4480249 187.80291748 -134.7880249 187.80291748 C-134.7880249 196.05291748 -134.7880249 204.30291748 -134.7880249 212.80291748 C-133.7980249 212.47291748 -132.8080249 212.14291748 -131.7880249 211.80291748 C-131.7880249 212.46291748 -131.7880249 213.12291748 -131.7880249 213.80291748 C-132.7780249 214.13291748 -133.7680249 214.46291748 -134.7880249 214.80291748 C-119.6080249 214.80291748 -104.4280249 214.80291748 -88.7880249 214.80291748 C-89.4480249 214.47291748 -90.1080249 214.14291748 -90.7880249 213.80291748 C-90.1280249 213.47291748 -89.4680249 213.14291748 -88.7880249 212.80291748 C-88.7880249 211.56614258 -88.7880249 210.32936768 -88.7880249 209.05511475 C-88.7880249 196.30438232 -88.7880249 183.5536499 -88.7880249 170.80291748 C-89.0664624 169.00854248 -89.0664624 169.00854248 -89.3505249 167.17791748 C-89.86228845 163.21175 -89.47161704 159.75256096 -88.7880249 155.80291748 C-88.7880249 154.48291748 -88.7880249 153.16291748 -88.7880249 151.80291748 C-88.7880249 127.46958415 -88.7880249 103.13625081 -88.7880249 78.80291748 C-103.9680249 78.80291748 -119.1480249 78.80291748 -134.7880249 78.80291748 Z M-234.7880249 122.80291748 C-236.3015206 125.82990887 -236.20295618 129.03829967 -236.4130249 132.36541748 C-236.4645874 133.06344482 -236.5161499 133.76147217 -236.5692749 134.48065186 C-236.68613049 136.25238879 -236.74192132 138.02792975 -236.7880249 139.80291748 C-236.4580249 140.13291748 -236.1280249 140.46291748 -235.7880249 140.80291748 C-235.78351506 142.4664873 -235.84903329 144.13035138 -235.9442749 145.79119873 C-235.99712646 146.80762451 -236.04997803 147.82405029 -236.10443115 148.87127686 C-236.22616592 151.02235604 -236.34855454 153.17339832 -236.47161865 155.32440186 C-236.52447021 156.34469482 -236.57732178 157.36498779 -236.6317749 158.41619873 C-236.685271 159.35246094 -236.73876709 160.28872314 -236.79388428 161.25335693 C-236.78833244 163.66910036 -236.4093927 165.48874702 -235.7880249 167.80291748 C-235.69963705 169.22012501 -235.65743556 170.64077059 -235.6552124 172.06072998 C-235.65392334 172.85092529 -235.65263428 173.64112061 -235.65130615 174.45526123 C-235.65517334 175.27123779 -235.65904053 176.08721436 -235.6630249 176.92791748 C-235.65915771 177.75162842 -235.65529053 178.57533936 -235.65130615 179.42401123 C-235.66133155 185.54953078 -235.66133155 185.54953078 -236.7880249 187.80291748 C-236.4623516 189.13814248 -236.12781679 190.47121543 -235.7880249 191.80291748 C-235.78396371 193.35717049 -235.84029475 194.91229746 -235.9442749 196.46307373 C-235.99712646 197.3389917 -236.04997803 198.21490967 -236.10443115 199.11737061 C-236.19531006 200.47765381 -236.19531006 200.47765381 -236.2880249 201.86541748 C-236.40797214 203.66845408 -236.52278005 205.47184193 -236.6317749 207.27557373 C-236.685271 208.07229492 -236.73876709 208.86901611 -236.79388428 209.68988037 C-236.89793069 211.99585994 -236.89793069 211.99585994 -235.7880249 214.80291748 C-221.2680249 214.80291748 -206.7480249 214.80291748 -191.7880249 214.80291748 C-191.17997356 204.1231055 -191.17997356 204.1231055 -192.7880249 193.80291748 C-192.64493896 193.10424561 -192.50185303 192.40557373 -192.35443115 191.68572998 C-191.56561321 187.67091864 -191.68295582 183.75800016 -191.7255249 179.67791748 C-191.73003662 178.86709717 -191.73454834 178.05627686 -191.73919678 177.22088623 C-191.74788302 175.71940632 -191.75863078 174.21793582 -191.77215576 172.7164917 C-191.79750982 169.65918234 -191.77724151 166.60386391 -191.74041748 163.54681396 C-191.68664181 158.80289363 -191.65183438 154.05901456 -191.62322998 149.31488037 C-191.6080797 147.26340152 -191.58756212 145.21195536 -191.56170654 143.1605835 C-191.52544882 140.20664524 -191.50833299 137.25313079 -191.49505615 134.29901123 C-191.4795723 133.37817245 -191.46408844 132.45733368 -191.44813538 131.5085907 C-191.44779549 130.2320034 -191.44779549 130.2320034 -191.44744873 128.92962646 C-191.4407869 128.17922592 -191.43412506 127.42882538 -191.42726135 126.65568542 C-191.60583931 125.73856529 -191.60583931 125.73856529 -191.7880249 124.80291748 C-194.83252691 122.77324948 -195.39078818 122.55435447 -198.80047607 122.5758667 C-200.0013813 122.57609329 -200.0013813 122.57609329 -201.22654724 122.57632446 C-202.08601456 122.58664703 -202.94548187 122.5969696 -203.83099365 122.60760498 C-205.15638908 122.61184982 -205.15638908 122.61184982 -206.50856018 122.61618042 C-209.33101945 122.62737651 -212.15316153 122.65247997 -214.9755249 122.67791748 C-216.88893178 122.68794802 -218.80234363 122.69707374 -220.71575928 122.70526123 C-225.40663672 122.72731397 -230.09727703 122.76183986 -234.7880249 122.80291748 Z M-324.7880249 168.80291748 C-324.7880249 171.96756592 -324.7880249 175.13221436 -324.7880249 178.39276123 C-324.7880249 190.52947998 -324.7880249 202.66619873 -324.7880249 214.80291748 C-313.8980249 214.80291748 -303.0080249 214.80291748 -291.7880249 214.80291748 C-291.7880249 199.62291748 -291.7880249 184.44291748 -291.7880249 168.80291748 C-302.6780249 168.80291748 -313.5680249 168.80291748 -324.7880249 168.80291748 Z " fill="#FED665" transform="translate(370.78802490234375,211.19708251953125)"/>
<path d="M0 0 C4.42164821 4.92697944 4.43646813 11.61689964 4.37036133 17.9675293 C4.36571869 18.6726767 4.36107605 19.3778241 4.35629272 20.1043396 C4.33809178 22.40704901 4.30455652 24.7092083 4.26953125 27.01171875 C4.25094501 28.62497912 4.23286148 30.23824535 4.21525574 31.85151672 C4.17591055 35.21958836 4.12859017 38.58743354 4.07592773 41.95532227 C4.0094417 46.26590121 3.96591105 50.57636789 3.92866993 54.88728619 C3.89690504 58.21347181 3.85152167 61.53936815 3.80219078 64.86533546 C3.7805277 66.45485737 3.76342256 68.04444834 3.75101662 69.63406944 C3.73193834 71.8550664 3.69414111 74.0749991 3.65161133 76.2956543 C3.63447586 77.55725876 3.61734039 78.81886322 3.59968567 80.11869812 C3.02394063 84.75443358 1.53405312 87.3820935 -2.125 90.25 C-5.34325692 91.6720205 -7.32472468 91.87347191 -10.8125 91.4375 C-14.11155916 90.08788489 -15.45476543 89.22340152 -16.94091797 85.95849609 C-18.08880763 81.32127908 -18.06053699 76.98426644 -18.0078125 72.2265625 C-18.00356766 70.77435806 -18.00356766 70.77435806 -17.99923706 69.29281616 C-17.98808696 66.21591572 -17.9629918 63.13931172 -17.9375 60.0625 C-17.92746352 57.9700563 -17.91833884 55.87760802 -17.91015625 53.78515625 C-17.88816453 48.66915749 -17.85367025 43.55337892 -17.8125 38.4375 C-18.26625 38.9325 -18.72 39.4275 -19.1875 39.9375 C-20.8125 41.4375 -20.8125 41.4375 -22.8125 41.4375 C-23.06 41.994375 -23.3075 42.55125 -23.5625 43.125 C-26.16485615 47.93935889 -29.54255229 51.10485789 -33.8125 54.4375 C-35.50183922 56.0811814 -37.16509924 57.7517876 -38.8125 59.4375 C-43.95596409 64.6918146 -49.23649563 69.64785522 -54.8125 74.4375 C-55.91744852 75.40535813 -57.02154106 76.37419394 -58.125 77.34375 C-76.73795559 93.65917662 -96.29461441 108.59960072 -116.8125 122.4375 C-117.87339844 123.15808594 -118.93429688 123.87867188 -120.02734375 124.62109375 C-160.50008886 151.90429775 -204.57604433 173.68329288 -249.94140625 191.5078125 C-253.21757527 192.79518354 -256.47076238 194.12605365 -259.71484375 195.4921875 C-277.13617452 202.73284473 -277.13617452 202.73284473 -284.95703125 199.5703125 C-287.92192289 197.76016813 -288.65907847 195.65493901 -289.8125 192.4375 C-289.8125 188.8125 -289.8125 188.8125 -288.8125 185.4375 C-285.21285578 181.99935979 -281.58410305 180.35581722 -276.94140625 178.66015625 C-276.27452789 178.41231384 -275.60764954 178.16447144 -274.92056274 177.90911865 C-273.48665232 177.37621567 -272.05136085 176.84701664 -270.61483765 176.32119751 C-254.33816261 170.35363775 -238.4291475 163.69916304 -222.59448242 156.65161133 C-220.7724812 155.8564545 -218.93100704 155.10420191 -217.0715332 154.40112305 C-214.66833552 153.54197928 -214.66833552 153.54197928 -212.8125 151.4375 C-211.61173828 151.05271484 -211.61173828 151.05271484 -210.38671875 150.66015625 C-205.21770547 148.89195826 -200.48371167 146.35678797 -195.625 143.875 C-193.65324844 142.87191759 -191.6806304 141.87053607 -189.70703125 140.87109375 C-188.83925049 140.42822021 -187.97146973 139.98534668 -187.07739258 139.52905273 C-184.8125 138.4375 -184.8125 138.4375 -181.8125 137.4375 C-181.4825 136.7775 -181.1525 136.1175 -180.8125 135.4375 C-179.00635753 134.48803812 -177.16459599 133.60636962 -175.3125 132.75 C-155.96187567 123.41760046 -136.00385446 111.61599265 -119.53515625 97.73046875 C-117.37720125 95.91308053 -115.31492896 94.36952485 -112.9375 92.875 C-101.9968887 85.69177036 -91.72940968 77.55415814 -81.82421875 69.015625 C-79.02726951 66.62134938 -76.18400572 64.30383432 -73.3125 62 C-68.49203032 58.08292727 -63.92603802 53.93781477 -59.40234375 49.68579102 C-55.97165563 46.4668136 -52.43785855 43.43568682 -48.8125 40.4375 C-46.1873325 37.93734048 -43.85147528 35.48761107 -41.625 32.625 C-41.026875 31.903125 -40.42875 31.18125 -39.8125 30.4375 C-39.1525 30.4375 -38.4925 30.4375 -37.8125 30.4375 C-37.544375 29.86 -37.27625 29.2825 -37 28.6875 C-35.79449197 26.40337952 -34.38114477 24.48318469 -32.8125 22.4375 C-33.44937744 22.51790527 -34.08625488 22.59831055 -34.74243164 22.68115234 C-42.42741512 23.64460999 -50.11770008 24.5560159 -57.8125 25.4375 C-58.91094238 25.56511719 -60.00938477 25.69273437 -61.14111328 25.82421875 C-64.23807328 26.17508494 -67.33663185 26.49827599 -70.4375 26.8125 C-71.37730713 26.92126465 -72.31711426 27.0300293 -73.28540039 27.14208984 C-79.09240041 27.69523781 -82.68093982 27.28312207 -87.8125 24.4375 C-90.59014621 21.92865826 -90.7877382 20.71483219 -91.125 16.9375 C-90.66597985 11.79647436 -90.66597985 11.79647436 -88.8125 9.4375 C-82.59358848 5.67722792 -76.16921906 4.26184954 -68.97265625 4.0078125 C-61.78845254 3.66585373 -54.69343869 2.88832171 -47.55859375 1.9921875 C-46.47921539 1.85750061 -45.39983704 1.72281372 -44.28775024 1.58404541 C-39.79886052 1.0203138 -35.31095447 0.4493437 -30.82397461 -0.12939453 C-27.50730175 -0.55518844 -24.18936244 -0.96966722 -20.87109375 -1.3828125 C-19.86372665 -1.51607941 -18.85635956 -1.64934631 -17.81846619 -1.78665161 C-11.42499834 -2.57481254 -5.81883077 -3.23268376 0 0 Z " fill="#FED565" transform="translate(365.8125,104.5625)"/>
<path d="M0 0 C-3.64418341 2.42945561 -4.92923364 2.0828781 -9.1875 1.625 C-10.27417969 1.51414062 -11.36085938 1.40328125 -12.48046875 1.2890625 C-13.31191406 1.19367188 -14.14335937 1.09828125 -15 1 C-15 0.67 -15 0.34 -15 0 C-9.62374766 -0.84888195 -5.34629602 -1.0024305 0 0 Z " fill="#F4CD5F" transform="translate(363,103)"/>
<path d="M0 0 C0.33 0 0.66 0 1 0 C1 2.64 1 5.28 1 8 C0.67 8 0.34 8 0 8 C0 5.36 0 2.72 0 0 Z " fill="#FED765" transform="translate(112,377)"/>
<path d="M0 0 C0.33 0 0.66 0 1 0 C1 2.31 1 4.62 1 7 C0.67 7 0.34 7 0 7 C0 4.69 0 2.38 0 0 Z " fill="#FED765" transform="translate(303,417)"/>
<path d="M0 0 C0.33 0 0.66 0 1 0 C1 1.98 1 3.96 1 6 C0.67 6 0.34 6 0 6 C0 4.02 0 2.04 0 0 Z " fill="#FFD866" transform="translate(47,410)"/>
<path d="M0 0 C0.33 0 0.66 0 1 0 C1 1.98 1 3.96 1 6 C0.67 6 0.34 6 0 6 C0 4.02 0 2.04 0 0 Z " fill="#FED766" transform="translate(303,329)"/>
<path d="M0 0 C0.33 0 0.66 0 1 0 C1 1.65 1 3.3 1 5 C0.67 5 0.34 5 0 5 C0 3.35 0 1.7 0 0 Z " fill="#FFD865" transform="translate(303,380)"/>
<path d="M0 0 C1.65 0 3.3 0 5 0 C5 0.33 5 0.66 5 1 C3.35 1 1.7 1 0 1 C0 0.67 0 0.34 0 0 Z " fill="#FFD864" transform="translate(161,335)"/>
<path d="M0 0 C0.33 0 0.66 0 1 0 C1 1.65 1 3.3 1 5 C0.67 5 0.34 5 0 5 C0 3.35 0 1.7 0 0 Z " fill="#FED867" transform="translate(316,322)"/>
<path d="M0 0 C0.33 0 0.66 0 1 0 C1 1.65 1 3.3 1 5 C0.67 5 0.34 5 0 5 C0 3.35 0 1.7 0 0 Z " fill="#FED865" transform="translate(316,316)"/>
<path d="M0 0 C0.33 0 0.66 0 1 0 C1 1.65 1 3.3 1 5 C0.67 5 0.34 5 0 5 C0 3.35 0 1.7 0 0 Z " fill="#FED865" transform="translate(303,281)"/>
<path d="M0 0 C1 4 1 4 1 4 Z " fill="#FED764" transform="translate(47,418)"/>
<path d="M0 0 C1 4 1 4 1 4 Z " fill="#FED664" transform="translate(112,400)"/>
<path d="M0 0 C0.99 0.495 0.99 0.495 2 1 C1.34 1.66 0.68 2.32 0 3 C0 2.01 0 1.02 0 0 Z " fill="#FFD966" transform="translate(47,381)"/>
<path d="M0 0 C1 4 1 4 1 4 Z " fill="#FED765" transform="translate(112,362)"/>
<path d="M0 0 C1 4 1 4 1 4 Z " fill="#FED764" transform="translate(303,345)"/>
<path d="M0 0 C4 1 4 1 4 1 Z " fill="#FED664" transform="translate(149,335)"/>
<path d="M0 0 C4 1 4 1 4 1 Z " fill="#FDD865" transform="translate(142,335)"/>
<path d="M0 0 C1 4 1 4 1 4 Z " fill="#FDD764" transform="translate(303,313)"/>
<path d="M0 0 C1 4 1 4 1 4 Z " fill="#FED765" transform="translate(316,308)"/>
<path d="M0 0 C1 4 1 4 1 4 Z " fill="#FED866" transform="translate(316,268)"/>
<path d="M0 0 C3 1 3 1 3 1 Z " fill="#FFD864" transform="translate(210,424)"/>
<path d="" fill="#FED664" transform="translate(0,0)"/>
<path d="" fill="#FED865" transform="translate(0,0)"/>
<path d="" fill="#FFD765" transform="translate(0,0)"/>
<path d="" fill="#FED763" transform="translate(0,0)"/>
<path d="" fill="#FED866" transform="translate(0,0)"/>
<path d="" fill="#FFD764" transform="translate(0,0)"/>
<path d="" fill="#FFD966" transform="translate(0,0)"/>
<path d="" fill="#FDD566" transform="translate(0,0)"/>
<path d="" fill="#FFD765" transform="translate(0,0)"/>
<path d="" fill="#FFD865" transform="translate(0,0)"/>
<path d="" fill="#FED765" transform="translate(0,0)"/>
<path d="" fill="#FEDA66" transform="translate(0,0)"/>
<path d="" fill="#FED665" transform="translate(0,0)"/>
<path d="M0 0 C0.33 0.66 0.66 1.32 1 2 C0.34 1.67 -0.32 1.34 -1 1 C-0.67 0.67 -0.34 0.34 0 0 Z " fill="#FED665" transform="translate(381,341)"/>
<path d="M0 0 C0.66 0 1.32 0 2 0 C1.67 0.66 1.34 1.32 1 2 C0.67 1.34 0.34 0.68 0 0 Z " fill="#FDD865" transform="translate(176,341)"/>
<path d="M0 0 C3 1 3 1 3 1 Z " fill="#FED864" transform="translate(155,335)"/>
<path d="M0 0 C3 1 3 1 3 1 Z " fill="#FFD965" transform="translate(246,291)"/>
<path d="" fill="#FED764" transform="translate(0,0)"/>
<path d="" fill="#FED866" transform="translate(0,0)"/>
<path d="" fill="#FDD765" transform="translate(0,0)"/>
<path d="M0 0 C2 1 2 1 2 1 Z " fill="#FEDA68" transform="translate(342,424)"/>
<path d="M0 0 C2 1 2 1 2 1 Z " fill="#FFD867" transform="translate(314,424)"/>
<path d="M0 0 C2 1 2 1 2 1 Z " fill="#FED563" transform="translate(64,424)"/>
<path d="" fill="#FFD966" transform="translate(0,0)"/>
<path d="M0 0 C2 1 2 1 2 1 Z " fill="#FFD766" transform="translate(76,420)"/>
<path d="" fill="#FFD766" transform="translate(0,0)"/>
<path d="" fill="#FED765" transform="translate(0,0)"/>
<path d="" fill="#FED765" transform="translate(0,0)"/>
<path d="" fill="#FFD865" transform="translate(0,0)"/>
<path d="" fill="#FDD765" transform="translate(0,0)"/>
<path d="M0 0 C2 1 2 1 2 1 Z " fill="#F7D063" transform="translate(405,383)"/>
<path d="" fill="#FEDA66" transform="translate(0,0)"/>
<path d="" fill="#FED565" transform="translate(0,0)"/>
<path d="" fill="#FED964" transform="translate(0,0)"/>
<path d="" fill="#FED866" transform="translate(0,0)"/>
<path d="" fill="#FFD865" transform="translate(0,0)"/>
<path d="" fill="#FFDA66" transform="translate(0,0)"/>
<path d="M0 0 C2 1 2 1 2 1 Z " fill="#FBD364" transform="translate(32,357)"/>
<path d="M0 0 C2 1 2 1 2 1 Z " fill="#FED565" transform="translate(70,356)"/>
<path d="" fill="#FFD865" transform="translate(0,0)"/>
<path d="M0 0 C2 1 2 1 2 1 Z " fill="#FFD965" transform="translate(237,351)"/>
<path d="" fill="#FFD666" transform="translate(0,0)"/>
<path d="" fill="#FED765" transform="translate(0,0)"/>
<path d="M0 0 C2 1 2 1 2 1 Z " fill="#FED964" transform="translate(167,335)"/>
<path d="" fill="#FFD965" transform="translate(0,0)"/>
<path d="" fill="#FFD864" transform="translate(0,0)"/>
<path d="" fill="#FDD766" transform="translate(0,0)"/>
<path d="" fill="#FFD863" transform="translate(0,0)"/>
<path d="" fill="#FFD966" transform="translate(0,0)"/>
<path d="M0 0 C2 1 2 1 2 1 Z " fill="#FBD363" transform="translate(87,307)"/>
<path d="" fill="#FED865" transform="translate(0,0)"/>
<path d="" fill="#FFD866" transform="translate(0,0)"/>
<path d="" fill="#FFD665" transform="translate(0,0)"/>
<path d="" fill="#FFD864" transform="translate(0,0)"/>
<path d="M0 0 C2 1 2 1 2 1 Z " fill="#FFD865" transform="translate(262,291)"/>
<path d="M0 0 C2 1 2 1 2 1 Z " fill="#FED865" transform="translate(255,291)"/>
<path d="" fill="#FFD865" transform="translate(0,0)"/>
<path d="" fill="#FFD866" transform="translate(0,0)"/>
<path d="M0 0 C2 1 2 1 2 1 Z " fill="#FED866" transform="translate(239,267)"/>
<path d="" fill="#FFD866" transform="translate(0,0)"/>
<path d="M0 0 C2 1 2 1 2 1 Z " fill="#FFD864" transform="translate(231,239)"/>
<path d="" fill="#FDD767" transform="translate(0,0)"/>
<path d="M0 0 C2 1 2 1 2 1 Z " fill="#F7CC5F" transform="translate(282,132)"/>
<path d="M0 0 C2 1 2 1 2 1 Z " fill="#F4CE61" transform="translate(328,104)"/>
<path d="" fill="#F1C95B" transform="translate(0,0)"/>
<path d="" fill="#F1C95D" transform="translate(0,0)"/>
<path d="" fill="#F5CC5F" transform="translate(0,0)"/>
<path d="" fill="#F5CB5C" transform="translate(0,0)"/>
<path d="" fill="#FFDA66" transform="translate(0,0)"/>
<path d="" fill="#FDDA65" transform="translate(0,0)"/>
<path d="" fill="#FFDA66" transform="translate(0,0)"/>
<path d="" fill="#FFD867" transform="translate(0,0)"/>
<path d="" fill="#FED663" transform="translate(0,0)"/>
<path d="" fill="#FFD864" transform="translate(0,0)"/>
<path d="" fill="#FFD865" transform="translate(0,0)"/>
<path d="" fill="#FFD864" transform="translate(0,0)"/>
<path d="" fill="#FFD868" transform="translate(0,0)"/>
<path d="" fill="#FDD967" transform="translate(0,0)"/>
<path d="" fill="#FED863" transform="translate(0,0)"/>
<path d="" fill="#FCD867" transform="translate(0,0)"/>
<path d="" fill="#FFD863" transform="translate(0,0)"/>
<path d="" fill="#FFD767" transform="translate(0,0)"/>
<path d="" fill="#FFD868" transform="translate(0,0)"/>
<path d="" fill="#FFD763" transform="translate(0,0)"/>
<path d="" fill="#FFD765" transform="translate(0,0)"/>
<path d="" fill="#FED664" transform="translate(0,0)"/>
<path d="" fill="#FFD765" transform="translate(0,0)"/>
<path d="" fill="#FFD965" transform="translate(0,0)"/>
<path d="" fill="#FFD664" transform="translate(0,0)"/>
<path d="" fill="#FED866" transform="translate(0,0)"/>
<path d="" fill="#FDD765" transform="translate(0,0)"/>
<path d="" fill="#FFDA67" transform="translate(0,0)"/>
<path d="" fill="#FFD868" transform="translate(0,0)"/>
<path d="" fill="#FBD464" transform="translate(0,0)"/>
<path d="" fill="#FFD765" transform="translate(0,0)"/>
<path d="" fill="#FFD566" transform="translate(0,0)"/>
<path d="" fill="#FFDA67" transform="translate(0,0)"/>
<path d="" fill="#FDD865" transform="translate(0,0)"/>
<path d="" fill="#FED765" transform="translate(0,0)"/>
<path d="" fill="#FFD965" transform="translate(0,0)"/>
<path d="" fill="#FED864" transform="translate(0,0)"/>
<path d="" fill="#FED967" transform="translate(0,0)"/>
<path d="" fill="#FFD967" transform="translate(0,0)"/>
<path d="" fill="#FFD966" transform="translate(0,0)"/>
<path d="" fill="#FFDA65" transform="translate(0,0)"/>
<path d="" fill="#FFD867" transform="translate(0,0)"/>
<path d="" fill="#FFD666" transform="translate(0,0)"/>
<path d="" fill="#FFD965" transform="translate(0,0)"/>
<path d="" fill="#F8D163" transform="translate(0,0)"/>
<path d="" fill="#FFD966" transform="translate(0,0)"/>
<path d="" fill="#FFDA66" transform="translate(0,0)"/>
<path d="" fill="#FED463" transform="translate(0,0)"/>
<path d="" fill="#FED665" transform="translate(0,0)"/>
<path d="" fill="#FED766" transform="translate(0,0)"/>
<path d="" fill="#FFD966" transform="translate(0,0)"/>
<path d="" fill="#FFD765" transform="translate(0,0)"/>
<path d="" fill="#FDD766" transform="translate(0,0)"/>
<path d="" fill="#FFDA66" transform="translate(0,0)"/>
<path d="" fill="#FDD967" transform="translate(0,0)"/>
<path d="" fill="#FFD866" transform="translate(0,0)"/>
<path d="" fill="#FFDA64" transform="translate(0,0)"/>
<path d="" fill="#FFD967" transform="translate(0,0)"/>
<path d="" fill="#FFDA66" transform="translate(0,0)"/>
<path d="" fill="#FED564" transform="translate(0,0)"/>
<path d="" fill="#FFDA67" transform="translate(0,0)"/>
<path d="" fill="#FFDB66" transform="translate(0,0)"/>
<path d="" fill="#FFD764" transform="translate(0,0)"/>
<path d="" fill="#FFD967" transform="translate(0,0)"/>
<path d="" fill="#FFD765" transform="translate(0,0)"/>
<path d="" fill="#FED865" transform="translate(0,0)"/>
<path d="" fill="#FFD965" transform="translate(0,0)"/>
<path d="" fill="#FFD868" transform="translate(0,0)"/>
<path d="" fill="#FFD868" transform="translate(0,0)"/>
<path d="" fill="#FFD869" transform="translate(0,0)"/>
<path d="" fill="#FFD866" transform="translate(0,0)"/>
<path d="" fill="#FFD765" transform="translate(0,0)"/>
<path d="" fill="#FFD667" transform="translate(0,0)"/>
<path d="" fill="#FFD567" transform="translate(0,0)"/>
<path d="" fill="#FFD865" transform="translate(0,0)"/>
<path d="" fill="#FFD965" transform="translate(0,0)"/>
<path d="" fill="#FDD865" transform="translate(0,0)"/>
<path d="" fill="#FEDB65" transform="translate(0,0)"/>
<path d="" fill="#FFD867" transform="translate(0,0)"/>
<path d="" fill="#FFD967" transform="translate(0,0)"/>
<path d="" fill="#FFD767" transform="translate(0,0)"/>
<path d="" fill="#FDD865" transform="translate(0,0)"/>
<path d="" fill="#FFD768" transform="translate(0,0)"/>
<path d="" fill="#FFD867" transform="translate(0,0)"/>
<path d="" fill="#FED666" transform="translate(0,0)"/>
<path d="" fill="#FEDB64" transform="translate(0,0)"/>
<path d="" fill="#FFD965" transform="translate(0,0)"/>
<path d="" fill="#FFD865" transform="translate(0,0)"/>
<path d="" fill="#FFD965" transform="translate(0,0)"/>
<path d="" fill="#FFD767" transform="translate(0,0)"/>
<path d="" fill="#FDD664" transform="translate(0,0)"/>
<path d="" fill="#FED967" transform="translate(0,0)"/>
<path d="" fill="#F9D362" transform="translate(0,0)"/>
<path d="" fill="#FED766" transform="translate(0,0)"/>
<path d="" fill="#FFD766" transform="translate(0,0)"/>
<path d="" fill="#FED966" transform="translate(0,0)"/>
<path d="" fill="#FCD666" transform="translate(0,0)"/>
<path d="" fill="#FFDB65" transform="translate(0,0)"/>
<path d="" fill="#FDD463" transform="translate(0,0)"/>
<path d="" fill="#FFD967" transform="translate(0,0)"/>
<path d="" fill="#FCD767" transform="translate(0,0)"/>
<path d="" fill="#FCD865" transform="translate(0,0)"/>
<path d="" fill="#FFD965" transform="translate(0,0)"/>
<path d="" fill="#FFD866" transform="translate(0,0)"/>
<path d="" fill="#FFD868" transform="translate(0,0)"/>
<path d="" fill="#FED866" transform="translate(0,0)"/>
<path d="" fill="#FFD567" transform="translate(0,0)"/>
<path d="" fill="#FDD665" transform="translate(0,0)"/>
<path d="" fill="#FFD966" transform="translate(0,0)"/>
<path d="" fill="#FFDA63" transform="translate(0,0)"/>
<path d="" fill="#FDD463" transform="translate(0,0)"/>
<path d="" fill="#FDD865" transform="translate(0,0)"/>
<path d="" fill="#FED466" transform="translate(0,0)"/>
<path d="" fill="#FEDB66" transform="translate(0,0)"/>
<path d="" fill="#FFD966" transform="translate(0,0)"/>
<path d="" fill="#FED562" transform="translate(0,0)"/>
<path d="" fill="#FFD663" transform="translate(0,0)"/>
<path d="" fill="#FFD965" transform="translate(0,0)"/>
<path d="" fill="#FED666" transform="translate(0,0)"/>
<path d="" fill="#FFD968" transform="translate(0,0)"/>
<path d="" fill="#FED866" transform="translate(0,0)"/>
<path d="" fill="#FED966" transform="translate(0,0)"/>
<path d="" fill="#FFD866" transform="translate(0,0)"/>
<path d="" fill="#FFD765" transform="translate(0,0)"/>
<path d="" fill="#FFD964" transform="translate(0,0)"/>
<path d="" fill="#FFD966" transform="translate(0,0)"/>
<path d="" fill="#FFD868" transform="translate(0,0)"/>
<path d="" fill="#FFDB66" transform="translate(0,0)"/>
<path d="" fill="#FDD966" transform="translate(0,0)"/>
<path d="" fill="#FED866" transform="translate(0,0)"/>
<path d="" fill="#FED566" transform="translate(0,0)"/>
<path d="" fill="#FFD965" transform="translate(0,0)"/>
<path d="" fill="#FFD667" transform="translate(0,0)"/>
<path d="" fill="#FED865" transform="translate(0,0)"/>
<path d="" fill="#FED964" transform="translate(0,0)"/>
<path d="" fill="#FFDA68" transform="translate(0,0)"/>
<path d="" fill="#FFD966" transform="translate(0,0)"/>
<path d="" fill="#FFDA65" transform="translate(0,0)"/>
<path d="" fill="#FFD965" transform="translate(0,0)"/>
<path d="" fill="#FFD965" transform="translate(0,0)"/>
<path d="" fill="#FFD865" transform="translate(0,0)"/>
<path d="" fill="#FFD967" transform="translate(0,0)"/>
<path d="" fill="#FFD965" transform="translate(0,0)"/>
<path d="" fill="#FFD764" transform="translate(0,0)"/>
<path d="" fill="#FFD867" transform="translate(0,0)"/>
<path d="" fill="#FFD766" transform="translate(0,0)"/>
<path d="" fill="#FED765" transform="translate(0,0)"/>
<path d="" fill="#FFD966" transform="translate(0,0)"/>
<path d="" fill="#FFD966" transform="translate(0,0)"/>
<path d="" fill="#FFD865" transform="translate(0,0)"/>
<path d="" fill="#F0C95D" transform="translate(0,0)"/>
<path d="" fill="#FFD967" transform="translate(0,0)"/>
<path d="" fill="#FFD767" transform="translate(0,0)"/>
<path d="" fill="#F3CA5B" transform="translate(0,0)"/>
<path d="" fill="#F2C95E" transform="translate(0,0)"/>
<path d="" fill="#F5CE63" transform="translate(0,0)"/>
<path d="" fill="#FFD764" transform="translate(0,0)"/>
<path d="" fill="#FFD966" transform="translate(0,0)"/>
<path d="" fill="#FFD863" transform="translate(0,0)"/>
<path d="" fill="#FFD964" transform="translate(0,0)"/>
<path d="" fill="#FED765" transform="translate(0,0)"/>
<path d="" fill="#FDD764" transform="translate(0,0)"/>
<path d="" fill="#FFD865" transform="translate(0,0)"/>
<path d="" fill="#FFD966" transform="translate(0,0)"/>
<path d="" fill="#FFD966" transform="translate(0,0)"/>
<path d="" fill="#FFD964" transform="translate(0,0)"/>
<path d="" fill="#FFD865" transform="translate(0,0)"/>
<path d="" fill="#FFD867" transform="translate(0,0)"/>
<path d="" fill="#FFD866" transform="translate(0,0)"/>
<path d="" fill="#FFD663" transform="translate(0,0)"/>
<path d="" fill="#FFD566" transform="translate(0,0)"/>
<path d="" fill="#FED765" transform="translate(0,0)"/>
<path d="" fill="#F6CC62" transform="translate(0,0)"/>
<path d="" fill="#FFD765" transform="translate(0,0)"/>
<path d="" fill="#FFD968" transform="translate(0,0)"/>
<path d="" fill="#FED665" transform="translate(0,0)"/>
<path d="" fill="#FFD767" transform="translate(0,0)"/>
<path d="" fill="#FED865" transform="translate(0,0)"/>
<path d="" fill="#FDD767" transform="translate(0,0)"/>
<path d="" fill="#F9D061" transform="translate(0,0)"/>
<path d="" fill="#F4CD60" transform="translate(0,0)"/>
<path d="" fill="#FED866" transform="translate(0,0)"/>
<path d="" fill="#FDD967" transform="translate(0,0)"/>
<path d="" fill="#FFD965" transform="translate(0,0)"/>
<path d="" fill="#FFD969" transform="translate(0,0)"/>
<path d="" fill="#FAD261" transform="translate(0,0)"/>
<path d="" fill="#F8CF61" transform="translate(0,0)"/>
<path d="" fill="#FED867" transform="translate(0,0)"/>
<path d="" fill="#FED768" transform="translate(0,0)"/>
<path d="" fill="#FFDA66" transform="translate(0,0)"/>
<path d="" fill="#FFD965" transform="translate(0,0)"/>
<path d="" fill="#F8D061" transform="translate(0,0)"/>
<path d="" fill="#FFD968" transform="translate(0,0)"/>
<path d="" fill="#FFD868" transform="translate(0,0)"/>
<path d="" fill="#FED666" transform="translate(0,0)"/>
<path d="" fill="#FDD862" transform="translate(0,0)"/>
<path d="" fill="#FED765" transform="translate(0,0)"/>
<path d="" fill="#FFD765" transform="translate(0,0)"/>
<path d="" fill="#FBD262" transform="translate(0,0)"/>
<path d="" fill="#FAD263" transform="translate(0,0)"/>
<path d="" fill="#F5CC5F" transform="translate(0,0)"/>
<path d="" fill="#FFD866" transform="translate(0,0)"/>
<path d="" fill="#FED764" transform="translate(0,0)"/>
<path d="" fill="#FDD665" transform="translate(0,0)"/>
<path d="" fill="#FED865" transform="translate(0,0)"/>
<path d="" fill="#FFD765" transform="translate(0,0)"/>
<path d="" fill="#F9D264" transform="translate(0,0)"/>
<path d="" fill="#FDD565" transform="translate(0,0)"/>
<path d="" fill="#947731" transform="translate(0,0)"/>
<path d="" fill="#FED868" transform="translate(0,0)"/>
<path d="" fill="#FDD665" transform="translate(0,0)"/>
<path d="" fill="#FFD866" transform="translate(0,0)"/>
<path d="" fill="#FED767" transform="translate(0,0)"/>
<path d="" fill="#FAD066" transform="translate(0,0)"/>
<path d="" fill="#FBD465" transform="translate(0,0)"/>
<path d="" fill="#FED766" transform="translate(0,0)"/>
<path d="" fill="#FDD564" transform="translate(0,0)"/>
<path d="" fill="#FCD563" transform="translate(0,0)"/>
<path d="" fill="#FBD365" transform="translate(0,0)"/>
<path d="" fill="#FFD969" transform="translate(0,0)"/>
<path d="" fill="#FED965" transform="translate(0,0)"/>
<path d="" fill="#FDD665" transform="translate(0,0)"/>
<path d="" fill="#F8D062" transform="translate(0,0)"/>
<path d="" fill="#FFD767" transform="translate(0,0)"/>
<path d="" fill="#FED667" transform="translate(0,0)"/>
<path d="" fill="#F7CE62" transform="translate(0,0)"/>
<path d="" fill="#FEDB66" transform="translate(0,0)"/>
<path d="" fill="#FDD666" transform="translate(0,0)"/>
<path d="" fill="#FFD765" transform="translate(0,0)"/>
<path d="" fill="#FFD765" transform="translate(0,0)"/>
<path d="" fill="#F9D163" transform="translate(0,0)"/>
<path d="" fill="#F9D063" transform="translate(0,0)"/>
<path d="" fill="#FAD363" transform="translate(0,0)"/>
<path d="" fill="#FDD665" transform="translate(0,0)"/>
<path d="" fill="#F1CB5E" transform="translate(0,0)"/>
<path d="" fill="#FFDA67" transform="translate(0,0)"/>
<path d="" fill="#FFDA68" transform="translate(0,0)"/>
<path d="" fill="#FEDA67" transform="translate(0,0)"/>
<path d="" fill="#EDC75E" transform="translate(0,0)"/>
<path d="" fill="#F2C85E" transform="translate(0,0)"/>
<path d="" fill="#F4CB60" transform="translate(0,0)"/>
<path d="" fill="#F0C95F" transform="translate(0,0)"/>
<path d="" fill="#E5BD5A" transform="translate(0,0)"/>
<path d="" fill="#0D0700" transform="translate(0,0)"/>
<path d="" fill="#0F0900" transform="translate(0,0)"/>
<path d="" fill="#0A0500" transform="translate(0,0)"/>
<path d="" fill="#564114" transform="translate(0,0)"/>
<path d="" fill="#997B33" transform="translate(0,0)"/>
<path d="" fill="#725921" transform="translate(0,0)"/>
<path d="" fill="#160D00" transform="translate(0,0)"/>
<path d="" fill="#0D0700" transform="translate(0,0)"/>
<path d="" fill="#553E13" transform="translate(0,0)"/>
<path d="" fill="#3C2B07" transform="translate(0,0)"/>
<path d="" fill="#080500" transform="translate(0,0)"/>
<path d="" fill="#080600" transform="translate(0,0)"/>
<path d="" fill="#7D6127" transform="translate(0,0)"/>
</svg>
