<?xml version="1.0" encoding="UTF-8"?>
<svg version="1.1" xmlns="http://www.w3.org/2000/svg" width="512" height="512">
<path d="M0 0 C3.66066445 0.12002179 6.92219169 0.2224598 10.51000977 -0.51806641 C15.07158568 -1.14797552 19.47663312 -0.99457867 24.0703125 -0.84375 C25.0289621 -0.81776733 25.98761169 -0.79178467 26.97531128 -0.76501465 C30.02539156 -0.68216123 33.0751813 -0.59195191 36.125 -0.5 C40.1482904 -0.37911775 44.17169201 -0.26552191 48.1953125 -0.15625 C49.57978073 -0.11099182 49.57978073 -0.11099182 50.99221802 -0.06481934 C52.28408524 -0.02983337 52.28408524 -0.02983337 53.60205078 0.00585938 C54.73406418 0.04036194 54.73406418 0.04036194 55.88894653 0.07556152 C58.02956396 0.07592169 58.02956396 0.07592169 60.14987183 -0.56286621 C62 -1 62 -1 64 0 C66.46309255 0.05045789 68.89801519 0.04261063 71.359375 -0.0078125 C72.88410747 -0.02536842 74.40884756 -0.04227274 75.93359375 -0.05859375 C78.32264771 -0.08919151 80.71131022 -0.12423633 83.10009766 -0.17138672 C110.36995517 -0.68094316 110.36995517 -0.68094316 120.09765625 7.99609375 C131.99257561 20.52606014 130.29238514 36.24611837 130.23046875 52.4609375 C130.22927377 54.54017101 130.22882446 56.61940507 130.2290802 58.69863892 C130.22752317 63.04066384 130.21929551 67.38260542 130.20581055 71.72460938 C130.1888435 77.25393607 130.18499622 82.7831713 130.18575573 88.31252098 C130.18548203 92.60225272 130.17996862 96.891965 130.17275429 101.18169022 C130.1696012 103.21877521 130.1676082 105.25586238 130.16686058 107.29294968 C130.14132953 140.49703192 130.14132953 140.49703192 123.375 151.6875 C116.11755605 158.75395858 108.54172001 161.05171355 98.71484375 161.71875 C96.03617684 161.83496737 96.03617684 161.83496737 94 163 C93.01 162.67 92.02 162.34 91 162 C90.278125 162.165 89.55625 162.33 88.8125 162.5 C86 163 86 163 82.66357422 162.53955078 C76.65070751 161.72857635 70.62722247 161.85724638 64.5703125 161.8671875 C63.26714081 161.86623077 61.96396912 161.86527405 60.62130737 161.86428833 C57.85934258 161.86281822 55.09741022 161.86493754 52.33544922 161.86962891 C48.88014163 161.87522584 45.42491292 161.87202995 41.96960831 161.86616135 C27.19759419 161.84526522 12.45533044 161.9991351 -2.30221558 162.73849487 C-3.30608307 162.78628082 -4.30995056 162.83406677 -5.34423828 162.88330078 C-6.22379181 162.92963654 -7.10334534 162.97597229 -8.009552 163.02371216 C-10 163 -10 163 -11 162 C-11 174.21 -11 186.42 -11 199 C-10.67 199 -10.34 199 -10 199 C-10 200.65 -10 202.3 -10 204 C-9.32284974 203.99815641 -8.64569948 203.99631283 -7.94802952 203.99441338 C8.55358157 203.95018134 25.0551738 203.91711768 41.55683041 203.89637566 C49.53701346 203.88607752 57.51715686 203.87204523 65.49731445 203.84912109 C72.45548342 203.82914235 79.41362366 203.81627294 86.37182051 203.81182301 C90.05370712 203.80922321 93.73551156 203.80314321 97.41737175 203.78853989 C101.53471343 203.77234285 105.65191364 203.77202318 109.76928711 203.77294922 C110.98057785 203.76575867 112.19186859 203.75856812 113.43986511 203.75115967 C124.97723979 203.77919441 133.16079275 205.19615444 142 213 C149.7518737 221.42201231 149.22745054 233.38596145 149.16796875 244.1640625 C149 247 149 247 148 249 C148.66 249.33 149.32 249.66 150 250 C149.34 250 148.68 250 148 250 C148.66 251.65 149.32 253.3 150 255 C149.34 255 148.68 255 148 255 C148.45822468 258.46941546 148.89131683 261.67395049 150 265 C150.93457031 264.98839844 151.86914062 264.97679687 152.83203125 264.96484375 C186.01072542 264.73692338 186.01072542 264.73692338 194 270 C194.9075 270.556875 195.815 271.11375 196.75 271.6875 C208.00435567 283.25447666 206.31536199 301.45526136 206.20581055 316.52783203 C206.18746946 319.12933157 206.18530251 321.73047342 206.18554688 324.33203125 C206.11801512 357.83830787 206.11801512 357.83830787 197.75 366.875 C190.82644822 373.20169387 183.57466289 375.14585648 174.37280273 375.19287109 C173.49109909 375.20104858 172.60939545 375.20922607 171.70097351 375.21765137 C168.77852045 375.24249212 165.85611607 375.25902162 162.93359375 375.2734375 C161.93383074 375.27876118 160.93406773 375.28408485 159.90400887 375.28956985 C154.60813285 375.31630082 149.31228036 375.33567244 144.01635742 375.35009766 C139.64277127 375.36341567 135.26965402 375.39122912 130.89624023 375.43212891 C125.6083264 375.48157866 120.32083666 375.50623445 115.03270149 375.51332474 C113.02296382 375.52001773 111.01323487 375.53518861 109.00362968 375.55921555 C87.30350182 375.80377648 87.30350182 375.80377648 78.8891449 368.05648804 C66.58973032 355.47196286 69.81342745 334.59457141 69.81469727 318.3371582 C69.81249185 315.17581069 69.79421217 312.01480266 69.77539062 308.85351562 C69.77245887 306.81250117 69.77047262 304.77148509 69.76953125 302.73046875 C69.76234573 301.80106979 69.75516022 300.87167084 69.74775696 299.91410828 C69.78356528 289.53456059 71.06491485 280.29578093 78.4140625 272.5 C86.17621479 265.52651559 93.966774 265.49378593 103.9375 265.3125 C105.17435547 265.27833984 106.41121094 265.24417969 107.68554688 265.20898438 C113.79125114 265.04908084 119.89238028 264.9617796 126 265 C126 264.34 126 263.68 126 263 C126.66 263 127.32 263 128 263 C127.93093078 258.67611417 127.84287346 254.35314852 127.73754883 250.0300293 C127.70438741 248.56073578 127.67632822 247.09131756 127.65356445 245.62182617 C127.61985481 243.50385632 127.56753567 241.38702005 127.51171875 239.26953125 C127.48553467 237.99698486 127.45935059 236.72443848 127.43237305 235.41333008 C126.97740485 231.82162463 126.21339183 229.84230041 124 227 C123.34 227 122.68 227 122 227 C122 226.34 122 225.68 122 225 C77.78 225 33.56 225 -12 225 C-12 238.53 -12 252.06 -12 266 C0.51985153 265.88160606 0.51985153 265.88160606 13.03930664 265.72973633 C14.6212503 265.72096575 16.20320079 265.71332317 17.78515625 265.70703125 C18.59142456 265.69168335 19.39769287 265.67633545 20.22839355 265.66052246 C27.88294224 265.65701388 33.65555767 267.9417249 39.359375 273.14453125 C47.96875741 282.88133279 47.15555944 295.19125582 47.16796875 307.4375 C47.17129715 308.59822021 47.17462555 309.75894043 47.17805481 310.95483398 C47.18309031 313.39534105 47.18546419 315.83585493 47.18530273 318.27636719 C47.18749354 321.98904819 47.20569747 325.70143374 47.22460938 329.4140625 C47.22754323 331.79687399 47.22952808 334.17968689 47.23046875 336.5625 C47.23765427 337.66070068 47.24483978 338.75890137 47.25224304 339.89038086 C47.21966934 350.9869782 46.19954512 359.09781364 38.6875 367.625 C32.03673185 373.50242302 25.93465772 375.1494175 17.17333984 375.17700195 C16.27052277 375.18357315 15.36770569 375.19014435 14.43753052 375.19691467 C11.445332 375.21664736 8.45318373 375.22831194 5.4609375 375.23828125 C4.43786121 375.24235678 3.41478493 375.2464323 2.36070633 375.25063133 C-3.05721586 375.2714947 -8.47511273 375.28579372 -13.89306641 375.29516602 C-19.47823132 375.30621431 -25.06299605 375.34059541 -30.64801979 375.38033772 C-34.95129109 375.40653965 -39.25446769 375.41486118 -43.55781174 375.41844749 C-45.61580474 375.42330635 -47.67379371 375.43490024 -49.73170853 375.45348549 C-52.62044776 375.47794655 -55.50816063 375.47689881 -58.39697266 375.4699707 C-59.65982086 375.48918579 -59.65982086 375.48918579 -60.94818115 375.50878906 C-68.91476356 375.43955154 -76.29726464 372.70273536 -82 367 C-89.1241872 357.69493917 -89.30884674 348.36625077 -89.30078125 337.0078125 C-89.3046774 335.65314607 -89.30901393 334.29848084 -89.31376648 332.94381714 C-89.32119381 330.11468534 -89.32096311 327.28567841 -89.31567383 324.45654297 C-89.30988629 320.8568967 -89.32680939 317.25776617 -89.3500185 313.65820503 C-89.36485438 310.86295659 -89.36561423 308.06782953 -89.36250877 305.27254868 C-89.36326179 303.30855791 -89.37705289 301.34458578 -89.39118958 299.38064575 C-89.34115631 289.62338998 -88.34366169 280.7936415 -82 273 C-76.28875667 267.41567319 -70.68266561 265.7717216 -62.87062073 265.77340698 C-61.77644081 265.78889084 -61.77644081 265.78889084 -60.66015625 265.8046875 C-59.89319931 265.8075174 -59.12624237 265.81034729 -58.33604431 265.81326294 C-55.91136379 265.82436525 -53.48706691 265.84945033 -51.0625 265.875 C-49.4082085 265.8850427 -47.75391115 265.89416628 -46.09960938 265.90234375 C-42.06626077 265.92427183 -38.0331952 265.95873157 -34 266 C-34.0309375 264.9171875 -34.0309375 264.9171875 -34.0625 263.8125 C-34 261 -34 261 -33.50390625 258.61010742 C-32.89100911 255.43545465 -32.905608 252.47111115 -32.9375 249.23828125 C-32.94523438 247.95501953 -32.95296875 246.67175781 -32.9609375 245.34960938 C-32.97337806 244.00390076 -32.98640546 242.65819745 -33 241.3125 C-33.0265579 238.66271722 -33.04648046 236.01318041 -33.0625 233.36328125 C-33.07410156 232.19063721 -33.08570313 231.01799316 -33.09765625 229.80981445 C-33 227 -33 227 -32 225 C-49.27210722 225.03715474 -66.54396628 225.09699763 -83.81589127 225.18390274 C-91.83543486 225.22372388 -99.8548799 225.25610067 -107.87451172 225.27099609 C-114.863875 225.28399676 -121.85302168 225.31092057 -128.84226298 225.35461307 C-132.54358001 225.37726391 -136.24462954 225.39290854 -139.94602203 225.39188385 C-144.07662685 225.39100108 -148.20644022 225.42120034 -152.33691406 225.45410156 C-153.56618118 225.4490712 -154.7954483 225.44404083 -156.06196594 225.43885803 C-157.18654709 225.45277084 -158.31112823 225.46668365 -159.4697876 225.48101807 C-160.93543844 225.48654882 -160.93543844 225.48654882 -162.43069839 225.49219131 C-165.74102664 226.14645994 -166.93249033 227.38375784 -169 230 C-169.70586099 232.84451191 -169.70586099 232.84451191 -169.75 236.0625 C-169.80285156 237.28582031 -169.85570312 238.50914062 -169.91015625 239.76953125 C-169.94305949 241.17962164 -169.97277826 242.58978849 -170 244 C-170.0306958 245.22662354 -170.0306958 245.22662354 -170.06201172 246.47802734 C-170.12096915 249.06874357 -170.15901695 251.65877891 -170.1875 254.25 C-170.20071289 255.084104 -170.21392578 255.91820801 -170.22753906 256.77758789 C-170.23011229 258.85310996 -170.12372281 260.9281672 -170 263 C-167.48213321 265.51786679 -165.9248665 265.24205318 -162.48983765 265.27645874 C-161.36178207 265.27496323 -161.36178207 265.27496323 -160.2109375 265.2734375 C-158.61327448 265.29374493 -157.01561829 265.31459604 -155.41796875 265.3359375 C-152.90342466 265.35843682 -150.38915147 265.37496684 -147.87451172 265.38085938 C-145.44448924 265.39045852 -143.01568351 265.4243424 -140.5859375 265.4609375 C-139.84604584 265.45589203 -139.10615417 265.45084656 -138.34384155 265.44564819 C-131.54863053 265.57193113 -126.49873756 267.90803367 -121.3125 272.25 C-115.54579287 279.10770578 -112.91601488 284.41555065 -112.79125977 293.4140625 C-112.77196915 294.71641846 -112.75267853 296.01877441 -112.73280334 297.3605957 C-112.71798854 298.78205358 -112.70421632 300.20352264 -112.69140625 301.625 C-112.68483442 302.34553558 -112.6782626 303.06607117 -112.67149162 303.80844116 C-112.6389332 307.62829627 -112.61448285 311.44812407 -112.5949707 315.26806641 C-112.57722561 318.4087864 -112.54251294 321.54859697 -112.49243164 324.68896484 C-112.43174841 328.49977956 -112.40142965 332.30975795 -112.39179802 336.12103271 C-112.38331782 337.5625788 -112.36468682 339.00410709 -112.3350544 340.44537354 C-112.14369727 350.28872996 -113.72750102 357.5295934 -119 366 C-119.66 366 -120.32 366 -121 366 C-121.33 366.99 -121.66 367.98 -122 369 C-123.9609375 370.3515625 -123.9609375 370.3515625 -126.375 371.625 C-127.16648437 372.05039062 -127.95796875 372.47578125 -128.7734375 372.9140625 C-133.4292609 375.18479742 -137.64719849 375.16724541 -142.71899414 375.19287109 C-143.61045135 375.20104858 -144.50190857 375.20922607 -145.42037964 375.21765137 C-148.37529839 375.24249315 -151.33016899 375.25902182 -154.28515625 375.2734375 C-155.29595182 375.27876118 -156.3067474 375.28408485 -157.34817314 375.28956985 C-162.70240394 375.31630116 -168.05661146 375.33567274 -173.41088867 375.35009766 C-177.83297506 375.36341622 -182.25459774 375.39123068 -186.67651367 375.43212891 C-192.02278146 375.48157427 -197.36862983 375.50623392 -202.7151165 375.51332474 C-204.74718235 375.5200184 -206.77923954 375.53519102 -208.81117439 375.55921555 C-220.82902187 375.69315602 -229.88926184 375.71190443 -239.62109375 367.89453125 C-240.22050781 367.20746094 -240.81992188 366.52039063 -241.4375 365.8125 C-242.05496094 365.13832031 -242.67242187 364.46414063 -243.30859375 363.76953125 C-248.40681315 355.42163851 -248.45561404 346.37435764 -248.43359375 336.84765625 C-248.43816865 335.49824261 -248.44347805 334.14883128 -248.44947815 332.79942322 C-248.45835556 329.98638376 -248.45604813 327.173629 -248.44604492 324.3605957 C-248.4345602 320.78559507 -248.4547852 317.21158304 -248.48396206 313.63671207 C-248.5024556 310.85426264 -248.5020058 308.07204445 -248.49632454 305.28954887 C-248.49610013 303.34054741 -248.51286981 301.3915672 -248.53013611 299.44264221 C-248.45158695 289.32624449 -246.81893328 280.00758273 -239.64453125 272.43359375 C-233.45258274 267.03586191 -227.44891655 265.87479823 -219.4609375 265.71875 C-218.37783798 265.69113586 -218.37783798 265.69113586 -217.27285767 265.66296387 C-214.19214261 265.58449341 -211.11122061 265.51640475 -208.03027344 265.44775391 C-205.77788377 265.39606749 -203.52568309 265.33882464 -201.2734375 265.28125 C-200.22499161 265.26088684 -200.22499161 265.26088684 -199.15536499 265.2401123 C-195.45325448 265.19027649 -195.45325448 265.19027649 -192 264 C-191.9906543 262.93676514 -191.98130859 261.87353027 -191.97167969 260.77807617 C-191.93141102 256.78369246 -191.86555582 252.79004952 -191.79248047 248.79614258 C-191.76448246 247.0768393 -191.74316408 245.35741237 -191.72900391 243.63793945 C-191.52997665 220.82278183 -191.52997665 220.82278183 -183.8125 212.0625 C-174.11933397 203.444056 -162.28010044 203.84538918 -150.00439453 203.95117188 C-147.67889787 203.96114192 -145.35339692 203.97015135 -143.02789307 203.97827148 C-141.85407326 203.98313568 -140.68025345 203.98799988 -139.47086334 203.99301147 C-134.17790677 204.00366875 -128.88592336 203.96023289 -123.59326172 203.90820312 C-122.56938417 203.89838661 -121.54550663 203.8885701 -120.49060249 203.87845612 C-117.3036197 203.84707442 -114.11665451 203.81419232 -110.9296875 203.78125 C-108.65756336 203.75871775 -106.38543809 203.73629991 -104.11331177 203.71398926 C-98.23147426 203.65593589 -92.34965315 203.59636508 -86.46783447 203.53643799 C-80.42648241 203.4751675 -74.38511559 203.41538766 -68.34375 203.35546875 C-56.56248529 203.23840804 -44.7812392 203.11960003 -33 203 C-33 189.47 -33 175.94 -33 162 C-36.63 162 -40.26 162 -44 162 C-45.65 161.67 -47.3 161.34 -49 161 C-49.33 161.66 -49.66 162.32 -50 163 C-50.81339844 162.9278125 -51.62679687 162.855625 -52.46484375 162.78125 C-64.74619189 161.78658513 -76.90548981 161.851466 -89.2109375 162.26171875 C-90.30987587 162.29776215 -90.30987587 162.29776215 -91.43101501 162.33453369 C-95.15470594 162.45761584 -98.8778696 162.58842106 -102.60083008 162.73193359 C-103.998204 162.78108489 -105.39558336 162.83008209 -106.79296875 162.87890625 C-108.0358667 162.9260376 -109.27876465 162.97316895 -110.55932617 163.02172852 C-113.84111055 163.00100342 -116.77785769 162.57567697 -120 162 C-121.66945579 161.93546126 -123.34118302 161.91387195 -125.01171875 161.9375 C-126.3879541 161.95067261 -126.3879541 161.95067261 -127.79199219 161.96411133 C-129.22526855 161.98187622 -129.22526855 161.98187622 -130.6875 162 C-156.17959932 162.08964346 -156.17959932 162.08964346 -165.296875 153.94921875 C-172.61297316 146.21925373 -174.44095932 138.96639866 -174.51171875 128.6015625 C-174.52976059 127.59367676 -174.54780243 126.58579102 -174.56639099 125.54736328 C-174.62132883 122.23994463 -174.65502666 118.93270963 -174.6875 115.625 C-174.71976359 113.31427939 -174.75281545 111.00356966 -174.78662109 108.69287109 C-174.88489244 101.46208018 -174.94808066 94.23125825 -175 87 C-175.00860046 85.82018555 -175.01720093 84.64037109 -175.02606201 83.42480469 C-175.08045383 75.49154535 -175.11100714 67.55842759 -175.125 59.625 C-175.12776947 58.58031555 -175.13053894 57.5356311 -175.13339233 56.45928955 C-175.20610033 19.14052859 -175.20610033 19.14052859 -167.5625 10.125 C-166.716875 9.42375 -165.87125 8.7225 -165 8 C-163.8553125 6.948125 -163.8553125 6.948125 -162.6875 5.875 C-157.03336276 1.93025309 -151.07717463 0.53846748 -144.22631836 0.31640625 C-143.46436378 0.28317764 -142.70240919 0.24994904 -141.91736507 0.2157135 C-131.35471457 -0.18443398 -120.77771889 -0.11045944 -110.20956612 -0.07516479 C-106.29432255 -0.06222035 -102.37911346 -0.05584084 -98.46385193 -0.05102539 C-90.16338555 -0.04004119 -81.86294756 -0.02047366 -73.5625 0 C-63.9098677 0.0237584 -54.25725194 0.04402717 -44.60459709 0.05593872 C-40.76319538 0.06237963 -36.92184471 0.07488073 -33.08045959 0.08764648 C-30.71322676 0.09128074 -28.34599346 0.09463226 -25.97875977 0.09765625 C-24.3973671 0.10540573 -24.3973671 0.10540573 -22.7840271 0.11331177 C-16.88741009 0.11372795 -11.13621786 -0.19158906 -5.27809048 -0.88233948 C-3 -1 -3 -1 0 0 Z M68.326828 21.00431824 C66.37125638 21.0052917 64.41568487 21.00649921 62.46011353 21.00791931 C60.9383016 21.00899091 60.9383016 21.00899091 59.385746 21.01008415 C36.47160676 21.02713007 13.55757621 21.06720943 -9.35649227 21.12685562 C-12.72927889 21.135618 -16.10206602 21.14416876 -19.47485352 21.15258789 C-20.48164962 21.15510648 -20.48164962 21.15510648 -21.50878503 21.15767596 C-32.42697288 21.18446658 -43.34510816 21.19345108 -54.26332549 21.19604143 C-65.5007957 21.19909825 -76.73811578 21.22137127 -87.97552794 21.26052457 C-94.27443146 21.28186673 -100.57307879 21.29444728 -106.87201881 21.28615379 C-112.78122805 21.27864417 -118.68991436 21.29431039 -124.59902763 21.32806015 C-126.76946089 21.33632469 -128.93994585 21.33600685 -131.11037445 21.32659721 C-134.06674475 21.3150445 -137.02138057 21.33398624 -139.97761536 21.36076355 C-141.27344857 21.34475366 -141.27344857 21.34475366 -142.59546024 21.32842034 C-147.56964117 21.41083451 -147.56964117 21.41083451 -151.52618217 24.34933186 C-153.3260337 27.58637311 -153.59509028 29.83535712 -153.73950195 33.53320312 C-153.76800641 34.17985176 -153.79651087 34.8265004 -153.8258791 35.49274445 C-153.91045344 37.66193048 -153.96000537 39.82954865 -154 42 C-154.01516537 42.76234955 -154.03033073 43.5246991 -154.04595566 44.31015015 C-154.15163851 50.36302401 -154.16557245 56.41509092 -154.16796875 62.46875 C-154.17119053 64.403524 -154.17455526 66.33829777 -154.17805481 68.27307129 C-154.18399543 72.29696214 -154.18589957 76.32083165 -154.18530273 80.34472656 C-154.18520046 85.49018622 -154.1989423 90.63550991 -154.21607494 95.78093719 C-154.22719997 99.76327136 -154.22922192 103.74557242 -154.22869301 107.72792053 C-154.2298689 109.62566097 -154.23426861 111.52340237 -154.24202538 113.42112732 C-154.25185185 116.06926089 -154.24893864 118.71709573 -154.24291992 121.36523438 C-154.24853943 122.13936676 -154.25415894 122.91349915 -154.25994873 123.71109009 C-154.22723925 129.39123051 -154.02256975 134.75546502 -150.04520702 139.16932011 C-145.68407039 141.79109429 -141.97981931 141.55171632 -136.97937012 141.50120544 C-135.96182128 141.50673984 -134.94427245 141.51227424 -133.89588881 141.51797634 C-130.48177737 141.53160378 -127.06839429 141.5166017 -123.65429688 141.50170898 C-121.20849802 141.50549138 -118.76270129 141.51099076 -116.31690979 141.51808167 C-110.36077279 141.53061122 -104.40492194 141.5244581 -98.4488126 141.50940608 C-91.5127115 141.49254478 -84.5766632 141.4957564 -77.64054793 141.49950016 C-65.26471697 141.50537875 -52.88898775 141.49120729 -40.51318359 141.46655273 C-28.50435573 141.44263194 -16.49566381 141.43554846 -4.48681641 141.44604492 C8.59004473 141.45745441 21.66684299 141.45938382 34.74370337 141.44494683 C36.13813114 141.44342099 37.53255891 141.44190063 38.92698669 141.44038582 C39.95611413 141.4392491 39.95611413 141.4392491 41.00603202 141.43808941 C45.84082793 141.43334682 50.67559576 141.43519784 55.51039124 141.43945122 C62.01764576 141.44489253 68.52473923 141.43413543 75.03196907 141.41249657 C77.42290168 141.40692318 79.81385239 141.40646842 82.2047863 141.41144943 C85.4631915 141.41738724 88.72101719 141.4049254 91.97937012 141.38768005 C93.4056771 141.39669512 93.4056771 141.39669512 94.86079836 141.40589231 C99.66242513 141.35953711 103.19968328 141.29272116 107 138 C109.35834591 131.71107757 109.18575956 125.64606422 109 119 C109 116.5207458 109.0174301 114.04134451 109.0625 111.5625 C109.11657857 108.13329646 109.11657857 108.13329646 108.4375 105.375 C108 103 108 103 108.46435547 100.93603516 C109.2131729 96.83153268 109.14259457 92.81214221 109.1328125 88.6484375 C109.13376923 87.75258942 109.13472595 86.85674133 109.13571167 85.93374634 C109.13639041 84.04599945 109.13455749 82.15825018 109.13037109 80.27050781 C109.12500594 77.37820217 109.1303329 74.48605092 109.13671875 71.59375 C109.13605816 69.75781216 109.1347774 67.92187441 109.1328125 66.0859375 C109.13584885 64.78745377 109.13584885 64.78745377 109.13894653 63.46273804 C109.13579437 62.65825226 109.13264221 61.85376648 109.12939453 61.02490234 C109.12859894 60.31828461 109.12780334 59.61166687 109.12698364 58.88363647 C109.06405181 56.77265236 109.06405181 56.77265236 108 54 C108.11532877 51.48583278 108.28523566 49.00539025 108.5 46.5 C109.51144452 34.88418136 109.51144452 34.88418136 106.4375 23.875 C101.58489536 20.1422272 94.32676128 20.88371678 88.42475891 20.9367218 C86.91850736 20.94608277 85.41225432 20.95520854 83.90600014 20.96413612 C82.71184939 20.97368714 82.71184939 20.97368714 81.49357438 20.9834311 C77.10468684 21.01259367 72.71579297 21.00552527 68.326828 21.00431824 Z M-225 288 C-227.34300347 290.93679022 -227.25724916 293.84694255 -227.2746582 297.51538086 C-227.28419022 298.62010239 -227.29372223 299.72482391 -227.30354309 300.86302185 C-227.30263168 302.05162308 -227.30172028 303.2402243 -227.30078125 304.46484375 C-227.30506638 305.69030411 -227.3093515 306.91576447 -227.31376648 308.17835999 C-227.31950931 310.76986066 -227.3200104 313.36137745 -227.31567383 315.95288086 C-227.31251495 319.91873666 -227.33597127 323.88384587 -227.36132812 327.84960938 C-227.3636012 330.36718656 -227.36430458 332.88476575 -227.36328125 335.40234375 C-227.372491 336.58892075 -227.38170074 337.77549774 -227.39118958 338.99803162 C-227.38496078 340.1059053 -227.37873199 341.21377899 -227.37231445 342.35522461 C-227.37294388 343.32689072 -227.3735733 344.29855682 -227.3742218 345.29966736 C-226.93002512 348.50492901 -225.88887645 350.39415988 -224 353 C-220.8781378 354.5609311 -217.55351592 354.16506181 -214.12548828 354.17700195 C-212.90573807 354.18685875 -212.90573807 354.18685875 -211.66134644 354.19691467 C-208.96433424 354.21666207 -206.26737773 354.22831254 -203.5703125 354.23828125 C-202.65040401 354.24235678 -201.73049553 354.2464323 -200.78271103 354.25063133 C-195.91520155 354.27149675 -191.04772032 354.28579726 -186.18017578 354.29516602 C-181.14712525 354.30624039 -176.11451563 354.34065069 -171.08162117 354.38033772 C-167.21604578 354.40645199 -163.35057635 354.41485315 -159.4849205 354.41844749 C-157.6293324 354.42332575 -155.77374941 354.43497484 -153.91824722 354.45348549 C-151.32290687 354.47777036 -148.72871939 354.47693189 -146.13330078 354.4699707 C-145.36536194 354.48278076 -144.5974231 354.49559082 -143.80621338 354.50878906 C-140.36656213 354.47512061 -138.37028226 354.26938502 -135.5541687 352.22062683 C-132.94194142 348.48822508 -132.87375386 345.34189447 -132.85473633 340.86767578 C-132.84835648 339.84626495 -132.84197662 338.82485413 -132.83540344 337.77249146 C-132.83429062 336.6745224 -132.8331778 335.57655334 -132.83203125 334.4453125 C-132.82870285 333.311008 -132.82537445 332.17670349 -132.82194519 331.00802612 C-132.81688368 328.60903326 -132.81453663 326.21003336 -132.81469727 323.81103516 C-132.81251254 320.14604046 -132.79435316 316.48134763 -132.77539062 312.81640625 C-132.77245618 310.48437603 -132.77047173 308.15234438 -132.76953125 305.8203125 C-132.75875298 304.17943161 -132.75875298 304.17943161 -132.74775696 302.50540161 C-132.60377195 294.97635489 -132.60377195 294.97635489 -135 288 C-139.53754394 286.02852858 -143.76280565 285.71249741 -148.63842773 285.74121094 C-149.37908478 285.7377063 -150.11974182 285.73420166 -150.88284302 285.73059082 C-153.31652365 285.72183187 -155.74991046 285.72760249 -158.18359375 285.734375 C-159.88460851 285.73302653 -161.5856229 285.73108447 -163.28663635 285.72857666 C-166.84648316 285.72563318 -170.40622937 285.72989751 -173.96606445 285.73925781 C-178.51655571 285.75064319 -183.06681078 285.74409377 -187.61729336 285.73211288 C-191.12870545 285.72486589 -194.64006209 285.72719538 -198.15147591 285.73236847 C-199.82871593 285.73369757 -201.50596108 285.73208331 -203.18319511 285.72740936 C-205.53299047 285.72229827 -207.88241016 285.73011856 -210.23217773 285.74121094 C-210.9175914 285.73716248 -211.60300507 285.73311401 -212.30918884 285.72894287 C-216.8421154 285.76834249 -220.7718743 286.33834954 -225 288 Z M-67 289 C-69.91969965 294.50054003 -69.3057553 300.93151946 -69.30078125 307.00390625 C-69.30506638 308.15994858 -69.3093515 309.31599091 -69.31376648 310.50706482 C-69.31949758 312.94537706 -69.32001905 315.38370638 -69.31567383 317.82202148 C-69.31250817 321.55286711 -69.33600909 325.28292387 -69.36132812 329.01367188 C-69.36360065 331.38541567 -69.36430483 333.75716159 -69.36328125 336.12890625 C-69.372491 337.2435878 -69.38170074 338.35826935 -69.39118958 339.50672913 C-69.38496078 340.54808517 -69.37873199 341.58944122 -69.37231445 342.66235352 C-69.37294388 343.57469254 -69.3735733 344.48703156 -69.3742218 345.42701721 C-68.91930606 348.55481568 -67.83436297 350.44738164 -66 353 C-62.85499002 354.57250499 -59.48721642 354.15619186 -56.03369141 354.16113281 C-55.21077103 354.16609772 -54.38785065 354.17106262 -53.53999329 354.17617798 C-50.81050793 354.19081448 -48.08108069 354.19760398 -45.3515625 354.203125 C-43.45828245 354.20887511 -41.56500242 354.21463286 -39.67172241 354.22039795 C-35.69878874 354.2309121 -31.72587532 354.23675209 -27.75292969 354.24023438 C-22.65942702 354.24572076 -17.56619145 354.26975013 -12.4727726 354.29820633 C-8.56087458 354.31681983 -4.64904107 354.32203762 -0.73710251 354.32357025 C1.14079881 354.32660009 3.0186989 354.33463976 4.89655685 354.34775543 C7.5228794 354.36478952 10.14854714 354.36294227 12.77490234 354.35644531 C13.55219193 354.3656601 14.32948151 354.37487488 15.13032532 354.3843689 C18.32394179 354.35959117 20.62009851 354.20684067 23.4515686 352.66522217 C26.27452174 349.62934719 26.13708681 346.54372094 26.17700195 342.59814453 C26.18983719 341.49334747 26.20267242 340.38855042 26.21589661 339.25027466 C26.22328354 338.05651215 26.23067047 336.86274963 26.23828125 335.6328125 C26.25038887 333.79249954 26.25038887 333.79249954 26.26274109 331.91500854 C26.27657926 329.3175396 26.2873026 326.7200525 26.29516602 324.12255859 C26.3124013 320.14776308 26.35629437 316.17379436 26.40039062 312.19921875 C26.41051552 309.67708946 26.41903225 307.15495309 26.42578125 304.6328125 C26.45204338 302.84824142 26.45204338 302.84824142 26.47883606 301.02761841 C26.52618075 294.59366027 26.52618075 294.59366027 24.09838867 288.77294922 C20.30329866 285.56644036 17.0957815 285.84596179 12.32495117 285.83886719 C11.5328978 285.83390228 10.74084442 285.82893738 9.92478943 285.82382202 C7.29750711 285.80918544 4.67028519 285.80239552 2.04296875 285.796875 C0.21934507 285.79112428 -1.60427859 285.78536653 -3.42790222 285.77960205 C-7.25540448 285.76908746 -11.08288571 285.76324796 -14.91040039 285.75976562 C-19.81323877 285.7542834 -24.71579909 285.73026314 -29.6185503 285.70179367 C-33.38723052 285.68316196 -37.15584388 285.67796138 -40.92456627 285.67642975 C-42.73186448 285.67340332 -44.53916152 285.6653751 -46.34641457 285.65224457 C-48.87674668 285.63517468 -51.40640112 285.63706661 -53.93676758 285.64355469 C-55.05523071 285.62973251 -55.05523071 285.62973251 -56.19628906 285.6156311 C-60.63475006 285.65125139 -63.48337827 286.23999244 -67 289 Z M92 290 C90.70870266 292.58259467 90.84458141 294.48805742 90.80712891 297.38012695 C90.79106598 298.50502029 90.77500305 299.62991364 90.75845337 300.78889465 C90.71408524 305.93566091 90.67249898 311.08233801 90.64990234 316.22924805 C90.63656789 318.94638779 90.60872618 321.6627756 90.56787109 324.37963867 C90.50905832 328.2908323 90.49124037 332.20166052 90.4765625 336.11328125 C90.45389313 337.32800613 90.43122375 338.54273102 90.40786743 339.79426575 C90.41071747 340.92861557 90.4135675 342.06296539 90.41650391 343.23168945 C90.40841705 344.22715286 90.4003302 345.22261627 90.39199829 346.24824524 C91.26513992 350.19999667 92.75613921 351.62143872 96 354 C98.90250552 354.48506896 101.2128859 354.66640321 104.10742188 354.61523438 C104.9096669 354.62078339 105.71191193 354.6263324 106.53846741 354.63204956 C109.18250824 354.64383195 111.8248298 354.61958635 114.46875 354.59375 C116.31050539 354.59203844 118.15226322 354.59210504 119.99401855 354.59387207 C123.85090493 354.59221963 127.70720951 354.57353578 131.56396484 354.54199219 C136.50379927 354.5023148 141.44287186 354.49794742 146.38283539 354.50545502 C150.18502766 354.50852691 153.98704917 354.4963964 157.78919983 354.47932434 C159.61042713 354.47230103 161.43167378 354.469169 163.25291443 354.47001648 C165.79982369 354.46821551 168.34582602 354.44680871 170.89257812 354.41992188 C171.64285782 354.42285248 172.39313751 354.42578308 173.16615295 354.42880249 C177.58873 354.35689171 180.52497074 353.80812738 184 351 C185.02284681 347.93145958 185.12675192 345.83971246 185.12939453 342.62646484 C185.13412277 340.97993423 185.13412277 340.97993423 185.13894653 339.30014038 C185.1369223 338.11570343 185.13489807 336.93126648 185.1328125 335.7109375 C185.13424759 333.88968857 185.13424759 333.88968857 185.13571167 332.03164673 C185.13639252 329.46445667 185.13454486 326.89726488 185.13037109 324.33007812 C185.12501232 320.38407563 185.13032409 316.43818649 185.13671875 312.4921875 C185.13605813 310.00260391 185.13477731 307.5130204 185.1328125 305.0234375 C185.13584885 303.24070938 185.13584885 303.24070938 185.13894653 301.42196655 C185.13579437 300.3305838 185.13264221 299.23920105 185.12939453 298.11474609 C185.12859894 297.14894623 185.12780334 296.18314636 185.12698364 295.18807983 C185.24464573 293.02299522 185.24464573 293.02299522 184 292 C183.773125 291.360625 183.54625 290.72125 183.3125 290.0625 C181.38866637 287.03933287 179.43133098 286.89512181 176 286 C173.34629409 285.80752277 170.79787364 285.7060842 168.14624023 285.70947266 C167.38286346 285.70275543 166.61948669 285.69603821 165.83297729 285.68911743 C163.32478221 285.67021227 160.81685552 285.66621774 158.30859375 285.6640625 C156.55794669 285.65763176 154.80730071 285.65090319 153.05665588 285.64389038 C149.39427192 285.6319381 145.73198216 285.62820768 142.06958008 285.62939453 C137.37972025 285.62959815 132.69046343 285.60224234 128.00074673 285.56785011 C124.38818082 285.54560724 120.77576099 285.5415561 117.16313362 285.54261398 C115.43398005 285.54025615 113.70482257 285.53142235 111.97573662 285.51594925 C109.55818221 285.49633186 107.14194121 285.50210856 104.72436523 285.51416016 C103.65740669 285.49730164 103.65740669 285.49730164 102.56889343 285.48010254 C97.78241746 285.54067335 95.36228678 286.61361178 92 290 Z " fill="#FED665" transform="translate(274,65)"/>
<path d="M0 0 C0.77591368 -0.00311998 1.55182736 -0.00623996 2.35125357 -0.00945449 C4.94750857 -0.01742267 7.54352908 -0.01111544 10.13978577 -0.00482178 C12.00268694 -0.00753218 13.86558704 -0.0110934 15.72848511 -0.01544189 C20.78630853 -0.02456286 25.8440504 -0.02102266 30.90187526 -0.01468372 C36.19484983 -0.00962149 41.48781739 -0.01431587 46.78079224 -0.01745605 C55.67065179 -0.02109536 64.56047813 -0.01629785 73.45033264 -0.0067749 C83.72670625 0.00410622 94.00300048 0.0005864 104.27937216 -0.01042771 C113.10243056 -0.01950558 121.92546507 -0.02078331 130.74852663 -0.01555037 C136.01809367 -0.012433 141.2876234 -0.01201491 146.55718803 -0.01862335 C151.51233444 -0.0244033 156.46737859 -0.02038795 161.42251396 -0.00883484 C163.24057343 -0.0061916 165.05864151 -0.00694762 166.87669754 -0.01136017 C169.3595647 -0.01683036 171.84210481 -0.0099636 174.32495117 0 C175.0433437 -0.00446144 175.76173623 -0.00892289 176.50189823 -0.01351953 C182.0336252 0.02949576 186.45527473 0.62306614 190.60096741 4.44146729 C192.69970793 8.07390281 192.8073825 10.11138474 192.22596741 14.25396729 C190.72596741 17.56646729 190.72596741 17.56646729 188.22596741 20.25396729 C182.77348263 21.979641 177.76463589 22.53920245 172.04647827 22.48342896 C171.2632122 22.48387652 170.47994613 22.48432408 169.67294472 22.4847852 C167.06981664 22.48374174 164.46698543 22.46827381 161.86390686 22.45269775 C159.98909148 22.44881633 158.1142742 22.44577115 156.23945618 22.4434967 C151.16324322 22.43444092 146.0871702 22.41224354 141.01101708 22.38655233 C136.77112872 22.36596953 132.53122711 22.35101448 128.29131669 22.33579266 C118.29185281 22.29947429 108.29248695 22.25164158 98.29310608 22.19732666 C87.97635622 22.14155092 77.65969761 22.10815873 67.34282714 22.08521926 C58.4805807 22.064561 49.61848241 22.02861735 40.75634164 21.98069489 C35.46504183 21.95232748 30.17389198 21.93012503 24.88251686 21.92321396 C19.91074758 21.91617481 14.93943827 21.89013033 9.96783447 21.84938622 C8.14293189 21.83766262 6.31797119 21.83273683 4.49303246 21.8350811 C2.0030015 21.83722063 -0.48565289 21.81490839 -2.97549438 21.78640747 C-3.69864434 21.79280365 -4.4217943 21.79919983 -5.1668579 21.80578983 C-9.95909445 21.71513529 -12.40589932 20.64909496 -15.77403259 17.25396729 C-17.32879949 14.14443349 -17.06047696 11.69129968 -16.77403259 8.25396729 C-15.09927201 4.96647429 -13.90369715 2.85688079 -10.61537838 1.10187149 C-7.04633435 0.03681019 -3.68832751 -0.02283477 0 0 Z " fill="#FED664" transform="translate(163.77403259277344,113.74603271484375)"/>
<path d="M0 0 C0.33 0.66 0.66 1.32 1 2 C1.53625 1.814375 2.0725 1.62875 2.625 1.4375 C5.61990614 0.88580676 8.03745829 1.39402556 11 2 C11.33 1.34 11.66 0.68 12 0 C13.0209375 0.2165625 13.0209375 0.2165625 14.0625 0.4375 C17.36273082 1.06945909 20.67144426 1.54313941 24 2 C24.33 1.34 24.66 0.68 25 0 C25 0.66 25 1.32 25 2 C25.87398437 1.83757812 26.74796875 1.67515625 27.6484375 1.5078125 C33.6046556 0.65949357 39.62248617 0.85576117 45.625 0.875 C47.44644531 0.86919922 47.44644531 0.86919922 49.3046875 0.86328125 C50.47515625 0.86457031 51.645625 0.86585938 52.8515625 0.8671875 C54.44218506 0.86887939 54.44218506 0.86887939 56.06494141 0.87060547 C58.81945072 0.99204033 61.31905845 1.3769425 64 2 C64.33 1.34 64.66 0.68 65 0 C65 0.66 65 1.32 65 2 C65.79517532 1.75552124 65.79517532 1.75552124 66.60641479 1.50610352 C69.55614543 0.88240771 72.280929 0.88826534 75.29736328 0.90234375 C76.5719339 0.90564697 77.84650452 0.9089502 79.15969849 0.91235352 C79.83772648 0.91647247 80.51575447 0.92059143 81.21432877 0.92483521 C83.34072114 0.93762273 85.467051 0.94412011 87.59347534 0.94897461 C92.10401169 0.96038757 96.61449632 0.9796425 101.125 1 C106.35877994 1.02358183 111.59253069 1.04396914 116.82635117 1.05593872 C118.92367211 1.06243299 121.0209034 1.07493843 123.11819458 1.08764648 C124.38646088 1.09094971 125.65472717 1.09425293 126.96142578 1.09765625 C128.64209641 1.10551147 128.64209641 1.10551147 130.35671997 1.11352539 C132.97793458 1.1812088 132.97793458 1.1812088 135 0 C135 0.66 135 1.32 135 2 C136.0725 2.04125 137.145 2.0825 138.25 2.125 C142 3 142 3 144.4375 5.6875 C146.42750231 9.9063049 146.70917522 12.74353338 145.3125 17.1875 C143.47410773 19.72623218 141.84808365 20.64124796 139 22 C136.0220513 22.29927918 133.25111463 22.43761409 130.27392578 22.43237305 C129.40259506 22.4425647 128.53126434 22.45275635 127.63352966 22.46325684 C124.73739203 22.49353127 121.84158833 22.50270456 118.9453125 22.51171875 C116.89027881 22.5286204 114.83525512 22.54677769 112.78024292 22.56611633 C107.33043697 22.61377241 101.88067077 22.64339193 96.4307251 22.66955566 C91.07611828 22.69862186 85.7216778 22.74581275 80.3671875 22.79101562 C70.80136788 22.86859486 61.23561894 22.92208638 51.66955948 22.95913506 C45.09180064 22.98479411 38.51423171 23.02190186 31.93657875 23.06708431 C27.59534254 23.09479566 23.25409916 23.11366257 18.91280746 23.13022804 C16.863078 23.13966066 14.81336094 23.1524818 12.76367569 23.16892052 C9.93077866 23.19091349 7.09810636 23.2001249 4.26513672 23.20629883 C3.02862429 23.22028811 3.02862429 23.22028811 1.76713181 23.23456001 C-4.38970537 23.22789527 -10.63379361 23.01127543 -15.5 18.875 C-17.47518166 15.08923515 -17.80439135 12.18283501 -17 8 C-15.42437591 4.84875182 -14.20052024 3.44055789 -10.87109375 2.21875 C-6.8854219 1.22069049 -3.97595951 0.75299452 0 2 C0 1.34 0 0.68 0 0 Z " fill="#FED665" transform="translate(164,156)"/>
<path d="M0 0 C0.33 0 0.66 0 1 0 C2.46560818 10.93971819 2.09470423 21.98954106 2 33 C1.67 33 1.34 33 1 33 C0.67 29.37 0.34 25.74 0 22 C-0.33 22 -0.66 22 -1 22 C-0.67 14.74 -0.34 7.48 0 0 Z " fill="#F6CF5F" transform="translate(402,87)"/>
<path d="M0 0 C0.33 0 0.66 0 1 0 C1 1.98 1 3.96 1 6 C0.67 6 0.34 6 0 6 C0 4.02 0 2.04 0 0 Z " fill="#FEDA69" transform="translate(400,314)"/>
<path d="M0 0 C0.33 0 0.66 0 1 0 C1 1.98 1 3.96 1 6 C0.67 6 0.34 6 0 6 C0 4.02 0 2.04 0 0 Z " fill="#FBD264" transform="translate(81,298)"/>
<path d="M0 0 C1.98 0 3.96 0 6 0 C6 0.33 6 0.66 6 1 C4.02 1 2.04 1 0 1 C0 0.67 0 0.34 0 0 Z " fill="#FED866" transform="translate(354,204)"/>
<path d="M0 0 C1.98 0 3.96 0 6 0 C6 0.33 6 0.66 6 1 C4.02 1 2.04 1 0 1 C0 0.67 0 0.34 0 0 Z " fill="#FED765" transform="translate(170,204)"/>
<path d="M0 0 C1.65 0 3.3 0 5 0 C5 0.33 5 0.66 5 1 C3.35 1 1.7 1 0 1 C0 0.67 0 0.34 0 0 Z " fill="#FED767" transform="translate(66,417)"/>
<path d="M0 0 C1.65 0 3.3 0 5 0 C5 0.33 5 0.66 5 1 C3.35 1 1.7 1 0 1 C0 0.67 0 0.34 0 0 Z " fill="#FFD866" transform="translate(196,204)"/>
<path d="M0 0 C4 1 4 1 4 1 Z " fill="#FED866" transform="translate(378,417)"/>
<path d="M0 0 C4 1 4 1 4 1 Z " fill="#FED866" transform="translate(226,417)"/>
<path d="M0 0 C1 4 1 4 1 4 Z " fill="#FED867" transform="translate(207,410)"/>
<path d="M0 0 C1.485 0.99 1.485 0.99 3 2 C2.01 2 1.02 2 0 2 C0 1.34 0 0.68 0 0 Z " fill="#FDD965" transform="translate(286,203)"/>
<path d="M0 0 C4 1 4 1 4 1 Z " fill="#FFD865" transform="translate(275,204)"/>
<path d="M0 0 C4 1 4 1 4 1 Z " fill="#FED966" transform="translate(210,204)"/>
<path d="M0 0 C4 1 4 1 4 1 Z " fill="#FED866" transform="translate(185,204)"/>
<path d="M0 0 C1 4 1 4 1 4 Z " fill="#FED867" transform="translate(145,165)"/>
<path d="M0 0 C3 1 3 1 3 1 Z " fill="#FCD565" transform="translate(429,417)"/>
<path d="M0 0 C3 1 3 1 3 1 Z " fill="#FED865" transform="translate(114,417)"/>
<path d="M0 0 C3 1 3 1 3 1 Z " fill="#FFD966" transform="translate(96,417)"/>
<path d="M0 0 C3 1 3 1 3 1 Z " fill="#FED764" transform="translate(374,291)"/>
<path d="M0 0 C3 1 3 1 3 1 Z " fill="#FFD664" transform="translate(302,291)"/>
<path d="M0 0 C3 1 3 1 3 1 Z " fill="#FED764" transform="translate(286,291)"/>
<path d="M0 0 C3 1 3 1 3 1 Z " fill="#FED664" transform="translate(141,291)"/>
<path d="M0 0 C3 1 3 1 3 1 Z " fill="#FED565" transform="translate(121,227)"/>
<path d="M0 0 C3 1 3 1 3 1 Z " fill="#FED664" transform="translate(164,204)"/>
<path d="M0 0 C3 1 3 1 3 1 Z " fill="#FFD965" transform="translate(140,204)"/>
<path d="M0 0 C2 1 2 1 2 1 Z " fill="#F5CE5F" transform="translate(42,439)"/>
<path d="M0 0 C2 1 2 1 2 1 Z " fill="#FCD664" transform="translate(438,417)"/>
<path d="M0 0 C2 1 2 1 2 1 Z " fill="#FCD664" transform="translate(434,417)"/>
<path d="M0 0 C2 1 2 1 2 1 Z " fill="#FDD765" transform="translate(426,417)"/>
<path d="M0 0 C2 1 2 1 2 1 Z " fill="#FFD765" transform="translate(282,417)"/>
<path d="M0 0 C2 1 2 1 2 1 Z " fill="#FFD965" transform="translate(266,417)"/>
<path d="M0 0 C2 1 2 1 2 1 Z " fill="#FFD865" transform="translate(263,417)"/>
<path d="M0 0 C2 1 2 1 2 1 Z " fill="#FED867" transform="translate(74,417)"/>
<path d="" fill="#FFD967" transform="translate(0,0)"/>
<path d="" fill="#FED665" transform="translate(0,0)"/>
<path d="" fill="#FFD866" transform="translate(0,0)"/>
<path d="" fill="#FED865" transform="translate(0,0)"/>
<path d="" fill="#FFD866" transform="translate(0,0)"/>
<path d="" fill="#FED765" transform="translate(0,0)"/>
<path d="" fill="#FFD967" transform="translate(0,0)"/>
<path d="" fill="#FFDA67" transform="translate(0,0)"/>
<path d="" fill="#FFD866" transform="translate(0,0)"/>
<path d="" fill="#FFD864" transform="translate(0,0)"/>
<path d="" fill="#FFD764" transform="translate(0,0)"/>
<path d="" fill="#FBD665" transform="translate(0,0)"/>
<path d="" fill="#FFD968" transform="translate(0,0)"/>
<path d="" fill="#FED765" transform="translate(0,0)"/>
<path d="" fill="#FFD867" transform="translate(0,0)"/>
<path d="M0 0 C2 1 2 1 2 1 Z " fill="#FED766" transform="translate(359,291)"/>
<path d="M0 0 C2 1 2 1 2 1 Z " fill="#FED764" transform="translate(342,291)"/>
<path d="M0 0 C2 1 2 1 2 1 Z " fill="#FED764" transform="translate(326,291)"/>
<path d="M0 0 C2 1 2 1 2 1 Z " fill="#FED665" transform="translate(308,291)"/>
<path d="M0 0 C2 1 2 1 2 1 Z " fill="#FED763" transform="translate(278,291)"/>
<path d="M0 0 C2 1 2 1 2 1 Z " fill="#FDD664" transform="translate(182,291)"/>
<path d="" fill="#FED764" transform="translate(0,0)"/>
<path d="" fill="#FED764" transform="translate(0,0)"/>
<path d="" fill="#F8CF62" transform="translate(0,0)"/>
<path d="M0 0 C2 1 2 1 2 1 Z " fill="#FFD767" transform="translate(372,204)"/>
<path d="M0 0 C2 1 2 1 2 1 Z " fill="#FFD866" transform="translate(332,204)"/>
<path d="M0 0 C2 1 2 1 2 1 Z " fill="#FED865" transform="translate(316,204)"/>
<path d="M0 0 C2 1 2 1 2 1 Z " fill="#FFD964" transform="translate(300,204)"/>
<path d="M0 0 C2 1 2 1 2 1 Z " fill="#FED865" transform="translate(268,204)"/>
<path d="M0 0 C2 1 2 1 2 1 Z " fill="#FED764" transform="translate(231,204)"/>
<path d="M0 0 C2 1 2 1 2 1 Z " fill="#FFD866" transform="translate(203,204)"/>
<path d="M0 0 C2 1 2 1 2 1 Z " fill="#FED763" transform="translate(182,204)"/>
<path d="" fill="#FFD867" transform="translate(0,0)"/>
<path d="M0 0 C2 1 2 1 2 1 Z " fill="#FFD765" transform="translate(158,204)"/>
<path d="M0 0 C2 1 2 1 2 1 Z " fill="#FFD865" transform="translate(148,204)"/>
<path d="M0 0 C2 1 2 1 2 1 Z " fill="#FFD866" transform="translate(135,204)"/>
<path d="" fill="#FDD867" transform="translate(0,0)"/>
<path d="" fill="#FDD665" transform="translate(0,0)"/>
<path d="" fill="#EDC45B" transform="translate(0,0)"/>
<path d="" fill="#CEA849" transform="translate(0,0)"/>
<path d="" fill="#F9D060" transform="translate(0,0)"/>
<path d="" fill="#FDD665" transform="translate(0,0)"/>
<path d="" fill="#FBD565" transform="translate(0,0)"/>
<path d="" fill="#F6CF60" transform="translate(0,0)"/>
<path d="" fill="#FCD663" transform="translate(0,0)"/>
<path d="" fill="#FFD965" transform="translate(0,0)"/>
<path d="" fill="#FDD765" transform="translate(0,0)"/>
<path d="" fill="#FFD664" transform="translate(0,0)"/>
<path d="" fill="#FED664" transform="translate(0,0)"/>
<path d="" fill="#FDD766" transform="translate(0,0)"/>
<path d="" fill="#FFD665" transform="translate(0,0)"/>
<path d="" fill="#FED765" transform="translate(0,0)"/>
<path d="" fill="#FCD666" transform="translate(0,0)"/>
<path d="" fill="#FCD565" transform="translate(0,0)"/>
<path d="" fill="#FDD666" transform="translate(0,0)"/>
<path d="" fill="#FED665" transform="translate(0,0)"/>
<path d="" fill="#FED765" transform="translate(0,0)"/>
<path d="" fill="#FFD665" transform="translate(0,0)"/>
<path d="" fill="#FDD566" transform="translate(0,0)"/>
<path d="" fill="#FDD865" transform="translate(0,0)"/>
<path d="" fill="#FDD866" transform="translate(0,0)"/>
<path d="" fill="#FDD868" transform="translate(0,0)"/>
<path d="" fill="#FFD766" transform="translate(0,0)"/>
<path d="" fill="#FED966" transform="translate(0,0)"/>
<path d="" fill="#FDD768" transform="translate(0,0)"/>
<path d="" fill="#FDD666" transform="translate(0,0)"/>
<path d="" fill="#FFD966" transform="translate(0,0)"/>
<path d="" fill="#FFD865" transform="translate(0,0)"/>
<path d="" fill="#FFD764" transform="translate(0,0)"/>
<path d="" fill="#FED665" transform="translate(0,0)"/>
<path d="" fill="#FFD866" transform="translate(0,0)"/>
<path d="" fill="#FFD867" transform="translate(0,0)"/>
<path d="" fill="#FED865" transform="translate(0,0)"/>
<path d="" fill="#FFDA68" transform="translate(0,0)"/>
<path d="" fill="#FFD867" transform="translate(0,0)"/>
<path d="" fill="#FBD666" transform="translate(0,0)"/>
<path d="" fill="#FFD767" transform="translate(0,0)"/>
<path d="" fill="#FFD868" transform="translate(0,0)"/>
<path d="" fill="#FFDA65" transform="translate(0,0)"/>
<path d="" fill="#FFD765" transform="translate(0,0)"/>
<path d="" fill="#FED865" transform="translate(0,0)"/>
<path d="" fill="#FED768" transform="translate(0,0)"/>
<path d="" fill="#FED766" transform="translate(0,0)"/>
<path d="" fill="#FCD566" transform="translate(0,0)"/>
<path d="" fill="#FDD667" transform="translate(0,0)"/>
<path d="" fill="#FFD868" transform="translate(0,0)"/>
<path d="" fill="#FED565" transform="translate(0,0)"/>
<path d="" fill="#F4CD61" transform="translate(0,0)"/>
<path d="" fill="#FED866" transform="translate(0,0)"/>
<path d="" fill="#FED767" transform="translate(0,0)"/>
<path d="" fill="#FED668" transform="translate(0,0)"/>
<path d="" fill="#FFDB67" transform="translate(0,0)"/>
<path d="" fill="#FFD868" transform="translate(0,0)"/>
<path d="" fill="#FFD564" transform="translate(0,0)"/>
<path d="" fill="#FDD967" transform="translate(0,0)"/>
<path d="" fill="#F6CD62" transform="translate(0,0)"/>
<path d="" fill="#F8CF64" transform="translate(0,0)"/>
<path d="" fill="#FFDA68" transform="translate(0,0)"/>
<path d="" fill="#FFD768" transform="translate(0,0)"/>
<path d="" fill="#FED965" transform="translate(0,0)"/>
<path d="" fill="#FFD665" transform="translate(0,0)"/>
<path d="" fill="#FFD868" transform="translate(0,0)"/>
<path d="" fill="#FEDB67" transform="translate(0,0)"/>
<path d="" fill="#FED866" transform="translate(0,0)"/>
<path d="" fill="#FFD767" transform="translate(0,0)"/>
<path d="" fill="#FFD668" transform="translate(0,0)"/>
<path d="" fill="#FFDB67" transform="translate(0,0)"/>
<path d="" fill="#FFD868" transform="translate(0,0)"/>
<path d="" fill="#F7D062" transform="translate(0,0)"/>
<path d="" fill="#F7D161" transform="translate(0,0)"/>
<path d="" fill="#FFD967" transform="translate(0,0)"/>
<path d="" fill="#E3BC58" transform="translate(0,0)"/>
<path d="" fill="#F5D161" transform="translate(0,0)"/>
<path d="" fill="#FFD766" transform="translate(0,0)"/>
<path d="" fill="#FFD865" transform="translate(0,0)"/>
<path d="" fill="#FFDA65" transform="translate(0,0)"/>
<path d="" fill="#FDD764" transform="translate(0,0)"/>
<path d="" fill="#F7CF63" transform="translate(0,0)"/>
<path d="" fill="#FED967" transform="translate(0,0)"/>
<path d="" fill="#F5CF61" transform="translate(0,0)"/>
<path d="" fill="#FFD966" transform="translate(0,0)"/>
<path d="" fill="#FFD767" transform="translate(0,0)"/>
<path d="" fill="#FFD768" transform="translate(0,0)"/>
<path d="" fill="#FFD967" transform="translate(0,0)"/>
<path d="" fill="#FFD966" transform="translate(0,0)"/>
<path d="" fill="#FFD866" transform="translate(0,0)"/>
<path d="" fill="#F6D063" transform="translate(0,0)"/>
<path d="" fill="#FFD866" transform="translate(0,0)"/>
<path d="" fill="#FFDA67" transform="translate(0,0)"/>
<path d="" fill="#F5CE63" transform="translate(0,0)"/>
<path d="" fill="#FFD766" transform="translate(0,0)"/>
<path d="" fill="#F6CC62" transform="translate(0,0)"/>
<path d="" fill="#FFDA66" transform="translate(0,0)"/>
<path d="" fill="#FFD868" transform="translate(0,0)"/>
<path d="" fill="#F4CE61" transform="translate(0,0)"/>
<path d="" fill="#F4CD61" transform="translate(0,0)"/>
<path d="" fill="#FED767" transform="translate(0,0)"/>
<path d="" fill="#F5D063" transform="translate(0,0)"/>
<path d="" fill="#F5CF5E" transform="translate(0,0)"/>
<path d="" fill="#FFD865" transform="translate(0,0)"/>
<path d="" fill="#FFD966" transform="translate(0,0)"/>
<path d="" fill="#FED866" transform="translate(0,0)"/>
<path d="" fill="#F3CD61" transform="translate(0,0)"/>
<path d="" fill="#FED866" transform="translate(0,0)"/>
<path d="" fill="#FED966" transform="translate(0,0)"/>
<path d="" fill="#F9D263" transform="translate(0,0)"/>
<path d="" fill="#FDD464" transform="translate(0,0)"/>
<path d="" fill="#FED867" transform="translate(0,0)"/>
<path d="" fill="#FFD865" transform="translate(0,0)"/>
<path d="" fill="#FED766" transform="translate(0,0)"/>
<path d="" fill="#FFD667" transform="translate(0,0)"/>
<path d="" fill="#FED964" transform="translate(0,0)"/>
<path d="" fill="#FFD866" transform="translate(0,0)"/>
<path d="" fill="#FCD968" transform="translate(0,0)"/>
<path d="" fill="#FED866" transform="translate(0,0)"/>
<path d="" fill="#FFD966" transform="translate(0,0)"/>
<path d="" fill="#FFD864" transform="translate(0,0)"/>
<path d="" fill="#FFD667" transform="translate(0,0)"/>
<path d="" fill="#FFD865" transform="translate(0,0)"/>
<path d="" fill="#FFD866" transform="translate(0,0)"/>
<path d="" fill="#FFD865" transform="translate(0,0)"/>
<path d="" fill="#FED866" transform="translate(0,0)"/>
<path d="" fill="#FED663" transform="translate(0,0)"/>
<path d="" fill="#FDD964" transform="translate(0,0)"/>
<path d="" fill="#FBD766" transform="translate(0,0)"/>
<path d="" fill="#FCD565" transform="translate(0,0)"/>
<path d="" fill="#F9D465" transform="translate(0,0)"/>
<path d="" fill="#F8D162" transform="translate(0,0)"/>
<path d="" fill="#FED767" transform="translate(0,0)"/>
<path d="" fill="#FFD966" transform="translate(0,0)"/>
<path d="" fill="#FFD765" transform="translate(0,0)"/>
<path d="" fill="#FAD264" transform="translate(0,0)"/>
<path d="" fill="#FFD767" transform="translate(0,0)"/>
<path d="" fill="#FFD764" transform="translate(0,0)"/>
<path d="" fill="#FFDA64" transform="translate(0,0)"/>
<path d="" fill="#FED766" transform="translate(0,0)"/>
<path d="" fill="#FFD866" transform="translate(0,0)"/>
<path d="" fill="#FFD865" transform="translate(0,0)"/>
<path d="" fill="#FFD866" transform="translate(0,0)"/>
<path d="" fill="#FFD966" transform="translate(0,0)"/>
<path d="" fill="#FDD764" transform="translate(0,0)"/>
<path d="" fill="#FED665" transform="translate(0,0)"/>
<path d="" fill="#FED865" transform="translate(0,0)"/>
<path d="" fill="#FED664" transform="translate(0,0)"/>
<path d="" fill="#FFD764" transform="translate(0,0)"/>
<path d="" fill="#FFD765" transform="translate(0,0)"/>
<path d="" fill="#FFD765" transform="translate(0,0)"/>
<path d="" fill="#FFD765" transform="translate(0,0)"/>
<path d="" fill="#FFD766" transform="translate(0,0)"/>
<path d="" fill="#FFD766" transform="translate(0,0)"/>
<path d="" fill="#FED865" transform="translate(0,0)"/>
<path d="" fill="#FFD764" transform="translate(0,0)"/>
<path d="" fill="#FFD665" transform="translate(0,0)"/>
<path d="" fill="#FED664" transform="translate(0,0)"/>
<path d="" fill="#FED765" transform="translate(0,0)"/>
<path d="" fill="#FED765" transform="translate(0,0)"/>
<path d="" fill="#FDD663" transform="translate(0,0)"/>
<path d="" fill="#FED666" transform="translate(0,0)"/>
<path d="" fill="#FFD866" transform="translate(0,0)"/>
<path d="" fill="#FED866" transform="translate(0,0)"/>
<path d="" fill="#FDD865" transform="translate(0,0)"/>
<path d="" fill="#FED663" transform="translate(0,0)"/>
<path d="" fill="#FFD666" transform="translate(0,0)"/>
<path d="" fill="#FED764" transform="translate(0,0)"/>
<path d="" fill="#FFD764" transform="translate(0,0)"/>
<path d="" fill="#FFD965" transform="translate(0,0)"/>
<path d="" fill="#FFD765" transform="translate(0,0)"/>
<path d="" fill="#FFD865" transform="translate(0,0)"/>
<path d="" fill="#FED866" transform="translate(0,0)"/>
<path d="" fill="#FFD663" transform="translate(0,0)"/>
<path d="" fill="#FFD865" transform="translate(0,0)"/>
<path d="" fill="#FFD764" transform="translate(0,0)"/>
<path d="" fill="#FFD865" transform="translate(0,0)"/>
<path d="" fill="#FDD865" transform="translate(0,0)"/>
<path d="" fill="#FDD765" transform="translate(0,0)"/>
<path d="" fill="#FDD763" transform="translate(0,0)"/>
<path d="" fill="#FFD865" transform="translate(0,0)"/>
<path d="" fill="#FFD764" transform="translate(0,0)"/>
<path d="" fill="#FED966" transform="translate(0,0)"/>
<path d="" fill="#FFD665" transform="translate(0,0)"/>
<path d="" fill="#FFD764" transform="translate(0,0)"/>
<path d="" fill="#FED766" transform="translate(0,0)"/>
<path d="" fill="#FFD765" transform="translate(0,0)"/>
<path d="" fill="#FFD766" transform="translate(0,0)"/>
<path d="" fill="#FFD665" transform="translate(0,0)"/>
<path d="" fill="#FFD864" transform="translate(0,0)"/>
<path d="" fill="#FAD160" transform="translate(0,0)"/>
<path d="" fill="#F9D462" transform="translate(0,0)"/>
<path d="" fill="#FFD765" transform="translate(0,0)"/>
<path d="" fill="#FFD867" transform="translate(0,0)"/>
<path d="" fill="#FFD765" transform="translate(0,0)"/>
<path d="" fill="#FFD965" transform="translate(0,0)"/>
<path d="" fill="#FFDA66" transform="translate(0,0)"/>
<path d="" fill="#FFDA66" transform="translate(0,0)"/>
<path d="" fill="#FFD764" transform="translate(0,0)"/>
<path d="" fill="#FFD866" transform="translate(0,0)"/>
<path d="" fill="#FFD864" transform="translate(0,0)"/>
<path d="" fill="#FFDB69" transform="translate(0,0)"/>
<path d="" fill="#FFD863" transform="translate(0,0)"/>
<path d="" fill="#FFD765" transform="translate(0,0)"/>
<path d="" fill="#FFD862" transform="translate(0,0)"/>
<path d="" fill="#FED866" transform="translate(0,0)"/>
<path d="" fill="#FEDA66" transform="translate(0,0)"/>
<path d="" fill="#FFD866" transform="translate(0,0)"/>
<path d="" fill="#FED766" transform="translate(0,0)"/>
<path d="" fill="#FDD866" transform="translate(0,0)"/>
<path d="" fill="#FBD565" transform="translate(0,0)"/>
<path d="" fill="#FFD668" transform="translate(0,0)"/>
<path d="" fill="#FFD767" transform="translate(0,0)"/>
<path d="" fill="#FED867" transform="translate(0,0)"/>
<path d="" fill="#FFD667" transform="translate(0,0)"/>
<path d="" fill="#FED565" transform="translate(0,0)"/>
<path d="" fill="#FFD765" transform="translate(0,0)"/>
<path d="" fill="#FFD864" transform="translate(0,0)"/>
<path d="" fill="#FED764" transform="translate(0,0)"/>
<path d="" fill="#FDD866" transform="translate(0,0)"/>
<path d="" fill="#FFD966" transform="translate(0,0)"/>
<path d="" fill="#FFD866" transform="translate(0,0)"/>
<path d="" fill="#FFD767" transform="translate(0,0)"/>
<path d="" fill="#FFD966" transform="translate(0,0)"/>
<path d="" fill="#FFD865" transform="translate(0,0)"/>
<path d="" fill="#FFD867" transform="translate(0,0)"/>
<path d="" fill="#FDD664" transform="translate(0,0)"/>
<path d="" fill="#FDD663" transform="translate(0,0)"/>
<path d="" fill="#FED665" transform="translate(0,0)"/>
<path d="" fill="#F5D161" transform="translate(0,0)"/>
<path d="" fill="#F8D163" transform="translate(0,0)"/>
<path d="" fill="#FFD667" transform="translate(0,0)"/>
<path d="" fill="#FED865" transform="translate(0,0)"/>
<path d="" fill="#FED965" transform="translate(0,0)"/>
<path d="" fill="#FFD866" transform="translate(0,0)"/>
<path d="" fill="#FED763" transform="translate(0,0)"/>
<path d="" fill="#FED866" transform="translate(0,0)"/>
<path d="" fill="#FFD865" transform="translate(0,0)"/>
<path d="" fill="#FED665" transform="translate(0,0)"/>
<path d="" fill="#FED864" transform="translate(0,0)"/>
<path d="" fill="#FED664" transform="translate(0,0)"/>
<path d="" fill="#FFD766" transform="translate(0,0)"/>
<path d="" fill="#FFDA65" transform="translate(0,0)"/>
<path d="" fill="#FFD766" transform="translate(0,0)"/>
<path d="" fill="#FED965" transform="translate(0,0)"/>
<path d="" fill="#FFD966" transform="translate(0,0)"/>
<path d="" fill="#FED965" transform="translate(0,0)"/>
<path d="" fill="#FFD967" transform="translate(0,0)"/>
<path d="" fill="#FDD766" transform="translate(0,0)"/>
<path d="" fill="#FFDA67" transform="translate(0,0)"/>
<path d="" fill="#FFD966" transform="translate(0,0)"/>
<path d="" fill="#FFD665" transform="translate(0,0)"/>
<path d="" fill="#FFD767" transform="translate(0,0)"/>
<path d="" fill="#FED965" transform="translate(0,0)"/>
<path d="" fill="#FFD967" transform="translate(0,0)"/>
<path d="" fill="#FFD965" transform="translate(0,0)"/>
<path d="" fill="#FED764" transform="translate(0,0)"/>
<path d="" fill="#FFD667" transform="translate(0,0)"/>
<path d="" fill="#FFDA66" transform="translate(0,0)"/>
<path d="" fill="#FED865" transform="translate(0,0)"/>
<path d="" fill="#FFD766" transform="translate(0,0)"/>
<path d="" fill="#FFD765" transform="translate(0,0)"/>
<path d="" fill="#FFD765" transform="translate(0,0)"/>
<path d="" fill="#FFD865" transform="translate(0,0)"/>
<path d="" fill="#FFD966" transform="translate(0,0)"/>
<path d="" fill="#FED665" transform="translate(0,0)"/>
<path d="" fill="#FFD866" transform="translate(0,0)"/>
<path d="" fill="#FFD565" transform="translate(0,0)"/>
<path d="" fill="#FFD868" transform="translate(0,0)"/>
<path d="" fill="#FDD765" transform="translate(0,0)"/>
<path d="" fill="#FFD766" transform="translate(0,0)"/>
<path d="" fill="#FED967" transform="translate(0,0)"/>
<path d="" fill="#FED867" transform="translate(0,0)"/>
<path d="" fill="#FDD967" transform="translate(0,0)"/>
<path d="" fill="#FFD767" transform="translate(0,0)"/>
<path d="" fill="#FFD965" transform="translate(0,0)"/>
<path d="" fill="#FFD868" transform="translate(0,0)"/>
<path d="" fill="#FFDB68" transform="translate(0,0)"/>
<path d="" fill="#FFDA66" transform="translate(0,0)"/>
<path d="" fill="#FFDB66" transform="translate(0,0)"/>
<path d="" fill="#FFDB69" transform="translate(0,0)"/>
<path d="" fill="#FFD766" transform="translate(0,0)"/>
<path d="" fill="#FDD766" transform="translate(0,0)"/>
<path d="" fill="#947730" transform="translate(0,0)"/>
<path d="" fill="#FFDB67" transform="translate(0,0)"/>
<path d="" fill="#FFD967" transform="translate(0,0)"/>
<path d="" fill="#FFDB67" transform="translate(0,0)"/>
<path d="" fill="#FFDA67" transform="translate(0,0)"/>
<path d="" fill="#FFDB69" transform="translate(0,0)"/>
<path d="" fill="#FFD865" transform="translate(0,0)"/>
<path d="" fill="#FFD967" transform="translate(0,0)"/>
<path d="" fill="#FFD865" transform="translate(0,0)"/>
<path d="" fill="#FFD764" transform="translate(0,0)"/>
<path d="" fill="#FDD768" transform="translate(0,0)"/>
<path d="" fill="#FED867" transform="translate(0,0)"/>
<path d="" fill="#FED766" transform="translate(0,0)"/>
<path d="" fill="#FED766" transform="translate(0,0)"/>
<path d="" fill="#FFD764" transform="translate(0,0)"/>
<path d="" fill="#FFD765" transform="translate(0,0)"/>
<path d="" fill="#FDD665" transform="translate(0,0)"/>
<path d="" fill="#FFD866" transform="translate(0,0)"/>
<path d="" fill="#FFD866" transform="translate(0,0)"/>
<path d="" fill="#FFDA64" transform="translate(0,0)"/>
<path d="" fill="#FFD967" transform="translate(0,0)"/>
<path d="" fill="#FED966" transform="translate(0,0)"/>
<path d="" fill="#FDD767" transform="translate(0,0)"/>
<path d="" fill="#FCD767" transform="translate(0,0)"/>
<path d="" fill="#ECC55B" transform="translate(0,0)"/>
<path d="" fill="#FED765" transform="translate(0,0)"/>
<path d="" fill="#FED665" transform="translate(0,0)"/>
<path d="" fill="#FFD765" transform="translate(0,0)"/>
<path d="" fill="#F0C85E" transform="translate(0,0)"/>
<path d="" fill="#EAC35A" transform="translate(0,0)"/>
<path d="" fill="#EDC75D" transform="translate(0,0)"/>
<path d="" fill="#F2C75D" transform="translate(0,0)"/>
<path d="" fill="#D0AB4D" transform="translate(0,0)"/>
<path d="" fill="#DAB552" transform="translate(0,0)"/>
</svg>
