<?xml version="1.0" encoding="UTF-8"?>
<svg version="1.1" xmlns="http://www.w3.org/2000/svg" width="512" height="512">
<path d="M0 0 C7.59 0 15.18 0 23 0 C23 0.66 23 1.32 23 2 C23.83917969 2.02126953 23.83917969 2.02126953 24.6953125 2.04296875 C33.22256534 2.55021691 42.48618506 4.82438212 49.54296875 9.7890625 C51.99343102 11.31424156 51.99343102 11.31424156 54.87109375 10.37109375 C56.41990234 9.69240234 56.41990234 9.69240234 58 9 C59.10472656 8.53722656 60.20945313 8.07445312 61.34765625 7.59765625 C61.94151123 7.34814209 62.53536621 7.09862793 63.1472168 6.84155273 C83.87341074 -1.58894884 105.60733798 -1.79965322 126.45288086 6.46142578 C140.21682511 12.34787024 157.92273489 23.47851379 164.21875 37.765625 C164.60546875 38.87164062 164.60546875 38.87164062 165 40 C165.66 40 166.32 40 167 40 C168.12753944 42.70730059 169.25209812 45.41577641 170.375 48.125 C170.69210937 48.88554688 171.00921875 49.64609375 171.3359375 50.4296875 C171.8 51.55117187 171.8 51.55117187 172.2734375 52.6953125 C172.58144287 53.43104492 172.88944824 54.16677734 173.20678711 54.92480469 C174 57 174 57 174.77734375 60.3359375 C176.54569831 64.18902954 179.46274619 64.9964857 183.1875 66.5 C200.94886357 74.56986758 213.22626907 90.22355449 220.0703125 108.23046875 C224.93118971 122.71098112 225.22567285 140.8361483 219 155 C216.1874797 158.30086788 214.75026983 159.78173969 210.5625 161 C206.38189691 161 204.41234859 160.40415469 201 158 C198.93345296 155.28765701 197.86032549 153.42960968 198.19921875 149.9609375 C198.71788494 147.61241698 199.34572681 145.31425775 200 143 C203.41132677 128.83508685 202.44209165 116.85720116 194.6875 104.125 C189.80298422 96.97006963 184.72028712 91.938922 177 88 C176.608125 89.093125 176.21625 90.18625 175.8125 91.3125 C169.40607831 108.23737218 161.00685117 124.28992723 143.87890625 132.23046875 C140.65809017 133.09139245 139.37090872 133.00061689 136.375 131.625 C133.52903282 129.85977985 132.17857558 128.13512715 131 125 C130.67054632 121.821061 131.00853839 119.03800804 132 116 C134.0074938 113.52880341 136.40596364 111.82200173 139 110 C144.69940495 105.72544629 147.98280219 101.46700855 151 95 C151.4640625 94.04287109 151.4640625 94.04287109 151.9375 93.06640625 C156.92947153 81.5224721 155.06920651 69.34408008 150.84765625 57.8671875 C144.23547717 43.18623338 131.64725705 32.34162272 116.984375 26.06640625 C100.15802055 20.05384766 84.58601701 20.83999006 68.3359375 27.87890625 C66.09285967 28.7966279 66.09285967 28.7966279 65 30 C64.90184451 32.08743617 64.8753545 34.17824748 64.87542725 36.26799011 C64.8740171 36.93023018 64.87260695 37.59247024 64.87115407 38.27477819 C64.86748264 40.51027342 64.87084551 42.74570595 64.87402344 44.98120117 C64.87262952 46.57750498 64.87073077 48.17380842 64.86836243 49.77011108 C64.86385583 53.21650172 64.86200913 56.66288041 64.86190033 60.10927391 C64.86076259 65.5592337 64.84794274 71.00912533 64.83233643 76.45906067 C64.82976357 77.37789211 64.82719072 78.29672355 64.8245399 79.24339837 C64.81927296 81.12278689 64.81398748 83.00217536 64.80868387 84.88156378 C64.77354623 97.57478003 64.74702084 110.26791276 64.74951172 122.96118164 C64.75110018 131.51547873 64.73506534 140.06954468 64.69880509 148.62376767 C64.68033626 153.15238039 64.67100983 157.6806072 64.68328094 162.2092495 C64.6947182 166.47183106 64.68301314 170.73372226 64.65364647 174.99621201 C64.64700562 176.55947306 64.64887327 178.1227973 64.65994453 179.68603325 C64.67382697 181.82387608 64.65691429 183.95939164 64.63250732 186.09709167 C64.63104076 187.29228015 64.6295742 188.48746862 64.6280632 189.71887493 C63.77482794 194.17634292 62.22224868 195.82633543 59 199 C54.88152769 200.27298235 52.79971384 200.29220314 48.75 198.8125 C45.98656223 196.99114329 44.6964779 195.79793445 43 193 C42.63085651 190.46193314 42.63085651 190.46193314 42.63923645 187.54571533 C42.63305046 185.88408607 42.63305046 185.88408607 42.6267395 184.18888855 C42.63752533 182.97832291 42.64831116 181.76775726 42.65942383 180.52050781 C42.65898575 179.24220596 42.65854767 177.96390411 42.65809631 176.64686584 C42.65723571 173.14502159 42.67487172 169.64348574 42.69581819 166.14171314 C42.71457427 162.48086422 42.71633458 158.82000821 42.71989441 155.15911865 C42.72921804 148.22827889 42.75383605 141.29758112 42.78394288 134.36680388 C42.81747705 126.4757084 42.83397041 118.58460613 42.84902918 110.69345713 C42.88038538 94.46222163 42.93315198 78.23112894 43 62 C42.34 61.67 41.68 61.34 41 61 C41.66 61 42.32 61 43 61 C42.9557805 56.94247958 42.88588169 52.88628418 42.79248047 48.82958984 C42.76430901 47.45048349 42.74307528 46.07121682 42.72900391 44.69189453 C42.70752455 42.70577051 42.65876868 40.72000091 42.609375 38.734375 C42.58842773 37.54038086 42.56748047 36.34638672 42.54589844 35.11621094 C41.90029211 31.4308267 40.89483293 30.28576737 38 28 C25.69647926 21.06652422 9.72567996 20.41613178 -3.67578125 23.9765625 C-13.46329257 27.29254994 -22.95396873 31.27209473 -30 39 C-30.66 39 -31.32 39 -32 39 C-32.26683594 39.57878906 -32.53367187 40.15757813 -32.80859375 40.75390625 C-34.02981457 43.05620779 -35.42945234 44.91123693 -37.0625 46.9375 C-39.42582142 50.00867614 -40.4470445 52.12931149 -41 56 C-41.474375 56.45375 -41.94875 56.9075 -42.4375 57.375 C-46.46840629 61.56714254 -46.91223223 69.34775533 -47 75 C-46.30345222 84.54528441 -43.89053184 93.7923956 -36.625 100.4375 C-30.41042812 105.13502435 -24.79062155 106.58641655 -17.06640625 106.44140625 C-12.8883551 105.83997978 -9.82618813 104.11208726 -6.18359375 102.06640625 C-4 101 -4 101 -0.6875 100.875 C2.87209536 102.36506318 4.65957406 103.92401162 7 107 C8.0625 110.4375 8.0625 110.4375 8 114 C4.13233096 120.92730394 -1.39353175 124.83264913 -9 127 C-23.39182211 129.2662028 -36.00569324 126.58999215 -48.3125 118.875 C-57.48942458 111.99230656 -65.10408603 100.28657759 -66.8125 88.8125 C-66.874375 87.884375 -66.93625 86.95625 -67 86 C-80.26986515 93.67876464 -86.84047775 102.10601316 -92.3125 116.4375 C-94.20578335 126.24815007 -94.06712215 134.82405203 -92.03051758 144.5559082 C-90.99481122 149.73096643 -90.79903063 153.81882684 -92 159 C-94.0390625 161.9140625 -94.0390625 161.9140625 -96.625 164.625 C-108.33397783 177.65876983 -112.86969622 193.22023129 -112.36328125 210.5078125 C-111.9817915 216.99175106 -110.16793273 222.89180997 -108 229 C-107.33195132 230.9995388 -106.66486945 232.99940183 -106 235 C-105.34 235 -104.68 235 -104 235 C-103.34 236.98 -102.68 238.96 -102 241 C-101.34 241 -100.68 241 -100 241 C-99.7525 240.29230469 -99.505 239.58460938 -99.25 238.85546875 C-92.51078367 223.46057144 -77.93609039 212.45056578 -64 204 C-63.13503906 203.47277344 -62.27007812 202.94554687 -61.37890625 202.40234375 C-54.09892718 198.38792022 -46.05041149 196.78787054 -38 195 C-38.33 194.34 -38.66 193.68 -39 193 C-34.17968951 195.07934962 -31.38278623 198.36454556 -29 203 C-28.55451037 206.20521112 -29.03290214 207.77634048 -30 211 C-33.13167264 215.03962686 -36.99476071 216.35837499 -41.6875 217.9375 C-61.04718169 224.90074384 -74.92425287 236.95696655 -83.875 255.625 C-87.85321828 264.15504012 -89.34196705 272.10403271 -89.25 281.5 C-89.26160156 282.68529297 -89.26160156 282.68529297 -89.2734375 283.89453125 C-89.22748 297.93454679 -84.08873979 309.66486039 -74.34765625 319.8125 C-67.68621212 326.01950285 -60.62666504 329.25881672 -52 332 C-51.70867187 331.26136719 -51.41734375 330.52273438 -51.1171875 329.76171875 C-43.89107623 311.87822955 -43.89107623 311.87822955 -38 305 C-37.34 305 -36.68 305 -36 305 C-36 304.34 -36 303.68 -36 303 C-29.92826053 297.14375024 -22.49942087 291.10575809 -13.75 290.9375 C-10.13889071 292.33270132 -8.37359184 293.94823907 -6 297 C-4.75861616 300.64656502 -4.735921 302.32210649 -6.13671875 305.91796875 C-8.28684685 309.47446994 -10.38588526 311.05610852 -13.8125 313.375 C-21.18695138 318.67427364 -27.32225733 325.15906334 -29.5546875 334.26171875 C-31.3164705 345.09513876 -30.3897608 355.18683614 -24.38671875 364.50390625 C-17.1519029 374.24123047 -8.90908899 379.21368834 3.09765625 381.62109375 C15.50921522 383.24144533 26.89012739 380.65795224 38 375 C41.09147515 374.48475414 42.98008533 374.35809566 45.67578125 376.0546875 C49.02374135 378.75542859 50.82438751 380.45461006 51.3125 384.75 C50.92053924 388.82639195 49.98276128 391.25812681 47 394 C37.66768344 399.87378577 27.00391973 403.31485028 16 404 C14.78957031 404.07927734 14.78957031 404.07927734 13.5546875 404.16015625 C-4.99867237 404.78220767 -21.13795182 397.69872281 -34.6015625 385.3671875 C-39.77801486 380.25818077 -43.65451295 374.43362894 -47 368 C-47 367.34 -47 366.68 -47 366 C-47.66 365.67 -48.32 365.34 -49 365 C-49.6328125 362.71484375 -49.6328125 362.71484375 -50.125 359.9375 C-50.29257813 359.01839844 -50.46015625 358.09929687 -50.6328125 357.15234375 C-50.75398438 356.44207031 -50.87515625 355.73179687 -51 355 C-51.80050781 354.74476563 -51.80050781 354.74476563 -52.6171875 354.484375 C-74.15799836 347.4780213 -91.7072941 337.3153381 -102.71484375 316.8046875 C-107.79412626 306.29839653 -111.38864937 295.33581753 -110.8515625 283.5703125 C-110.81675781 282.36246094 -110.78195313 281.15460938 -110.74609375 279.91015625 C-110.66558674 277.39366296 -110.56153961 274.87780898 -110.43359375 272.36328125 C-110.22001122 264.246977 -110.22001122 264.246977 -114.265625 257.5078125 C-115.5035464 256.33127046 -116.74782182 255.16135713 -118 254 C-123.50382757 246.19180172 -127.74541638 237.97023047 -131 229 C-131.26039063 228.35635498 -131.52078125 227.71270996 -131.7890625 227.04956055 C-134.16771334 220.76262291 -134.46680919 214.99281253 -134.375 208.3125 C-134.3608606 206.72356934 -134.3608606 206.72356934 -134.34643555 205.10253906 C-134.02836195 188.53229885 -129.49959211 171.81607931 -119.09375 158.57421875 C-115.44444979 154.16317299 -115.44444979 154.16317299 -113.77734375 148.84765625 C-113.97944486 147.27237502 -114.23065578 145.70304247 -114.515625 144.140625 C-117.77520153 123.00595134 -112.68508297 104.78465956 -101.16015625 87.19140625 C-94.42907578 78.06958262 -84.94506309 71.2799244 -75 66 C-74.34 66 -73.68 66 -73 66 C-72.67 65.34 -72.34 64.68 -72 64 C-70.68 64 -69.36 64 -68 64 C-67.835 62.845 -67.67 61.69 -67.5 60.5 C-64.34661778 46.44302152 -55.42416876 33.6423561 -45 24 C-44.46375 23.48179688 -43.9275 22.96359375 -43.375 22.4296875 C-31.44252105 11.34242581 -16.03058534 3.81238339 0 1 C0 0.67 0 0.34 0 0 Z " fill="#FED664" transform="translate(185,40)"/>
<path d="M0 0 C0.99 0.495 0.99 0.495 2 1 C4.10247054 1.26388443 6.2069931 1.51155075 8.3125 1.75 C12.42744764 2.37608906 14.65107424 2.76273048 18.125 5.125 C23.31577087 13.08418201 23.62022262 20.67581045 24 30 C26.53239919 31.09175879 29.07134155 32.14770037 31.625 33.1875 C32.33785156 33.49880859 33.05070313 33.81011719 33.78515625 34.13085938 C37.62766185 35.66433638 39.25365697 36.25528123 43.2890625 34.875 C45.588031 33.28493533 47.67198193 31.67444097 49.75 29.8125 C53.63019625 26.8709417 56.6390692 26.02959254 61.49609375 26.36328125 C69.47791682 28.39298041 75.43271259 36.26205906 80.93359375 41.9609375 C82.8325084 44.04538018 82.8325084 44.04538018 85 45 C85 45.66 85 46.32 85 47 C85.66 47 86.32 47 87 47 C90.15718422 50.4129063 92.87828037 54.25293429 93 59 C91.73951492 64.38570899 89.02331744 68.4708532 85.59375 72.7578125 C85.1296875 73.35335937 84.665625 73.94890625 84.1875 74.5625 C83.74792969 75.10003906 83.30835938 75.63757813 82.85546875 76.19140625 C81.62317101 78.79667498 82.19808103 80.27102066 83 83 C83.98354623 85.59909003 85.068863 88.13989985 86.16015625 90.6953125 C87 93 87 93 87 96 C89.72171438 97.36085719 92.08782141 97.22701682 95.125 97.375 C101.9273025 97.87107952 107.47416255 98.40939749 112.4375 103.5 C115.16111751 107.85778802 115.18794093 111.75479527 115.23828125 116.73828125 C115.246353 117.49666794 115.25442474 118.25505463 115.26274109 119.03642273 C115.27656182 120.6410393 115.28729296 122.24568502 115.29516602 123.8503418 C115.30668481 125.48649748 115.32713529 127.12261562 115.35668945 128.75854492 C115.39947503 131.12704919 115.41554944 133.49443795 115.42578125 135.86328125 C115.44328934 136.58848465 115.46079742 137.31368805 115.47883606 138.06086731 C115.45328427 144.09245247 113.33066418 147.49669402 109.3125 151.8125 C103.00564023 155.05115772 95.76729513 153.96675645 89 153 C88.84144531 153.60585938 88.68289063 154.21171875 88.51953125 154.8359375 C86.71359413 161.32134705 84.18759847 167.07837438 81 173 C81.66 173 82.32 173 83 173 C84.37535339 174.97133986 85.70211044 176.97681922 87 179 C87.721875 179.886875 88.44375 180.77375 89.1875 181.6875 C92.04867577 185.33796563 92.55309058 188.85093812 92.44458008 193.37109375 C90.9676285 202.10465476 81.86325156 209.57395478 75.8125 215.5 C75.01908203 216.29664063 74.22566406 217.09328125 73.40820312 217.9140625 C65.0545977 226.19051456 65.0545977 226.19051456 58.9375 226.625 C52.33140212 226.53735691 47.88507659 221.9881445 43 218 C40.26664616 215.70615103 40.26664616 215.70615103 37.640625 216.29296875 C36.76921875 216.52628906 35.8978125 216.75960937 35 217 C34.12859375 217.20238281 33.2571875 217.40476562 32.359375 217.61328125 C31.49828125 217.84402344 30.6371875 218.07476562 29.75 218.3125 C28.87859375 218.53550781 28.0071875 218.75851562 27.109375 218.98828125 C24.80565492 219.78955199 24.80565492 219.78955199 24.265625 222.04296875 C24.17796875 222.68878906 24.0903125 223.33460938 24 224 C23.67 224.33 23.34 224.66 23 225 C22.61944369 228.08966507 22.27960434 231.1757943 22.01367188 234.27734375 C21.48776545 239.01515559 20.44701345 241.69929442 17 245 C12.34085849 247.83571885 8.38904541 248.45572936 3.0390625 248.43359375 C2.289664 248.4388356 1.5402655 248.44407745 0.76815796 248.44947815 C-0.81014778 248.45587283 -2.38850134 248.45459456 -3.96679688 248.44604492 C-6.3615555 248.4375477 -8.75391476 248.4663069 -11.1484375 248.49804688 C-25.99033043 248.57191318 -25.99033043 248.57191318 -32 244 C-34.91927523 239.77208415 -35.56857219 235.67164218 -36.1875 230.625 C-36.34605469 229.37976563 -36.50460937 228.13453125 -36.66796875 226.8515625 C-36.83232422 225.44003906 -36.83232422 225.44003906 -37 224 C-37.66 224 -38.32 224 -39 224 C-39.33 223.01 -39.66 222.02 -40 221 C-42.8340412 219.47855891 -42.8340412 219.47855891 -46.25 218.25 C-47.38953125 217.80140625 -48.5290625 217.3528125 -49.703125 216.890625 C-53.15718375 215.95753804 -54.67211067 215.80953553 -58 217 C-60.65225235 218.57052873 -60.65225235 218.57052873 -63.1875 220.5 C-67.83034255 223.89686231 -70.62071822 225.6005305 -76.4296875 225.53515625 C-83.74904494 224.01121709 -89.55480539 216.83637335 -94.1328125 211.26171875 C-95.57672576 209.51271085 -97.08473419 207.81650642 -98.6171875 206.14453125 C-107.42257761 196.43108043 -107.42257761 196.43108043 -107.4453125 190.15625 C-106.30409985 184.63037821 -102.93553594 180.25558771 -99.625 175.8125 C-97.71759304 173.0896015 -97.71759304 173.0896015 -98.125 169.875 C-98.8846639 167.37896147 -99.80825152 165.30404706 -101 163 C-101 162.01 -101 161.02 -101 160 C-101.66 160 -102.32 160 -103 160 C-103.33 157.69 -103.66 155.38 -104 153 C-105.86205078 153.08701172 -105.86205078 153.08701172 -107.76171875 153.17578125 C-109.40360814 153.22269238 -111.04553832 153.26819109 -112.6875 153.3125 C-113.91243164 153.3753418 -113.91243164 153.3753418 -115.16210938 153.43945312 C-119.52544029 153.52777966 -121.39086593 153.46751241 -124.95703125 150.73046875 C-128.65023769 145.79442419 -129.29983814 142.30038522 -129.265625 136.1640625 C-129.26753845 135.40709076 -129.2694519 134.65011902 -129.27142334 133.87020874 C-129.27278186 132.27154202 -129.26910869 130.67286415 -129.26074219 129.07421875 C-129.25006741 126.64036953 -129.26063307 124.20726339 -129.2734375 121.7734375 C-129.27211526 120.21614422 -129.26955155 118.65885139 -129.265625 117.1015625 C-129.26967346 116.37949615 -129.27372192 115.65742981 -129.27789307 114.91348267 C-129.23806375 110.57087843 -128.59263785 107.03853104 -127 103 C-126.34 103 -125.68 103 -125 103 C-125 102.34 -125 101.68 -125 101 C-118.22460906 97.09112061 -110.56495747 97.88983072 -103 98 C-102.82984375 97.39414062 -102.6596875 96.78828125 -102.484375 96.1640625 C-100.68433058 89.94050468 -98.50381567 83.97357039 -96 78 C-96.71027344 77.16855469 -97.42054688 76.33710938 -98.15234375 75.48046875 C-99.08096266 74.38301003 -100.00933527 73.28534287 -100.9375 72.1875 C-101.40607422 71.64029297 -101.87464844 71.09308594 -102.35742188 70.52929688 C-106.48762051 65.6265431 -107.52570196 62.41356395 -107 56 C-105.37849141 51.42112861 -103.43241227 47.36395321 -99 45 C-98.34 45 -97.68 45 -97 45 C-97 44.34 -97 43.68 -97 43 C-96.34 43 -95.68 43 -95 43 C-94.67 42.01 -94.34 41.02 -94 40 C-93.34 40 -92.68 40 -92 40 C-92 39.34 -92 38.68 -92 38 C-89.875 35.6875 -89.875 35.6875 -87 33 C-86.0925 32.113125 -85.185 31.22625 -84.25 30.3125 C-80.24834084 27.4651656 -76.9059302 26.22496329 -72 26 C-67.91876434 27.05809813 -65.71538669 28.4073458 -62.47265625 31.09375 C-57.50532581 35.52496864 -57.50532581 35.52496864 -51.31640625 36.921875 C-48.75483295 36.12650064 -46.43896533 35.11210683 -44 34 C-41.67458892 33.30620451 -39.34237807 32.63415601 -37 32 C-36.97421875 30.96101563 -36.9484375 29.92203125 -36.921875 28.8515625 C-36.29779733 11.34376728 -36.29779733 11.34376728 -32 6 C-25.72890996 1.2194951 -19.0735093 1.51446024 -11.5 1.75 C-10.39140625 1.76804688 -9.2828125 1.78609375 -8.140625 1.8046875 C-5.42616704 1.8514885 -2.71355284 1.91703625 0 2 C0 1.34 0 0.68 0 0 Z M-16 23 C-16.41535239 26.51916756 -16.77059774 30.03606781 -17.07421875 33.56640625 C-17.5287616 38.02708944 -18.03223872 41.442706 -21 45 C-23.20703125 46.15234375 -23.20703125 46.15234375 -25.8125 46.9375 C-30.42885709 48.44964893 -34.91299931 50.14532172 -39.375 52.0625 C-40.51710938 52.54847656 -41.65921875 53.03445313 -42.8359375 53.53515625 C-45.98585752 54.92463334 -45.98585752 54.92463334 -48.7421875 56.6484375 C-51.88047972 58.52706917 -53.37547547 58.62732155 -57 58 C-61.29585718 55.6505843 -65.09148042 52.80527872 -68.75 49.5625 C-70.86546722 47.7517798 -70.86546722 47.7517798 -73.34375 48.12890625 C-76.70294857 49.23052578 -78.30542941 50.84019359 -80.75 53.375 C-81.52859375 54.16648437 -82.3071875 54.95796875 -83.109375 55.7734375 C-85.18718761 57.93990583 -85.18718761 57.93990583 -86 61 C-84.43951112 64.12097775 -82.70219441 66.76775245 -80 69 C-79.34 69 -78.68 69 -78 69 C-75.63995264 73.57259177 -75.06640477 77.985462 -76 83 C-77.26599832 86.11876553 -78.6449232 89.10673418 -80.15356445 92.11181641 C-82.93373453 97.66102196 -84.85811424 103.22446645 -86.6640625 109.171875 C-88.32342023 112.68466738 -89.42336479 113.52555038 -93 115 C-95.75710773 115.59485059 -98.50719411 115.91423964 -101.3125 116.1875 C-102.05306641 116.26935547 -102.79363281 116.35121094 -103.55664062 116.43554688 C-105.36994923 116.63442588 -107.18484969 116.81869827 -109 117 C-109.70360698 121.83664649 -110.11193107 126.11616826 -109.5625 131 C-109.46066406 131.94875 -109.35882813 132.8975 -109.25390625 133.875 C-109.12822266 134.926875 -109.12822266 134.926875 -109 136 C-108.05898437 136.03738281 -107.11796875 136.07476562 -106.1484375 136.11328125 C-104.90320313 136.17902344 -103.65796875 136.24476563 -102.375 136.3125 C-101.14523438 136.37050781 -99.91546875 136.42851562 -98.6484375 136.48828125 C-94.59472806 137.05684221 -92.32000113 137.58418912 -89 140 C-87.23025764 142.93969285 -86.05962592 146.03737251 -84.875 149.25 C-84.23092496 150.92356044 -83.58254243 152.59547002 -82.9296875 154.265625 C-82.61660645 155.07177246 -82.30352539 155.87791992 -81.98095703 156.70849609 C-81.05783976 158.864887 -80.00995272 160.80058991 -78.796875 162.8046875 C-76.2333908 167.36323114 -75.95247232 170.90979143 -77 176 C-78.64952094 179.3093837 -80.6964119 182.11911366 -83 185 C-84.0022104 186.33167267 -85.00287691 187.66451382 -86 189 C-84.66342976 191.90336311 -83.15277429 194.2102811 -81.0625 196.625 C-80.30646484 197.51058594 -80.30646484 197.51058594 -79.53515625 198.4140625 C-77.88813952 200.22771542 -77.88813952 200.22771542 -75 202 C-69.77593621 201.65743844 -66.67407416 198.71535079 -62.6953125 195.59375 C-59.22575918 193.54218804 -57.04984746 193.02107101 -53 193 C-49.76283396 194.07193368 -46.82395486 195.59957029 -43.8125 197.1875 C-37.35854327 200.44384862 -31.24639007 203.17248903 -24.25 205.05078125 C-21.32360252 206.28535519 -20.49294476 207.18099554 -19 210 C-18.23272346 212.8885056 -17.76056426 215.7971831 -17.3125 218.75 C-17.18294922 219.54277344 -17.05339844 220.33554687 -16.91992188 221.15234375 C-16.60314405 223.09994074 -16.30019783 225.04977861 -16 227 C-9.74692761 227.83288874 -4.23182639 228.03863773 2 227 C2.09796875 226.07058594 2.1959375 225.14117187 2.296875 224.18359375 C2.44640625 222.94738281 2.5959375 221.71117187 2.75 220.4375 C2.88921875 219.21933594 3.0284375 218.00117188 3.171875 216.74609375 C4.10804629 212.51124343 4.91486049 209.10044923 8 206 C11.98026388 203.76433961 16.14960627 202.23192003 20.4375 200.6875 C22.13616211 200.04458008 22.13616211 200.04458008 23.86914062 199.38867188 C25.97569352 198.59297335 28.08593738 197.80692781 30.20092773 197.03393555 C32.04165071 196.35399994 33.87046062 195.64073212 35.68432617 194.89208984 C38.74857012 193.71162096 40.72987579 193.57186653 44 194 C46.54898808 195.28315916 48.81645614 196.89190858 51.125 198.5625 C55.28761985 201.86531472 55.28761985 201.86531472 60.2734375 202.8828125 C65.20071415 200.36343575 68.41913546 196.86393701 71 192 C70.66427417 186.54003787 67.50582726 184.06563828 63.8125 180.37890625 C61.45850113 177.28928274 60.94587163 175.91979624 61 172 C62.2862029 168.22884393 63.99862611 164.6995254 65.75 161.125 C66.66386259 159.21208424 67.57536493 157.29803892 68.484375 155.3828125 C68.92080322 154.46991455 69.35723145 153.5570166 69.80688477 152.61645508 C70.88372539 150.25498567 71.82130677 147.89795345 72.69921875 145.45703125 C74.26087145 141.306693 76.03284627 138.98357687 80 137 C82.54786428 136.76811572 85.0725115 136.58133625 87.625 136.4375 C91.275625 136.2209375 91.275625 136.2209375 95 136 C95 129.73 95 123.46 95 117 C89.91595804 116.46295016 89.91595804 116.46295016 84.82910156 115.95385742 C80.66780865 115.47431296 78.13255874 114.77520374 75 112 C74.34 112 73.68 112 73 112 C72.84144531 111.33355469 72.68289063 110.66710937 72.51953125 109.98046875 C70.72901549 102.90743686 68.20453067 96.5443175 65 90 C64.68546875 89.34386719 64.3709375 88.68773437 64.046875 88.01171875 C62.80233813 85.31865993 62.80233813 85.31865993 61 83 C60.9277636 76.1375424 62.70018698 71.56489495 67.41015625 66.4765625 C70.24765223 63.51555831 70.24765223 63.51555831 70.984375 59.6484375 C69.6523109 56.06455074 67.28588509 54.08782451 64.4375 51.6875 C63.65729492 51.0059082 63.65729492 51.0059082 62.86132812 50.31054688 C61.58322934 49.19660757 60.29279345 48.09685112 59 47 C57.66144944 47.78281305 56.32926356 48.57651877 55 49.375 C54.2575 49.81585938 53.515 50.25671875 52.75 50.7109375 C52.1725 51.13632812 51.595 51.56171875 51 52 C51 52.66 51 53.32 51 54 C46.37609295 56.38653267 42.0812235 56.75908522 37 56 C34.048608 54.96186502 31.2478667 53.72585931 28.40234375 52.42578125 C23.8616336 50.52295782 19.19434853 49.19799304 14.43139648 47.96411133 C9.79309906 46.64572476 7.60800349 45.03984854 5 41 C3.47893366 37.95786733 3.62570662 34.71952428 3.4375 31.375 C3.39431641 30.66859375 3.35113281 29.9621875 3.30664062 29.234375 C3.20055249 27.48981463 3.09977111 25.74493303 3 24 C2.34 24 1.68 24 1 24 C1 23.34 1 22.68 1 22 C-1.64590014 21.97315321 -4.29153096 21.95323643 -6.9375 21.9375 C-8.06961914 21.92493164 -8.06961914 21.92493164 -9.22460938 21.91210938 C-12.91191764 21.534744 -12.91191764 21.534744 -16 23 Z " fill="#FED664" transform="translate(343,208)"/>
<path d="M0 0 C15.54772168 -0.50218739 30.17130325 4.97291771 41.7734375 15.33984375 C51.46832087 24.47856693 58.34385101 37.75917617 59.3359375 51.15234375 C59.3875 51.79042969 59.4390625 52.42851562 59.4921875 53.0859375 C60.14147738 67.83022841 54.30456915 83.104721 45.1484375 94.58984375 C36.39572864 103.5405777 26.23868639 108.67618241 14.3359375 112.15234375 C13.69785156 112.3534375 13.05976563 112.55453125 12.40234375 112.76171875 C-2.95259297 115.66435329 -17.75983638 111.50118352 -30.6640625 103.15234375 C-43.13336778 93.76553433 -50.76773639 81.4815527 -53.6640625 66.15234375 C-53.94704377 63.20826939 -53.99883861 60.2962021 -53.9765625 57.33984375 C-53.97092285 56.55013184 -53.9652832 55.76041992 -53.95947266 54.94677734 C-53.82889466 48.63378394 -53.01698716 43.05261666 -50.6640625 37.15234375 C-50.28507812 36.19199219 -49.90609375 35.23164063 -49.515625 34.2421875 C-42.81874589 19.24195251 -31.00495047 9.37240491 -15.9140625 3.27734375 C-10.50881967 1.34009456 -5.72879958 0.32759998 0 0 Z M-25.3828125 33.0703125 C-31.75414703 41.14379278 -34.60186995 49.78436135 -33.6640625 60.15234375 C-31.87865219 71.24307049 -27.5945827 79.48273748 -18.8671875 86.64453125 C-12.44590003 91.03924218 -6.35951467 92.69237548 1.3359375 92.15234375 C2.3259375 92.15234375 3.3159375 92.15234375 4.3359375 92.15234375 C14.32426113 91.79751875 21.06875934 88.9737119 28.4453125 82.20703125 C36.13185913 73.85347024 38.85385108 64.68220178 38.6484375 53.5 C37.756781 43.94812971 33.4652197 36.0110704 26.55859375 29.46875 C18.31854628 22.71157406 9.31149522 20.42338671 -1.234375 20.76953125 C-10.79839706 21.83704168 -18.95612556 25.89871412 -25.3828125 33.0703125 Z " fill="#FED664" transform="translate(333.6640625,276.84765625)"/>
<path d="M0 0 C0.33 0 0.66 0 1 0 C1 2.64 1 5.28 1 8 C0.67 8 0.34 8 0 8 C0 5.36 0 2.72 0 0 Z " fill="#FEDA65" transform="translate(226,119)"/>
<path d="M0 0 C1.65 0 3.3 0 5 0 C4.34 0.66 3.68 1.32 3 2 C2.01 1.67 1.02 1.34 0 1 C0 0.67 0 0.34 0 0 Z " fill="#FFD865" transform="translate(231,362)"/>
<path d="M0 0 C1.98 0 3.96 0 6 0 C6 0.33 6 0.66 6 1 C4.02 1 2.04 1 0 1 C0 0.67 0 0.34 0 0 Z " fill="#FEDA67" transform="translate(330,208)"/>
<path d="M0 0 C1.65 0 3.3 0 5 0 C5 0.33 5 0.66 5 1 C3.35 1 1.7 1 0 1 C0 0.67 0 0.34 0 0 Z " fill="#F5CD5F" transform="translate(400,435)"/>
<path d="M0 0 C0.33 0 0.66 0 1 0 C1 1.65 1 3.3 1 5 C0.67 5 0.34 5 0 5 C0 3.35 0 1.7 0 0 Z " fill="#FFD864" transform="translate(212,330)"/>
<path d="M0 0 C0.33 0 0.66 0 1 0 C1 1.65 1 3.3 1 5 C0.67 5 0.34 5 0 5 C0 3.35 0 1.7 0 0 Z " fill="#FFD966" transform="translate(344,235)"/>
<path d="M0 0 C0.33 0 0.66 0 1 0 C1 1.65 1 3.3 1 5 C0.67 5 0.34 5 0 5 C0 3.35 0 1.7 0 0 Z " fill="#FED965" transform="translate(226,193)"/>
<path d="M0 0 C0.33 0 0.66 0 1 0 C1 1.65 1 3.3 1 5 C0.67 5 0.34 5 0 5 C0 3.35 0 1.7 0 0 Z " fill="#FFD966" transform="translate(226,187)"/>
<path d="M0 0 C0.33 0.66 0.66 1.32 1 2 C0.01 1.67 -0.98 1.34 -2 1 C-1.34 0.67 -0.68 0.34 0 0 Z " fill="#F7CD5F" transform="translate(202,444)"/>
<path d="M0 0 C4 1 4 1 4 1 Z " fill="#FDD561" transform="translate(332,391)"/>
<path d="M0 0 C1 4 1 4 1 4 Z " fill="#FED865" transform="translate(212,340)"/>
<path d="M0 0 C1 4 1 4 1 4 Z " fill="#FED867" transform="translate(370,331)"/>
<path d="M0 0 C1 4 1 4 1 4 Z " fill="#FAD263" transform="translate(72,315)"/>
<path d="M0 0 C1 4 1 4 1 4 Z " fill="#FED966" transform="translate(367,234)"/>
<path d="M0 0 C1 4 1 4 1 4 Z " fill="#FED764" transform="translate(226,203)"/>
<path d="M0 0 C1 4 1 4 1 4 Z " fill="#FDD766" transform="translate(226,181)"/>
<path d="M0 0 C1 4 1 4 1 4 Z " fill="#FED966" transform="translate(226,171)"/>
<path d="M0 0 C3 1 3 1 3 1 Z " fill="#F7CD60" transform="translate(185,444)"/>
<path d="" fill="#FFD665" transform="translate(0,0)"/>
<path d="M0 0 C3 1 3 1 3 1 Z " fill="#FED665" transform="translate(424,325)"/>
<path d="" fill="#FFD665" transform="translate(0,0)"/>
<path d="M0 0 C0.33 0.66 0.66 1.32 1 2 C0.34 1.67 -0.32 1.34 -1 1 C-0.67 0.67 -0.34 0.34 0 0 Z " fill="#FDD864" transform="translate(263,262)"/>
<path d="" fill="#FCD365" transform="translate(0,0)"/>
<path d="M0 0 C3 1 3 1 3 1 Z " fill="#FED963" transform="translate(337,208)"/>
<path d="M0 0 C3 1 3 1 3 1 Z " fill="#FFDA66" transform="translate(321,208)"/>
<path d="" fill="#FFD967" transform="translate(0,0)"/>
<path d="" fill="#FED865" transform="translate(0,0)"/>
<path d="" fill="#FFD965" transform="translate(0,0)"/>
<path d="M0 0 C0.66 0.66 1.32 1.32 2 2 C1.34 2 0.68 2 0 2 C0 1.34 0 0.68 0 0 Z " fill="#FED865" transform="translate(139,109)"/>
<path d="M0 0 C3 1 3 1 3 1 Z " fill="#FFD866" transform="translate(203,63)"/>
<path d="M0 0 C3 1 3 1 3 1 Z " fill="#FFD767" transform="translate(275,62)"/>
<path d="M0 0 C2 1 2 1 2 1 Z " fill="#F8CF60" transform="translate(204,444)"/>
<path d="M0 0 C2 1 2 1 2 1 Z " fill="#FDD562" transform="translate(277,431)"/>
<path d="" fill="#FCD563" transform="translate(0,0)"/>
<path d="" fill="#FED764" transform="translate(0,0)"/>
<path d="" fill="#FFD664" transform="translate(0,0)"/>
<path d="M0 0 C2 1 2 1 2 1 Z " fill="#FDD564" transform="translate(360,408)"/>
<path d="M0 0 C2 1 2 1 2 1 Z " fill="#FFD665" transform="translate(234,404)"/>
<path d="" fill="#FFD765" transform="translate(0,0)"/>
<path d="" fill="#FED662" transform="translate(0,0)"/>
<path d="" fill="#FFDA66" transform="translate(0,0)"/>
<path d="" fill="#FFD967" transform="translate(0,0)"/>
<path d="M0 0 C2 1 2 1 2 1 Z " fill="#FAD661" transform="translate(216,359)"/>
<path d="" fill="#FFD968" transform="translate(0,0)"/>
<path d="" fill="#F4CD5F" transform="translate(0,0)"/>
<path d="" fill="#F5CD60" transform="translate(0,0)"/>
<path d="" fill="#FFD967" transform="translate(0,0)"/>
<path d="M0 0 C2 1 2 1 2 1 Z " fill="#F6CD5E" transform="translate(459,333)"/>
<path d="M0 0 C2 1 2 1 2 1 Z " fill="#FFD966" transform="translate(237,326)"/>
<path d="" fill="#F9D263" transform="translate(0,0)"/>
<path d="" fill="#FFD864" transform="translate(0,0)"/>
<path d="" fill="#FFD966" transform="translate(0,0)"/>
<path d="" fill="#FED565" transform="translate(0,0)"/>
<path d="M0 0 C2 1 2 1 2 1 Z " fill="#FFD565" transform="translate(110,287)"/>
<path d="M0 0 C2 1 2 1 2 1 Z " fill="#FBD664" transform="translate(358,280)"/>
<path d="M0 0 C2 1 2 1 2 1 Z " fill="#FFD868" transform="translate(313,280)"/>
<path d="" fill="#FBD362" transform="translate(0,0)"/>
<path d="M0 0 C2 1 2 1 2 1 Z " fill="#FFD865" transform="translate(371,262)"/>
<path d="M0 0 C2 1 2 1 2 1 Z " fill="#FFD866" transform="translate(273,261)"/>
<path d="" fill="#FFD966" transform="translate(0,0)"/>
<path d="M0 0 C2 1 2 1 2 1 Z " fill="#FFD867" transform="translate(98,257)"/>
<path d="M0 0 C2 1 2 1 2 1 Z " fill="#FFD867" transform="translate(125,240)"/>
<path d="M0 0 C2 1 2 1 2 1 Z " fill="#FED664" transform="translate(333,231)"/>
<path d="" fill="#FFD664" transform="translate(0,0)"/>
<path d="" fill="#FFD965" transform="translate(0,0)"/>
<path d="" fill="#F7D161" transform="translate(0,0)"/>
<path d="" fill="#FED665" transform="translate(0,0)"/>
<path d="" fill="#FBD364" transform="translate(0,0)"/>
<path d="" fill="#FFD965" transform="translate(0,0)"/>
<path d="" fill="#FBD264" transform="translate(0,0)"/>
<path d="" fill="#FFD965" transform="translate(0,0)"/>
<path d="M0 0 C2 1 2 1 2 1 Z " fill="#FED865" transform="translate(168,145)"/>
<path d="" fill="#FFD766" transform="translate(0,0)"/>
<path d="" fill="#FFDA66" transform="translate(0,0)"/>
<path d="" fill="#FFDA66" transform="translate(0,0)"/>
<path d="" fill="#FFD767" transform="translate(0,0)"/>
<path d="" fill="#FAD364" transform="translate(0,0)"/>
<path d="M0 0 C2 1 2 1 2 1 Z " fill="#FCD564" transform="translate(240,48)"/>
<path d="" fill="#806424" transform="translate(0,0)"/>
<path d="" fill="#F9D05F" transform="translate(0,0)"/>
<path d="" fill="#F7D061" transform="translate(0,0)"/>
<path d="" fill="#F7CE62" transform="translate(0,0)"/>
<path d="" fill="#F8CD64" transform="translate(0,0)"/>
<path d="" fill="#F7CE61" transform="translate(0,0)"/>
<path d="" fill="#FDD564" transform="translate(0,0)"/>
<path d="" fill="#F6CF5F" transform="translate(0,0)"/>
<path d="" fill="#FAD060" transform="translate(0,0)"/>
<path d="" fill="#F1CA5D" transform="translate(0,0)"/>
<path d="" fill="#F9D060" transform="translate(0,0)"/>
<path d="" fill="#FBD462" transform="translate(0,0)"/>
<path d="" fill="#F7CF61" transform="translate(0,0)"/>
<path d="" fill="#FED464" transform="translate(0,0)"/>
<path d="" fill="#FFD665" transform="translate(0,0)"/>
<path d="" fill="#F7CE61" transform="translate(0,0)"/>
<path d="" fill="#FED766" transform="translate(0,0)"/>
<path d="" fill="#FDD765" transform="translate(0,0)"/>
<path d="" fill="#FDD666" transform="translate(0,0)"/>
<path d="" fill="#FED866" transform="translate(0,0)"/>
<path d="" fill="#FED665" transform="translate(0,0)"/>
<path d="" fill="#FFD666" transform="translate(0,0)"/>
<path d="" fill="#FFD866" transform="translate(0,0)"/>
<path d="" fill="#FFD667" transform="translate(0,0)"/>
<path d="" fill="#FED665" transform="translate(0,0)"/>
<path d="" fill="#FBD564" transform="translate(0,0)"/>
<path d="" fill="#F4CE60" transform="translate(0,0)"/>
<path d="" fill="#FED565" transform="translate(0,0)"/>
<path d="" fill="#FDD665" transform="translate(0,0)"/>
<path d="" fill="#8D6D29" transform="translate(0,0)"/>
<path d="" fill="#FDD762" transform="translate(0,0)"/>
<path d="" fill="#FFD665" transform="translate(0,0)"/>
<path d="" fill="#F6CC5E" transform="translate(0,0)"/>
<path d="" fill="#FCD462" transform="translate(0,0)"/>
<path d="" fill="#FED967" transform="translate(0,0)"/>
<path d="" fill="#FED865" transform="translate(0,0)"/>
<path d="" fill="#F7CF60" transform="translate(0,0)"/>
<path d="" fill="#FED766" transform="translate(0,0)"/>
<path d="" fill="#FED865" transform="translate(0,0)"/>
<path d="" fill="#FDD664" transform="translate(0,0)"/>
<path d="" fill="#FFD866" transform="translate(0,0)"/>
<path d="" fill="#FFD866" transform="translate(0,0)"/>
<path d="" fill="#F6CC60" transform="translate(0,0)"/>
<path d="" fill="#F1C85B" transform="translate(0,0)"/>
<path d="" fill="#FFD967" transform="translate(0,0)"/>
<path d="" fill="#FBD565" transform="translate(0,0)"/>
<path d="" fill="#FFD766" transform="translate(0,0)"/>
<path d="" fill="#F1C95D" transform="translate(0,0)"/>
<path d="" fill="#FFDA66" transform="translate(0,0)"/>
<path d="" fill="#FFD866" transform="translate(0,0)"/>
<path d="" fill="#FED663" transform="translate(0,0)"/>
<path d="" fill="#FFD966" transform="translate(0,0)"/>
<path d="" fill="#FFD665" transform="translate(0,0)"/>
<path d="" fill="#FFD967" transform="translate(0,0)"/>
<path d="" fill="#FFDA65" transform="translate(0,0)"/>
<path d="" fill="#FFD864" transform="translate(0,0)"/>
<path d="" fill="#FFD865" transform="translate(0,0)"/>
<path d="" fill="#FFD764" transform="translate(0,0)"/>
<path d="" fill="#FFD865" transform="translate(0,0)"/>
<path d="" fill="#F6CC5D" transform="translate(0,0)"/>
<path d="" fill="#FED763" transform="translate(0,0)"/>
<path d="" fill="#FFD966" transform="translate(0,0)"/>
<path d="" fill="#F8D060" transform="translate(0,0)"/>
<path d="" fill="#FCD765" transform="translate(0,0)"/>
<path d="" fill="#FFD865" transform="translate(0,0)"/>
<path d="" fill="#FDD766" transform="translate(0,0)"/>
<path d="" fill="#FFD866" transform="translate(0,0)"/>
<path d="" fill="#FCD667" transform="translate(0,0)"/>
<path d="" fill="#FDD566" transform="translate(0,0)"/>
<path d="" fill="#FFD767" transform="translate(0,0)"/>
<path d="" fill="#FFD866" transform="translate(0,0)"/>
<path d="" fill="#FDD666" transform="translate(0,0)"/>
<path d="" fill="#FFD665" transform="translate(0,0)"/>
<path d="" fill="#FFD965" transform="translate(0,0)"/>
<path d="" fill="#FFD666" transform="translate(0,0)"/>
<path d="" fill="#FED763" transform="translate(0,0)"/>
<path d="" fill="#FED864" transform="translate(0,0)"/>
<path d="" fill="#FFD865" transform="translate(0,0)"/>
<path d="" fill="#FFD864" transform="translate(0,0)"/>
<path d="" fill="#FFD865" transform="translate(0,0)"/>
<path d="" fill="#FDD762" transform="translate(0,0)"/>
<path d="" fill="#FFD866" transform="translate(0,0)"/>
<path d="" fill="#FFD865" transform="translate(0,0)"/>
<path d="" fill="#FFD867" transform="translate(0,0)"/>
<path d="" fill="#FFD765" transform="translate(0,0)"/>
<path d="" fill="#FED765" transform="translate(0,0)"/>
<path d="" fill="#FED563" transform="translate(0,0)"/>
<path d="" fill="#FFD764" transform="translate(0,0)"/>
<path d="" fill="#FFD766" transform="translate(0,0)"/>
<path d="" fill="#FFD966" transform="translate(0,0)"/>
<path d="" fill="#FFD866" transform="translate(0,0)"/>
<path d="" fill="#FFD966" transform="translate(0,0)"/>
<path d="" fill="#F3CB5D" transform="translate(0,0)"/>
<path d="" fill="#FFD765" transform="translate(0,0)"/>
<path d="" fill="#FFD865" transform="translate(0,0)"/>
<path d="" fill="#FFD966" transform="translate(0,0)"/>
<path d="" fill="#FFDA66" transform="translate(0,0)"/>
<path d="" fill="#FFD865" transform="translate(0,0)"/>
<path d="" fill="#F5CD5F" transform="translate(0,0)"/>
<path d="" fill="#F4CC60" transform="translate(0,0)"/>
<path d="" fill="#FFD968" transform="translate(0,0)"/>
<path d="" fill="#FFD966" transform="translate(0,0)"/>
<path d="" fill="#FFD868" transform="translate(0,0)"/>
<path d="" fill="#FFDA67" transform="translate(0,0)"/>
<path d="" fill="#FFDB68" transform="translate(0,0)"/>
<path d="" fill="#FFD966" transform="translate(0,0)"/>
<path d="" fill="#FED964" transform="translate(0,0)"/>
<path d="" fill="#FFD967" transform="translate(0,0)"/>
<path d="" fill="#FFD866" transform="translate(0,0)"/>
<path d="" fill="#F2CA5F" transform="translate(0,0)"/>
<path d="" fill="#F4CC5C" transform="translate(0,0)"/>
<path d="" fill="#FFD965" transform="translate(0,0)"/>
<path d="" fill="#FFD563" transform="translate(0,0)"/>
<path d="" fill="#F6CD60" transform="translate(0,0)"/>
<path d="" fill="#FCD867" transform="translate(0,0)"/>
<path d="" fill="#FED765" transform="translate(0,0)"/>
<path d="" fill="#FEDB67" transform="translate(0,0)"/>
<path d="" fill="#FED764" transform="translate(0,0)"/>
<path d="" fill="#FFD765" transform="translate(0,0)"/>
<path d="" fill="#FFD967" transform="translate(0,0)"/>
<path d="" fill="#FFD867" transform="translate(0,0)"/>
<path d="" fill="#FFD765" transform="translate(0,0)"/>
<path d="" fill="#F9D062" transform="translate(0,0)"/>
<path d="" fill="#FFD867" transform="translate(0,0)"/>
<path d="" fill="#FDD765" transform="translate(0,0)"/>
<path d="" fill="#FED663" transform="translate(0,0)"/>
<path d="" fill="#FFDA65" transform="translate(0,0)"/>
<path d="" fill="#FFD966" transform="translate(0,0)"/>
<path d="" fill="#FFD965" transform="translate(0,0)"/>
<path d="" fill="#FFDB67" transform="translate(0,0)"/>
<path d="" fill="#FFD966" transform="translate(0,0)"/>
<path d="" fill="#FED866" transform="translate(0,0)"/>
<path d="" fill="#FFD966" transform="translate(0,0)"/>
<path d="" fill="#FFD866" transform="translate(0,0)"/>
<path d="" fill="#FFD864" transform="translate(0,0)"/>
<path d="" fill="#FFD866" transform="translate(0,0)"/>
<path d="" fill="#FFD766" transform="translate(0,0)"/>
<path d="" fill="#F7CD5F" transform="translate(0,0)"/>
<path d="" fill="#FFD766" transform="translate(0,0)"/>
<path d="" fill="#FFD867" transform="translate(0,0)"/>
<path d="" fill="#FED864" transform="translate(0,0)"/>
<path d="" fill="#FFD767" transform="translate(0,0)"/>
<path d="" fill="#FFD564" transform="translate(0,0)"/>
<path d="" fill="#FDD566" transform="translate(0,0)"/>
<path d="" fill="#FFD966" transform="translate(0,0)"/>
<path d="" fill="#FFD865" transform="translate(0,0)"/>
<path d="" fill="#FFD966" transform="translate(0,0)"/>
<path d="" fill="#FFD865" transform="translate(0,0)"/>
<path d="" fill="#FFD664" transform="translate(0,0)"/>
<path d="" fill="#FFD865" transform="translate(0,0)"/>
<path d="" fill="#FFD863" transform="translate(0,0)"/>
<path d="" fill="#FED664" transform="translate(0,0)"/>
<path d="" fill="#FFD864" transform="translate(0,0)"/>
<path d="" fill="#FFD865" transform="translate(0,0)"/>
<path d="" fill="#FFD966" transform="translate(0,0)"/>
<path d="" fill="#FFDA67" transform="translate(0,0)"/>
<path d="" fill="#FFD664" transform="translate(0,0)"/>
<path d="" fill="#FFD765" transform="translate(0,0)"/>
<path d="" fill="#F8D363" transform="translate(0,0)"/>
<path d="" fill="#FFD965" transform="translate(0,0)"/>
<path d="" fill="#FED665" transform="translate(0,0)"/>
<path d="" fill="#FFD865" transform="translate(0,0)"/>
<path d="" fill="#FFDB65" transform="translate(0,0)"/>
<path d="" fill="#FFD864" transform="translate(0,0)"/>
<path d="" fill="#FFDA67" transform="translate(0,0)"/>
<path d="" fill="#FFDC67" transform="translate(0,0)"/>
<path d="" fill="#FFD765" transform="translate(0,0)"/>
<path d="" fill="#FCD263" transform="translate(0,0)"/>
<path d="" fill="#FFD865" transform="translate(0,0)"/>
<path d="" fill="#FFD864" transform="translate(0,0)"/>
<path d="" fill="#FFD664" transform="translate(0,0)"/>
<path d="" fill="#FDD361" transform="translate(0,0)"/>
<path d="" fill="#FEDA68" transform="translate(0,0)"/>
<path d="" fill="#FFD867" transform="translate(0,0)"/>
<path d="" fill="#FFD966" transform="translate(0,0)"/>
<path d="" fill="#FFD766" transform="translate(0,0)"/>
<path d="" fill="#FED867" transform="translate(0,0)"/>
<path d="" fill="#FFD665" transform="translate(0,0)"/>
<path d="" fill="#FED765" transform="translate(0,0)"/>
<path d="" fill="#FCD666" transform="translate(0,0)"/>
<path d="" fill="#FAD160" transform="translate(0,0)"/>
<path d="" fill="#FFD966" transform="translate(0,0)"/>
<path d="" fill="#FFD967" transform="translate(0,0)"/>
<path d="" fill="#FED867" transform="translate(0,0)"/>
<path d="" fill="#FAD161" transform="translate(0,0)"/>
<path d="" fill="#FFD664" transform="translate(0,0)"/>
<path d="" fill="#FFD766" transform="translate(0,0)"/>
<path d="" fill="#FCD464" transform="translate(0,0)"/>
<path d="" fill="#FFD867" transform="translate(0,0)"/>
<path d="" fill="#FFD868" transform="translate(0,0)"/>
<path d="" fill="#FFD768" transform="translate(0,0)"/>
<path d="" fill="#FDD865" transform="translate(0,0)"/>
<path d="" fill="#FFD565" transform="translate(0,0)"/>
<path d="" fill="#FFD865" transform="translate(0,0)"/>
<path d="" fill="#FFD865" transform="translate(0,0)"/>
<path d="" fill="#FDD866" transform="translate(0,0)"/>
<path d="" fill="#FFD866" transform="translate(0,0)"/>
<path d="" fill="#FFD866" transform="translate(0,0)"/>
<path d="" fill="#FFD967" transform="translate(0,0)"/>
<path d="" fill="#FDD766" transform="translate(0,0)"/>
<path d="" fill="#FCD364" transform="translate(0,0)"/>
<path d="" fill="#FFDA66" transform="translate(0,0)"/>
<path d="" fill="#FFD968" transform="translate(0,0)"/>
<path d="" fill="#FCD263" transform="translate(0,0)"/>
<path d="" fill="#FDD462" transform="translate(0,0)"/>
<path d="" fill="#FED564" transform="translate(0,0)"/>
<path d="" fill="#FED563" transform="translate(0,0)"/>
<path d="" fill="#FFD766" transform="translate(0,0)"/>
<path d="" fill="#FFDA68" transform="translate(0,0)"/>
<path d="" fill="#FDD463" transform="translate(0,0)"/>
<path d="" fill="#FFD967" transform="translate(0,0)"/>
<path d="" fill="#FFD966" transform="translate(0,0)"/>
<path d="" fill="#FFDA65" transform="translate(0,0)"/>
<path d="" fill="#FFD867" transform="translate(0,0)"/>
<path d="" fill="#FCD764" transform="translate(0,0)"/>
<path d="" fill="#FFD865" transform="translate(0,0)"/>
<path d="" fill="#FFDB67" transform="translate(0,0)"/>
<path d="" fill="#FED866" transform="translate(0,0)"/>
<path d="" fill="#FFD866" transform="translate(0,0)"/>
<path d="" fill="#FFD865" transform="translate(0,0)"/>
<path d="" fill="#FED866" transform="translate(0,0)"/>
<path d="" fill="#FCD465" transform="translate(0,0)"/>
<path d="" fill="#FFDA68" transform="translate(0,0)"/>
<path d="" fill="#FFD966" transform="translate(0,0)"/>
<path d="" fill="#FDD365" transform="translate(0,0)"/>
<path d="" fill="#FFD967" transform="translate(0,0)"/>
<path d="" fill="#FED866" transform="translate(0,0)"/>
<path d="" fill="#FDDA67" transform="translate(0,0)"/>
<path d="" fill="#FFD966" transform="translate(0,0)"/>
<path d="" fill="#FFD764" transform="translate(0,0)"/>
<path d="" fill="#FFD865" transform="translate(0,0)"/>
<path d="" fill="#FFD866" transform="translate(0,0)"/>
<path d="" fill="#FFD966" transform="translate(0,0)"/>
<path d="" fill="#FFDA66" transform="translate(0,0)"/>
<path d="" fill="#FFD862" transform="translate(0,0)"/>
<path d="" fill="#FFD864" transform="translate(0,0)"/>
<path d="" fill="#FFDB66" transform="translate(0,0)"/>
<path d="" fill="#FDD464" transform="translate(0,0)"/>
<path d="" fill="#FFD667" transform="translate(0,0)"/>
<path d="" fill="#FFD766" transform="translate(0,0)"/>
<path d="" fill="#FED866" transform="translate(0,0)"/>
<path d="" fill="#FFD966" transform="translate(0,0)"/>
<path d="" fill="#FFD767" transform="translate(0,0)"/>
<path d="" fill="#FED463" transform="translate(0,0)"/>
<path d="" fill="#FDD664" transform="translate(0,0)"/>
<path d="" fill="#FCD565" transform="translate(0,0)"/>
<path d="" fill="#FFD865" transform="translate(0,0)"/>
<path d="" fill="#FED769" transform="translate(0,0)"/>
<path d="" fill="#FFD866" transform="translate(0,0)"/>
<path d="" fill="#FFDA6A" transform="translate(0,0)"/>
<path d="" fill="#FFD865" transform="translate(0,0)"/>
<path d="" fill="#FFD768" transform="translate(0,0)"/>
<path d="" fill="#FED664" transform="translate(0,0)"/>
<path d="" fill="#FED968" transform="translate(0,0)"/>
<path d="" fill="#FFD766" transform="translate(0,0)"/>
<path d="" fill="#FFD768" transform="translate(0,0)"/>
<path d="" fill="#FFD868" transform="translate(0,0)"/>
<path d="" fill="#FFD967" transform="translate(0,0)"/>
<path d="" fill="#FAD464" transform="translate(0,0)"/>
<path d="" fill="#FFD866" transform="translate(0,0)"/>
<path d="" fill="#FBD663" transform="translate(0,0)"/>
<path d="" fill="#FFD966" transform="translate(0,0)"/>
<path d="" fill="#FFD965" transform="translate(0,0)"/>
<path d="" fill="#FFD864" transform="translate(0,0)"/>
<path d="" fill="#FFD667" transform="translate(0,0)"/>
<path d="" fill="#FFDA66" transform="translate(0,0)"/>
<path d="" fill="#F9D264" transform="translate(0,0)"/>
<path d="" fill="#FDD763" transform="translate(0,0)"/>
<path d="" fill="#FFD867" transform="translate(0,0)"/>
<path d="" fill="#FFDB67" transform="translate(0,0)"/>
<path d="" fill="#FFD765" transform="translate(0,0)"/>
<path d="" fill="#FFD865" transform="translate(0,0)"/>
<path d="" fill="#FDD563" transform="translate(0,0)"/>
<path d="" fill="#FED764" transform="translate(0,0)"/>
<path d="" fill="#F9D164" transform="translate(0,0)"/>
<path d="" fill="#FED764" transform="translate(0,0)"/>
<path d="" fill="#FFD564" transform="translate(0,0)"/>
<path d="" fill="#FFD866" transform="translate(0,0)"/>
<path d="" fill="#FFD967" transform="translate(0,0)"/>
<path d="" fill="#F8D260" transform="translate(0,0)"/>
<path d="" fill="#FFD965" transform="translate(0,0)"/>
<path d="" fill="#F5CD5F" transform="translate(0,0)"/>
<path d="" fill="#FFD665" transform="translate(0,0)"/>
<path d="" fill="#FFD967" transform="translate(0,0)"/>
<path d="" fill="#F5CE60" transform="translate(0,0)"/>
<path d="" fill="#FFDA68" transform="translate(0,0)"/>
<path d="" fill="#FFD765" transform="translate(0,0)"/>
<path d="" fill="#F7D162" transform="translate(0,0)"/>
<path d="" fill="#FFDB69" transform="translate(0,0)"/>
<path d="" fill="#FFD965" transform="translate(0,0)"/>
<path d="" fill="#FFD767" transform="translate(0,0)"/>
<path d="" fill="#F8D060" transform="translate(0,0)"/>
<path d="" fill="#FFDA68" transform="translate(0,0)"/>
<path d="" fill="#FFD967" transform="translate(0,0)"/>
<path d="" fill="#FFD868" transform="translate(0,0)"/>
<path d="" fill="#FFD967" transform="translate(0,0)"/>
<path d="" fill="#F8CE61" transform="translate(0,0)"/>
<path d="" fill="#FFDA68" transform="translate(0,0)"/>
<path d="" fill="#FBD164" transform="translate(0,0)"/>
<path d="" fill="#FFD866" transform="translate(0,0)"/>
<path d="" fill="#FFDC65" transform="translate(0,0)"/>
<path d="" fill="#FED966" transform="translate(0,0)"/>
<path d="" fill="#FED967" transform="translate(0,0)"/>
<path d="" fill="#FDD463" transform="translate(0,0)"/>
<path d="" fill="#FACF63" transform="translate(0,0)"/>
<path d="" fill="#FFDB68" transform="translate(0,0)"/>
<path d="" fill="#FFD967" transform="translate(0,0)"/>
<path d="" fill="#FED966" transform="translate(0,0)"/>
<path d="" fill="#FDD867" transform="translate(0,0)"/>
<path d="" fill="#FED766" transform="translate(0,0)"/>
<path d="" fill="#FDD965" transform="translate(0,0)"/>
<path d="" fill="#FFDA65" transform="translate(0,0)"/>
<path d="" fill="#FFD868" transform="translate(0,0)"/>
<path d="" fill="#FFDB68" transform="translate(0,0)"/>
<path d="" fill="#FFD568" transform="translate(0,0)"/>
<path d="" fill="#FFD765" transform="translate(0,0)"/>
<path d="" fill="#FFD866" transform="translate(0,0)"/>
<path d="" fill="#F7D060" transform="translate(0,0)"/>
<path d="" fill="#FFD667" transform="translate(0,0)"/>
<path d="" fill="#FFD868" transform="translate(0,0)"/>
<path d="" fill="#FFDA67" transform="translate(0,0)"/>
<path d="" fill="#FED665" transform="translate(0,0)"/>
<path d="" fill="#FCD364" transform="translate(0,0)"/>
<path d="" fill="#FBD162" transform="translate(0,0)"/>
<path d="" fill="#FED665" transform="translate(0,0)"/>
<path d="" fill="#FDD664" transform="translate(0,0)"/>
<path d="" fill="#FCD465" transform="translate(0,0)"/>
</svg>
