<?xml version="1.0" standalone="no"?>
<!DOCTYPE svg PUBLIC "-//W3C//DTD SVG 20010904//EN"
 "http://www.w3.org/TR/2001/REC-SVG-20010904/DTD/svg10.dtd">
<svg version="1.0" xmlns="http://www.w3.org/2000/svg"
 width="264.000000pt" height="265.000000pt" viewBox="0 0 264.000000 265.000000"
 preserveAspectRatio="xMidYMid meet">
<metadata>
Created by potrace 1.10, written by Peter Selinger 2001-2011
</metadata>
<g transform="translate(0.000000,265.000000) scale(0.100000,-0.100000)"
fill="#000000" stroke="none">
<path d="M1342 1787 c-12 -7 -19 -16 -16 -20 4 -4 0 -7 -9 -7 -20 0 -81 -65
-106 -112 -10 -18 -27 -50 -39 -70 -12 -21 -19 -38 -16 -38 3 0 -3 -12 -14
-27 -10 -16 -30 -59 -43 -97 -13 -37 -30 -71 -37 -73 -13 -6 -51 34 -52 55 0
6 -11 22 -25 34 -25 21 -26 55 -3 84 13 17 22 107 14 147 -4 21 -22 51 -46 76
-34 35 -46 41 -80 41 -22 0 -40 -5 -40 -11 0 -5 -4 -7 -10 -4 -5 3 -10 2 -10
-4 0 -5 -14 -17 -32 -25 -17 -9 -29 -13 -25 -10 7 8 -17 34 -32 34 -6 0 -11 5
-11 10 0 24 -55 9 -82 -22 -32 -38 -82 -137 -93 -186 -3 -18 -10 -30 -15 -27
-7 5 -32 -52 -35 -80 -1 -5 -6 -22 -12 -36 -6 -14 -17 -45 -24 -70 -7 -24 -16
-49 -20 -54 -4 -6 -11 -33 -15 -60 -3 -27 -10 -60 -15 -73 -17 -44 -10 -71 27
-107 75 -73 122 -54 163 67 32 92 41 104 89 112 21 3 47 14 58 25 12 10 39 28
62 39 l40 19 22 -29 c21 -28 21 -31 6 -75 -27 -78 -21 -124 18 -167 19 -20 38
-37 43 -37 55 -8 69 -5 114 23 28 17 48 33 45 36 -3 3 6 15 19 28 24 22 51 23
66 2 3 -5 19 -12 36 -17 30 -9 35 -7 91 27 19 11 23 9 37 -17 20 -41 19 -61
-5 -62 -30 -2 -31 -3 -83 -28 -69 -33 -127 -109 -127 -165 0 -34 5 -46 30 -66
40 -33 46 -29 49 32 0 15 8 34 16 42 29 29 146 58 253 63 88 4 283 -8 356 -23
12 -2 39 -6 61 -9 32 -4 30 -2 -15 10 -30 8 -107 20 -170 27 -303 34 -520 -11
-520 -107 0 -23 -2 -26 -15 -15 -33 27 -10 96 49 147 62 55 121 68 301 68 133
-1 191 -6 346 -33 102 -18 212 -32 245 -32 64 0 156 21 180 41 21 18 28 4 14
-30 -6 -16 -31 -42 -53 -57 -39 -27 -49 -28 -149 -29 -60 0 -108 -3 -108 -7 0
-10 120 -14 180 -5 30 4 60 9 67 9 7 1 10 5 7 10 -3 4 0 8 7 8 7 0 32 21 55
46 34 35 45 42 50 30 8 -21 -22 -68 -59 -93 -64 -43 -193 -52 -310 -22 -20 6
-52 12 -70 14 -332 42 -426 44 -572 11 -69 -15 -115 -51 -115 -90 0 -13 -5
-27 -10 -29 -6 -3 -5 -4 2 -3 7 1 24 19 37 39 13 20 32 37 42 37 10 0 21 5 24
11 4 6 13 8 20 5 7 -2 18 1 24 7 13 13 253 16 391 5 94 -7 113 -10 120 -19 3
-4 28 -9 55 -12 28 -3 75 -10 105 -15 86 -14 230 -2 230 19 0 6 5 7 10 4 6 -3
10 -1 10 5 0 6 5 8 10 5 6 -3 10 -1 10 5 0 6 4 9 8 6 11 -6 40 28 53 61 13 35
4 57 -35 87 -30 23 -38 24 -68 15 -18 -6 -42 -15 -53 -21 -26 -15 -182 -21
-190 -8 -4 6 -10 8 -14 5 -5 -2 -23 0 -41 5 -18 5 -58 12 -89 15 -31 4 -65 9
-75 12 -11 3 -34 7 -50 9 -29 2 -94 11 -141 18 -11 2 -24 4 -28 5 -5 0 -6 14
-2 31 7 34 -2 73 -16 65 -5 -4 -9 -1 -9 4 0 6 9 11 20 11 11 0 20 4 20 9 0 15
42 0 80 -27 24 -19 48 -27 82 -28 26 -1 59 -9 74 -18 36 -24 69 -29 84 -11 7
8 16 13 20 10 5 -3 12 0 15 6 5 7 12 4 20 -8 7 -10 34 -29 59 -42 45 -22 48
-22 74 -5 40 25 90 83 113 131 11 24 25 45 30 49 5 3 7 9 4 14 -3 5 -1 11 5
15 16 10 11 53 -7 64 -10 6 -14 11 -9 11 5 0 -1 9 -14 20 -14 12 -31 18 -42
14 -13 -4 -29 5 -54 30 -37 37 -67 52 -97 47 -9 -1 -30 7 -46 18 -37 26 -52
26 -104 -1 -51 -26 -65 -29 -74 -16 -4 7 -1 8 8 4 8 -4 -2 7 -21 24 -30 27
-41 31 -73 27 -56 -7 -93 11 -113 55 -9 21 -21 38 -25 38 -4 0 -7 13 -7 30 1
16 5 27 9 24 11 -6 -17 46 -38 73 -10 11 -40 35 -67 52 -54 33 -104 40 -144
18z m118 -43 c39 -19 110 -84 110 -99 0 -8 -8 -19 -18 -24 -20 -11 -48 1 -38
17 4 6 -2 8 -14 5 -15 -4 -23 3 -36 30 -21 44 -41 40 -97 -23 -74 -82 -139
-226 -171 -377 -11 -52 -11 -63 0 -63 19 0 94 96 201 258 62 92 101 142 112
142 21 0 81 -52 81 -69 0 -7 -9 -25 -19 -40 -34 -48 -72 -163 -86 -260 -16
-114 -35 -143 -28 -44 8 117 31 202 84 306 25 50 24 67 -1 35 -19 -24 -53
-102 -71 -163 -15 -47 -38 -233 -32 -255 8 -28 18 -25 49 15 46 60 58 40 24
-39 -14 -33 -26 -47 -45 -52 -34 -8 -72 12 -91 48 -18 35 -18 157 0 226 14 55
7 70 -12 27 -16 -34 -100 -164 -126 -194 -15 -17 -16 -22 -6 -19 8 2 35 30 60
61 26 32 46 50 48 42 8 -34 -68 -135 -100 -135 -28 0 -107 66 -114 96 -8 31
-20 30 -38 -3 -14 -27 -81 -98 -121 -128 -17 -12 -18 -14 -3 -15 9 0 46 29 81
64 57 58 77 69 77 46 0 -27 -119 -139 -148 -140 -8 0 -32 17 -54 38 -36 34
-39 41 -35 78 2 22 17 68 34 102 28 60 29 62 9 62 -65 1 -82 84 -26 123 24 17
60 11 60 -9 0 -8 7 -14 15 -14 8 0 15 -9 15 -20 0 -11 -7 -20 -15 -20 -8 0
-15 7 -15 16 0 9 -6 14 -12 12 -24 -8 -15 -43 12 -46 52 -6 70 -13 70 -27 0
-8 7 -15 15 -15 21 0 19 -29 -5 -67 -11 -18 -21 -33 -23 -33 -7 0 5 55 15 67
5 7 5 13 0 17 -11 7 -88 -161 -79 -171 18 -17 157 159 157 198 0 109 175 418
254 449 24 9 59 4 96 -16z m-739 -23 c33 -34 35 -43 13 -61 -8 -8 -14 -9 -13
-4 5 30 -3 34 -21 11 -11 -14 -20 -28 -20 -30 0 -3 -17 -43 -39 -89 -51 -110
-60 -146 -19 -78 42 71 160 221 199 254 17 15 39 26 50 26 10 0 39 -21 64 -46
45 -44 46 -48 42 -94 -6 -57 -36 -128 -66 -154 -22 -20 -41 -15 -23 6 31 39
54 97 57 147 2 31 2 45 -1 31 -26 -128 -111 -238 -243 -314 -35 -21 -80 -38
-100 -40 -36 -2 -36 -3 -63 -81 -15 -44 -27 -90 -27 -102 -1 -13 -5 -23 -11
-23 -5 0 -10 -5 -10 -12 0 -30 26 18 55 100 l31 87 49 18 c28 10 58 20 68 24
9 3 17 9 17 14 0 5 5 9 10 9 6 0 32 15 58 33 61 43 86 53 73 29 -23 -42 -169
-132 -217 -132 -29 0 -33 -4 -53 -60 -12 -34 -25 -76 -28 -95 -3 -19 -11 -40
-19 -46 -17 -14 -60 -7 -56 9 1 6 -7 12 -18 12 -34 0 -41 31 -24 107 17 73
100 320 113 338 4 5 22 45 39 87 38 91 72 147 90 148 8 0 27 -13 43 -29z m729
-50 c0 -5 -11 -18 -23 -28 -42 -32 -114 -155 -159 -268 -30 -78 -44 -103 -46
-86 -11 78 114 327 188 374 29 19 40 21 40 8z m209 -213 l30 -33 21 23 c11 12
27 22 34 22 22 0 76 -59 76 -83 0 -24 -79 -122 -80 -99 0 18 32 72 42 72 4 0
8 9 8 20 0 18 -4 16 -30 -14 -29 -32 -68 -132 -56 -143 6 -6 71 43 101 77 11
12 31 42 45 67 27 50 78 84 111 76 10 -3 27 -18 36 -33 15 -27 16 -27 44 -11
28 16 29 15 54 -11 14 -16 30 -28 35 -28 16 0 11 -24 -17 -86 -31 -68 -45 -51
-17 21 20 52 13 71 -10 27 -16 -30 -22 -56 -33 -132 l-6 -45 27 25 c15 14 48
58 73 98 25 39 51 72 59 72 20 0 19 -4 -23 -78 -38 -70 -87 -138 -113 -159
-13 -11 -13 -12 0 -13 9 0 24 10 34 21 16 19 93 135 122 184 6 11 15 15 22 11
31 -19 -126 -246 -170 -246 -27 0 -94 71 -102 107 -4 18 -1 48 8 74 18 51 14
63 -8 22 -8 -17 -36 -56 -62 -87 -43 -53 -35 -66 10 -17 38 42 51 13 15 -33
-30 -38 -66 -34 -108 10 -27 30 -32 43 -29 70 5 39 -6 44 -23 12 -7 -12 -21
-30 -32 -39 -20 -16 -20 -16 11 -11 33 4 41 -5 20 -26 -18 -18 -34 -15 -62 11
-13 12 -34 30 -45 39 -30 25 -28 91 4 146 39 69 12 48 -39 -30 -45 -68 -58
-108 -24 -75 20 20 27 14 20 -18 -3 -20 -10 -25 -34 -25 -23 0 -29 4 -24 15 3
9 0 15 -9 15 -7 0 -21 7 -29 16 -19 18 -13 71 16 149 11 27 22 59 25 70 13 44
42 45 82 3z m-89 -337 c0 -22 -32 -81 -49 -91 -29 -15 -45 -13 -29 4 8 7 22
32 32 55 17 36 46 57 46 32z"/>
<path d="M800 1638 c-50 -52 -134 -167 -175 -242 -36 -65 -36 -68 -14 -61 86
27 226 198 243 298 9 48 -9 49 -54 5z m30 -29 c0 -5 -4 -8 -9 -5 -5 3 -8 0 -7
-7 1 -14 -145 -216 -158 -216 -13 -1 3 49 26 83 74 106 148 179 148 145z"/>
<path d="M1636 1433 c-15 -16 -46 -97 -46 -122 l1 -26 16 30 c9 17 29 47 46
68 24 32 28 41 16 48 -17 11 -24 11 -33 2z"/>
<path d="M1932 1383 c-21 -41 -64 -175 -58 -181 7 -6 36 25 81 89 22 30 25 44
20 73 -8 39 -28 47 -43 19z"/>
</g>
</svg>
